<svg width="24" height="24" viewBox="0 0 24 24" fill="none" xmlns="http://www.w3.org/2000/svg">
<path fill-rule="evenodd" clip-rule="evenodd" d="M15.293 8.29279C15.6535 7.93231 16.221 7.90476 16.6133 8.20978L16.707 8.29279L19.707 11.2928C20.0675 11.6533 20.0951 12.2208 19.79 12.6131L19.707 12.7069L16.707 15.7069C16.3165 16.0974 15.6835 16.0974 15.293 15.7069C14.9325 15.3464 14.9049 14.7788 15.21 14.3865L15.293 14.2928L16.585 12.9998H6C5.44772 12.9998 5 12.5521 5 11.9998C5 11.487 5.38645 11.0644 5.88379 11.0067L6 10.9998H16.585L15.293 9.70685C14.9325 9.34637 14.9049 8.77883 15.21 8.38654L15.293 8.29279Z" fill="#00BFB3"/>
</svg>
