<svg width="24" height="24" viewBox="0 0 24 24" fill="none" xmlns="http://www.w3.org/2000/svg">
<path d="M15.293 8.29297C15.6535 7.93248 16.221 7.90494 16.6133 8.20996L16.707 8.29297L19.707 11.293C20.0675 11.6535 20.0951 12.221 19.79 12.6133L19.707 12.707L16.707 15.707C16.3165 16.0976 15.6835 16.0976 15.293 15.707C14.9325 15.3465 14.9049 14.779 15.21 14.3867L15.293 14.293L16.585 13H6C5.44772 13 5 12.5523 5 12C5 11.4872 5.38645 11.0646 5.88379 11.0068L6 11H16.585L15.293 9.70703C14.9325 9.34655 14.9049 8.77901 15.21 8.38672L15.293 8.29297Z" fill="white"/>
</svg>
