<svg width="56" height="21" viewBox="0 0 56 21" fill="none" xmlns="http://www.w3.org/2000/svg">
<rect x="0.5" y="0.5" width="54.0117" height="19.9824" rx="9.99121" stroke="white"/>
<path d="M27.5059 14.9824C27.0592 14.9824 26.6582 14.8001 26.3027 14.4355L20.4102 8.47461C20.1367 8.20117 20 7.86393 20 7.46289C20 7.06185 20.1436 6.71777 20.4307 6.43066C20.7178 6.14355 21.0573 6 21.4492 6C21.8594 6 22.2194 6.15951 22.5293 6.47852L27.5195 11.5645L32.4824 6.47852C32.7923 6.15951 33.1523 6 33.5625 6C33.9544 6 34.2939 6.14356 34.5811 6.43066C34.8682 6.71777 35.0117 7.06185 35.0117 7.46289C35.0117 7.86393 34.875 8.20117 34.6016 8.47461L28.709 14.4355C28.3626 14.791 27.9616 14.9733 27.5059 14.9824Z" fill="white"/>
</svg>
