<svg width="450" height="366" viewBox="0 0 450 366" fill="none" xmlns="http://www.w3.org/2000/svg">
<path d="M368.149 316.087C286.149 309.887 226.683 278.975 169.192 249.075C105.079 215.74 44.5149 184.249 -32.7939 198.775C-47.7865 201.6 -62.5269 206.031 -77 212.068V266.189C-59.6174 256.643 -41.8637 250.101 -23.8131 246.711C36.9889 235.277 85.4256 260.464 146.747 292.357C205.708 323.015 272.552 357.778 364.482 364.721C375.749 365.569 387.046 366 398.387 366C415.532 366 432.751 365.019 449.985 363.086V313.961C422.523 317.395 395.165 318.139 368.134 316.102L368.149 316.087ZM368.149 221.093C286.149 214.893 226.683 183.981 169.192 154.081C105.079 120.746 44.5149 89.2548 -32.7939 103.781C-47.7865 106.606 -62.5269 111.037 -77 117.074V171.194C-59.6174 161.649 -41.8637 155.107 -23.8131 151.717C36.9889 140.283 85.4256 165.47 146.747 197.363C205.708 228.021 272.552 262.784 364.482 269.727C375.749 270.575 387.046 271.006 398.387 271.006C415.532 271.006 432.751 270.025 449.985 268.092V218.981C422.523 222.431 395.165 223.159 368.134 221.108L368.149 221.093ZM368.149 120.954C286.149 114.769 226.683 83.8427 169.192 53.9423C105.065 20.5926 44.5149 -10.8987 -32.7939 3.6426C-47.7865 6.4676 -62.5269 10.8984 -77 16.9349V71.0559C-59.6174 61.5103 -41.8637 54.9683 -23.8131 51.5783C36.9889 40.1445 85.4256 65.3315 146.747 97.2242C205.708 127.883 272.552 162.645 364.482 169.589C375.749 170.436 387.06 170.867 398.401 170.867C415.547 170.867 432.751 169.886 450 167.953V118.828C422.538 122.263 395.18 123.006 368.149 120.954Z" fill="#00BFB3"/>
</svg>
