<svg width="90" height="54" viewBox="0 0 90 54" fill="none" xmlns="http://www.w3.org/2000/svg">
<path d="M0 43.5293V54C12.3407 44.0228 27.9897 38.0473 45 38.0473C62.0103 38.0473 77.6593 44.0254 90 54V43.5293C76.8176 34.511 61.2802 29.6605 45 29.6605C28.7198 29.6605 13.1824 34.511 0 43.5293ZM45 0C29.2293 0 13.9657 3.33681 0 9.66779V18.9469C13.8161 12.0406 29.1279 8.38676 45 8.38676C60.8721 8.38676 76.1839 12.0432 90 18.9469V9.66779C76.0343 3.33425 60.7732 0 45 0ZM0 25.6308V35.2858C13.446 27.0959 28.8896 22.721 45 22.721C61.1104 22.721 76.554 27.0959 90 35.2858V25.6308C76.3157 18.2489 60.9583 14.3316 45 14.3316C29.0417 14.3316 13.6843 18.2489 0 25.6308Z" fill="#005B7F"/>
</svg>
