<svg width="90" height="63" viewBox="0 0 90 63" fill="none" xmlns="http://www.w3.org/2000/svg">
<path d="M76.0216 54.4084C62.0179 53.3412 51.8624 48.0203 42.0441 42.8736C31.0951 37.1356 20.7521 31.715 7.54943 34.2154C4.98901 34.7017 2.47169 35.4644 0 36.5034V45.8193C2.96856 44.1763 6.00051 43.0502 9.08315 42.4666C19.4668 40.4985 27.7387 44.834 38.2111 50.3237C48.2804 55.601 59.6958 61.5847 75.3955 62.7799C77.3196 62.9258 79.2488 63 81.1856 63C84.1136 63 87.0543 62.8311 89.9975 62.4984V54.0424C85.3076 54.6336 80.6355 54.7616 76.0191 54.4109L76.0216 54.4084ZM76.0216 38.0569C62.0179 36.9897 51.8624 31.6689 42.0441 26.5221C31.0951 20.7841 20.7521 15.3635 7.54943 17.864C4.98901 18.3502 2.47169 19.1129 0 20.152V29.4679C2.96856 27.8248 6.00051 26.6987 9.08315 26.1152C19.4668 24.1471 27.7387 28.4826 38.2111 33.9723C48.2804 39.2496 59.6958 45.2333 75.3955 46.4285C77.3196 46.5743 79.2488 46.6486 81.1856 46.6486C84.1136 46.6486 87.0543 46.4796 89.9975 46.1469V37.6935C85.3076 38.2873 80.6355 38.4127 76.0191 38.0595L76.0216 38.0569ZM76.0216 20.82C62.0179 19.7553 51.8624 14.4319 42.0441 9.28516C31.0926 3.54462 20.7521 -1.876 7.54943 0.627005C4.98901 1.11327 2.47169 1.87595 0 2.91503V12.2309C2.96856 10.5878 6.00051 9.46175 9.08315 8.87823C19.4668 6.91012 27.7387 11.2456 38.2111 16.7353C48.2804 22.0126 59.6958 27.9963 75.3955 29.1915C77.3196 29.3374 79.2513 29.4116 81.1881 29.4116C84.1161 29.4116 87.0542 29.2427 90 28.91V20.454C85.3101 21.0452 80.638 21.1732 76.0216 20.82Z" fill="#005B7F"/>
</svg>
