<svg width="416" height="314" viewBox="0 0 416 314" fill="none" xmlns="http://www.w3.org/2000/svg">
<path d="M-111 253.115V314C-38.7383 255.985 52.8952 221.238 152.5 221.238C252.105 221.238 343.738 255.999 416 314V253.115C338.81 200.675 247.83 172.47 152.5 172.47C57.1703 172.47 -33.81 200.675 -111 253.115ZM152.5 0C60.154 0 -29.2231 19.4029 -111 56.2164V110.173C-30.0989 70.014 59.5603 48.7675 152.5 48.7675C245.44 48.7675 335.099 70.0289 416 110.173V56.2164C334.223 19.388 244.861 0 152.5 0ZM-111 149.038V205.18C-32.2662 157.558 58.1649 132.118 152.5 132.118C246.835 132.118 337.266 157.558 416 205.18V149.038C335.871 106.114 245.944 83.3359 152.5 83.3359C59.0555 83.3359 -30.8708 106.114 -111 149.038Z" fill="#00BFB3"/>
</svg>
