<svg width="105" height="80" viewBox="0 0 105 80" fill="none" xmlns="http://www.w3.org/2000/svg">
<path d="M59.005 52.5083C65.0353 52.0186 73.6742 48.1566 86.0809 40.6114C86.3382 40.456 94.0957 35.7348 104.997 29.1016V17.8146C92.2591 25.568 82.4136 31.556 81.0117 32.4094C65.3755 41.9193 59.6645 42.9486 57.9255 42.9486C57.9226 42.9486 57.9196 42.9486 57.9167 42.9486C57.8782 41.7639 58.2479 39.5851 58.4845 38.1863C58.6974 36.9195 58.934 35.5236 59.0701 34.0867C61.5751 34.0985 63.8376 33.4563 64.9407 33.1425C69.7319 31.776 75.8864 28.8816 83.7504 24.2953C84.5223 23.8466 93.2469 18.5096 105 11.3075V0C90.6621 8.78267 79.4413 15.6475 78.835 16.0023C65.8546 23.5739 60.7825 24.4419 59.1973 24.4654C59.1647 23.2777 59.5285 21.1165 59.7651 19.7265C60.5547 15.0493 61.6372 8.64485 56.9407 4.78282C49.7954 -1.07327 37.3768 5.53939 27.348 11.9556C18.3601 17.7266 9.16233 24.5123 0.00296038 32.122V44.8107C1.88689 43.1568 3.67913 41.6202 5.4418 40.154C14.5627 32.5237 23.7073 25.7527 32.6153 20.0345C45.6342 11.7034 49.9107 12.0318 50.6885 12.2048C51.0168 13.281 50.4874 16.4129 50.1946 18.1372C50.0349 19.0814 49.8723 20.055 49.7421 21.0315C45.2142 20.7148 40.5857 22.6883 38.6545 23.5123C33.8131 25.5768 29.1521 28.4506 26.0733 30.427C17.5705 35.8667 8.80447 42.2946 0 49.5378V62.1678C1.81295 60.599 3.62885 59.0624 5.4211 57.5785C14.1871 50.3178 22.9058 43.9016 31.3406 38.5059C44.3684 30.1397 48.6419 30.5033 49.4079 30.6763C49.7362 31.7466 49.2068 34.8785 48.914 36.6028C48.7898 37.3417 48.6627 38.0924 48.5503 38.8549C43.0671 38.9751 35.7029 42.0776 26.0733 48.2651C17.5705 53.7048 8.80151 60.1356 0.00296038 67.3758V80C1.80703 78.4399 3.62294 76.9033 5.42406 75.4166C14.1901 68.1559 22.9088 61.7397 31.3436 56.344C44.3477 47.9924 48.6331 48.3443 49.4109 48.5173C49.7362 49.5935 49.2068 52.7224 48.917 54.4467C48.1392 59.0565 47.2549 64.2792 50.9074 67.848C56.2752 73.1058 66.4697 70.3845 86.0898 58.4495C86.2554 58.3468 94.078 53.4731 105 46.6581V35.3066C92.1733 43.3122 82.2095 49.526 81.0147 50.2533C65.3784 59.7632 59.6675 60.7925 57.9285 60.7925H57.9196C57.8841 59.6078 58.2509 57.4348 58.4874 56.0361C58.6738 54.9393 58.8719 53.7458 59.0139 52.5142L59.005 52.5083Z" fill="#D6D2C4"/>
</svg>
