<svg width="40" height="40" viewBox="0 0 40 40" fill="none" xmlns="http://www.w3.org/2000/svg">
<path d="M19.9999 36.6667C29.2047 36.6667 36.6666 29.2047 36.6666 20C36.6666 10.7953 29.2047 3.33333 19.9999 3.33333C10.7952 3.33333 3.33325 10.7953 3.33325 20C3.33325 29.2047 10.7952 36.6667 19.9999 36.6667Z" stroke="url(#paint0_linear_334_2338)" stroke-width="3.33333" stroke-linecap="round" stroke-linejoin="round"/>
<path d="M19.9999 3.33333C15.7203 7.82692 13.3333 13.7946 13.3333 20C13.3333 26.2054 15.7203 32.1731 19.9999 36.6667C24.2795 32.1731 26.6666 26.2054 26.6666 20C26.6666 13.7946 24.2795 7.82692 19.9999 3.33333Z" stroke="url(#paint1_linear_334_2338)" stroke-width="3.33333" stroke-linecap="round" stroke-linejoin="round"/>
<path d="M3.33325 20H36.6666" stroke="url(#paint2_linear_334_2338)" stroke-width="3.33333" stroke-linecap="round" stroke-linejoin="round"/>
<defs>
<linearGradient id="paint0_linear_334_2338" x1="3.33325" y1="12.4793" x2="9.60681" y2="35.044" gradientUnits="userSpaceOnUse">
<stop stop-color="#C58427"/>
<stop offset="0.413462" stop-color="#DDB154"/>
<stop offset="0.480769" stop-color="#E8C568"/>
<stop offset="0.591346" stop-color="#DDB154"/>
<stop offset="0.788462" stop-color="#C68529"/>
<stop offset="0.870192" stop-color="#FAF3B2"/>
<stop offset="0.942308" stop-color="#E5BF62"/>
</linearGradient>
<linearGradient id="paint1_linear_334_2338" x1="13.3333" y1="12.4793" x2="24.7257" y2="28.8698" gradientUnits="userSpaceOnUse">
<stop stop-color="#C58427"/>
<stop offset="0.413462" stop-color="#DDB154"/>
<stop offset="0.480769" stop-color="#E8C568"/>
<stop offset="0.591346" stop-color="#DDB154"/>
<stop offset="0.788462" stop-color="#C68529"/>
<stop offset="0.870192" stop-color="#FAF3B2"/>
<stop offset="0.942308" stop-color="#E5BF62"/>
</linearGradient>
<linearGradient id="paint2_linear_334_2338" x1="3.33325" y1="20.2744" x2="3.33933" y2="21.0036" gradientUnits="userSpaceOnUse">
<stop stop-color="#C58427"/>
<stop offset="0.413462" stop-color="#DDB154"/>
<stop offset="0.480769" stop-color="#E8C568"/>
<stop offset="0.591346" stop-color="#DDB154"/>
<stop offset="0.788462" stop-color="#C68529"/>
<stop offset="0.870192" stop-color="#FAF3B2"/>
<stop offset="0.942308" stop-color="#E5BF62"/>
</linearGradient>
</defs>
</svg>
