<svg width="160" height="84" viewBox="0 0 160 84" fill="none" xmlns="http://www.w3.org/2000/svg">
<g clip-path="url(#clip0_334_1180)">
<g clip-path="url(#clip1_334_1180)">
<path d="M4.93336 55.504C4.80841 55.5943 4.70501 55.7577 4.62745 55.9985C4.5499 56.2394 4.49388 56.5275 4.45511 56.863C4.41633 57.1984 4.39048 57.564 4.36893 57.9639C4.3517 58.3639 4.33877 58.7552 4.33877 59.1423V61.069C4.39048 61.0819 4.51543 61.0862 4.71793 61.0862C4.92044 61.0862 5.1531 61.0862 5.41162 61.0776C5.67013 61.0733 5.94588 61.0604 6.23887 61.0389C6.53185 61.0217 6.79468 60.9959 7.03596 60.9744C7.27724 60.9486 7.47113 60.9228 7.62624 60.897C7.77704 60.8712 7.85459 60.8454 7.85459 60.8196C7.82874 60.6432 7.75981 60.3766 7.64347 60.0239C7.53145 59.6713 7.38496 59.2799 7.21692 58.8585C7.04458 58.4327 6.855 58.0026 6.64819 57.5683C6.43706 57.1339 6.23025 56.7469 6.01913 56.4114C5.80801 56.076 5.6055 55.8179 5.41162 55.6416C5.21342 55.4653 5.054 55.418 4.92474 55.5083M10.1812 69.4724C10.0304 69.4982 9.9098 69.4724 9.81932 69.3864C9.72884 69.3047 9.6599 69.1972 9.6082 69.0639C9.55649 68.9305 9.52633 68.7843 9.51341 68.6295C9.50048 68.4704 9.49617 68.3242 9.49617 68.1822C9.49617 68.0575 9.47894 67.7995 9.44878 67.4124C9.41862 67.0254 9.36261 66.5738 9.28505 66.0534C9.2075 65.533 9.09978 64.9783 8.96191 64.3848C8.82403 63.7913 8.63876 63.2279 8.41041 62.6946C8.3587 62.5914 8.11311 62.5742 7.66932 62.6387C7.22554 62.7032 6.66111 62.7333 5.97604 62.7333C5.76061 62.7204 5.54949 62.7247 5.33837 62.7419C5.12725 62.7591 4.94198 62.7849 4.77825 62.8064C4.61452 62.8322 4.47665 62.8581 4.36893 62.8839C4.26122 62.9097 4.20521 62.9269 4.20521 62.9398C4.19228 63.1032 4.17505 63.3182 4.15781 63.5763C4.14058 63.8343 4.10611 64.1095 4.06302 64.402C4.01994 64.6944 3.95531 64.9826 3.87345 65.275C3.79158 65.5675 3.67956 65.8255 3.54168 66.0534C3.40381 66.2814 3.23146 66.4663 3.02896 66.6039C2.82645 66.7415 2.58086 66.8017 2.28788 66.7759C2.0983 66.763 1.96042 66.5738 1.87856 66.2082C1.7967 65.8427 1.74069 65.4255 1.70622 64.9568C1.67606 64.488 1.66313 64.0407 1.67606 63.6193C1.68898 63.1935 1.69329 62.9183 1.69329 62.7935C0.995298 62.7032 0.52566 62.5828 0.275761 62.4323C0.0301705 62.2818 -0.0560016 62.1269 0.0172447 61.9678C0.0947995 61.8087 0.301612 61.6625 0.646301 61.5206C0.986681 61.3829 1.40892 61.2668 1.9001 61.1808C1.95181 60.7249 2.00782 60.1573 2.07245 59.4735C2.13708 58.7896 2.23618 58.093 2.36543 57.3876C2.499 56.678 2.68427 56.0114 2.91693 55.3835C3.1496 54.7557 3.47274 54.274 3.87775 53.9299C4.09318 53.7665 4.37324 53.7106 4.71362 53.7579C5.054 53.8095 5.41593 53.9428 5.78647 54.1579C6.16131 54.3729 6.52324 54.6524 6.88085 54.9922C7.23416 55.3319 7.54007 55.7147 7.79427 56.1319C7.94508 56.4114 8.1088 56.7727 8.27684 57.2156C8.44918 57.6586 8.61291 58.1102 8.77233 58.5746C8.93175 59.0348 9.07824 59.4648 9.22042 59.8562C9.3583 60.2476 9.47463 60.5314 9.5608 60.712C9.58665 60.7636 9.68575 60.7808 9.86671 60.7679C10.0434 60.755 10.2373 60.755 10.4484 60.7679C10.6595 60.7808 10.8491 60.8239 11.03 60.9013C11.2067 60.9787 11.3015 61.1292 11.3144 61.3571C11.3273 61.5464 11.2541 61.7141 11.0947 61.8603C10.9352 62.0065 10.7629 62.1269 10.5733 62.2216C10.3837 62.3162 10.2071 62.3893 10.0391 62.4409C9.87533 62.4925 9.79347 62.5226 9.79347 62.5355C9.94427 63.3311 10.0908 64.131 10.2329 64.9353C10.3708 65.7395 10.4742 66.4663 10.5389 67.1157C10.6035 67.7694 10.6078 68.307 10.5561 68.737C10.5044 69.1671 10.3794 69.4122 10.1769 69.4767L10.1812 69.4724Z" fill="#005B7F"/>
<path d="M17.2344 59.7143C17.1957 59.7788 17.075 59.7917 16.8725 59.7616C16.67 59.7315 16.433 59.7229 16.1702 59.7444C15.9031 59.7616 15.6359 59.8433 15.3731 59.9896C15.106 60.1358 14.8906 60.411 14.7268 60.8153C14.576 61.2195 14.4683 61.6496 14.4123 62.1055C14.3563 62.5613 14.3563 62.9957 14.4123 63.4043C14.4683 63.8171 14.576 64.1741 14.7354 64.4751C14.8949 64.7805 15.106 64.9869 15.3731 65.103C15.7523 65.2535 16.097 65.3051 16.3986 65.2535C16.7045 65.2019 16.9759 65.1159 17.2172 64.9955C17.4585 64.8751 17.6653 64.7461 17.8333 64.6084C18.0057 64.4708 18.1392 64.3805 18.2426 64.3418C18.4839 64.2644 18.5916 64.359 18.5658 64.617C18.5399 64.8751 18.3633 65.2105 18.0315 65.6148C17.8549 65.8427 17.6308 66.0621 17.368 66.2685C17.1009 66.4792 16.8036 66.6469 16.4761 66.7717C16.1487 66.8964 15.7867 66.9695 15.4033 66.9824C15.0155 66.9953 14.6062 66.9179 14.1753 66.7545C13.7703 66.6039 13.4041 66.3545 13.0723 66.0147C12.7406 65.675 12.4734 65.2793 12.2623 64.8278C12.0512 64.3805 11.909 63.8945 11.8228 63.3742C11.741 62.8538 11.7453 62.3377 11.8401 61.8173C11.9349 61.297 12.1244 60.7938 12.4088 60.3078C12.6932 59.8218 13.0896 59.3875 13.598 59.009C14.0805 58.6693 14.5502 58.4886 15.0155 58.4757C15.4765 58.4628 15.8858 58.5273 16.2305 58.665C16.5795 58.8026 16.8467 58.9832 17.0405 59.2068C17.2301 59.4262 17.2948 59.5939 17.2301 59.71" fill="#005B7F"/>
<path d="M23.7361 65.1417C23.8137 65.1288 23.8912 65.1159 23.9731 65.103C24.0549 65.0901 24.1368 65.0729 24.21 65.0471C24.1583 64.5009 24.098 64.0063 24.0291 63.5591C23.9601 63.1118 23.8567 62.7376 23.7146 62.4495C23.5638 62.1313 23.3871 61.8345 23.1932 61.5593C22.995 61.2797 22.7925 61.0561 22.5771 60.8841C22.3617 60.7121 22.1376 60.6131 21.9006 60.5916C21.668 60.5658 21.4353 60.6432 21.2069 60.8196C21.0303 60.9572 20.8924 61.1765 20.7976 61.4733C20.7028 61.77 20.6554 62.0926 20.6554 62.4409C20.6554 62.7893 20.7115 63.1419 20.8278 63.5032C20.9398 63.8644 21.1208 64.1784 21.3707 64.4536C21.6163 64.7245 21.9351 64.931 22.3229 65.0686C22.7107 65.2062 23.1803 65.232 23.7404 65.146M26.3773 58.3123C26.4161 58.3639 26.4505 58.5574 26.4807 58.9015C26.5108 59.2412 26.541 59.6756 26.5669 60.2003C26.5927 60.7249 26.6142 61.3184 26.6315 61.985C26.6487 62.6473 26.6616 63.3354 26.6616 64.045C27.0279 63.8042 27.3381 63.5591 27.5923 63.3139C27.8465 63.0688 28.0533 62.8581 28.2214 62.686C28.3851 62.514 28.5143 62.4022 28.6091 62.3463C28.7039 62.2904 28.7815 62.3248 28.8461 62.4495C28.8978 62.5527 28.8892 62.7075 28.8159 62.9226C28.747 63.1376 28.6221 63.3784 28.4454 63.6451C28.2687 63.9117 28.0318 64.1913 27.7345 64.4794C27.4372 64.7718 27.0796 65.0428 26.6616 65.2965C26.6616 65.89 26.6573 66.4706 26.6444 67.034C26.6315 67.5974 26.6142 68.1177 26.5884 68.5908C26.5625 69.0639 26.5367 69.4767 26.5022 69.8251C26.4721 70.1734 26.429 70.4272 26.3773 70.5949C26.2652 70.9863 26.1015 71.2916 25.8904 71.5152C25.6793 71.7389 25.4682 71.8808 25.2527 71.941C25.0373 72.0055 24.8477 71.984 24.684 71.8851C24.5203 71.7819 24.4169 71.6013 24.3781 71.3346C24.3522 71.1841 24.335 70.9347 24.3307 70.5863C24.3264 70.238 24.3221 69.8337 24.3221 69.3735C24.3221 68.9134 24.3221 68.4102 24.3135 67.8726C24.3091 67.335 24.2919 66.7931 24.2661 66.2513C23.9601 66.3158 23.6456 66.3674 23.3139 66.4018C22.9821 66.4405 22.6374 66.4534 22.2669 66.4405C21.6723 66.4405 21.1251 66.3287 20.6296 66.1093C20.1341 65.8857 19.7119 65.5718 19.3672 65.1589C19.0182 64.746 18.764 64.2558 18.6046 63.6881C18.4451 63.1204 18.4193 62.4796 18.5184 61.77C18.6433 61.1894 18.8027 60.7034 18.9923 60.3164C19.1819 59.9293 19.393 59.6197 19.63 59.3874C19.8627 59.1552 20.1255 58.9789 20.4099 58.8671C20.6942 58.751 20.9915 58.6649 21.2931 58.6004C21.724 58.5101 22.1161 58.5574 22.4737 58.7338C22.827 58.9101 23.1372 59.1337 23.3957 59.3961C23.6542 59.6627 23.8654 59.9207 24.0248 60.1745C24.1842 60.4282 24.2876 60.5916 24.3393 60.669C24.391 60.7465 24.4212 60.669 24.4341 60.4411C24.447 60.2132 24.4513 59.9465 24.4427 59.6455C24.4384 59.3401 24.4384 59.052 24.4427 58.7725C24.447 58.4929 24.4858 58.3424 24.5461 58.3166C24.5978 58.2908 24.7012 58.2521 24.8606 58.2048C25.0201 58.1532 25.1881 58.1145 25.3734 58.093C25.5586 58.0672 25.7396 58.0672 25.9249 58.093C26.1101 58.1188 26.2566 58.1919 26.373 58.3209L26.3773 58.3123Z" fill="#005B7F"/>
<path d="M30.2938 59.5079C30.2808 59.6326 30.2679 59.8476 30.255 60.153C30.2421 60.4583 30.2378 60.7938 30.2378 61.1679C30.2378 61.5421 30.2507 61.9291 30.2765 62.3334C30.3024 62.7377 30.3455 63.1075 30.4101 63.443C30.4747 63.7784 30.5695 64.0537 30.6945 64.2687C30.8194 64.4837 30.9874 64.5912 31.19 64.5912C31.4829 64.5912 31.7328 64.4837 31.9396 64.2687C32.1465 64.0537 32.3274 63.7827 32.4825 63.4516C32.6333 63.1247 32.754 62.7506 32.8445 62.342C32.9349 61.9291 33.0082 61.5292 33.0642 61.1378C33.1202 60.7465 33.159 60.3766 33.1762 60.0369C33.1935 59.6971 33.2107 59.4305 33.2236 59.2412C33.2365 59.0133 33.3012 58.8499 33.4218 58.7467C33.5425 58.6435 33.6933 58.5918 33.8699 58.5832C34.0466 58.5789 34.2361 58.6134 34.4386 58.6865C34.6411 58.7639 34.8307 58.8585 35.0074 58.9703C35.184 59.0864 35.3305 59.2154 35.4469 59.3617C35.5589 59.5079 35.6235 59.6498 35.6364 59.7874C35.6494 59.9767 35.6407 60.2519 35.6192 60.6131C35.5933 60.9744 35.5718 61.3787 35.5546 61.8259C35.5373 62.2732 35.5244 62.7377 35.5244 63.2107C35.5244 63.6838 35.5589 64.1225 35.6278 64.5181C35.6968 64.9138 35.8045 65.2578 35.951 65.5417C36.0975 65.8255 36.3043 66.0018 36.5671 66.062C36.8084 66.1266 36.9721 66.2083 37.0626 66.3072C37.1531 66.4104 37.1617 66.505 37.0927 66.5996C37.0238 66.6942 36.8816 66.7673 36.6748 66.819C36.4637 66.8706 36.1836 66.862 35.8303 66.8018C35.2487 66.6985 34.7963 66.4964 34.4817 66.1954C34.1629 65.89 33.9302 65.5761 33.7794 65.2449C33.6028 64.8665 33.4951 64.4493 33.4563 63.9934C33.2926 64.5009 33.0771 64.9353 32.81 65.3008C32.5816 65.6277 32.2886 65.9115 31.9267 66.1438C31.5648 66.376 31.1253 66.4577 30.604 66.3803C30.0826 66.3029 29.6561 66.1352 29.32 65.8771C28.9839 65.6191 28.7125 65.3051 28.5014 64.9396C28.2903 64.574 28.1352 64.1698 28.0361 63.7354C27.9326 63.301 27.8637 62.8581 27.8249 62.4151C27.7862 62.0625 27.7689 61.7055 27.7689 61.3529C27.7689 61.0002 27.7818 60.669 27.8077 60.368C27.8336 60.0627 27.8723 59.8046 27.924 59.5896C27.9757 59.3746 28.0317 59.2369 28.0964 59.1724C28.1739 59.1079 28.329 59.0391 28.5703 58.9617C28.8116 58.8843 29.0615 58.8456 29.32 58.837C29.5785 58.8327 29.8112 58.8714 30.0137 58.9617C30.2162 59.052 30.311 59.2283 30.2981 59.495" fill="#005B7F"/>
<path d="M42.4269 58.8413C42.3881 59.0047 42.2804 59.1423 42.1037 59.2498C41.9271 59.3573 41.7245 59.4691 41.4962 59.581C41.2678 59.6971 41.0352 59.8218 40.7939 59.9594C40.5526 60.097 40.3501 60.282 40.1864 60.5099C39.9322 60.8755 39.7555 61.3141 39.6521 61.8173C39.5487 62.3248 39.5013 62.8064 39.5099 63.2709C39.5142 63.7311 39.5746 64.131 39.6823 64.4665C39.79 64.8019 39.9279 64.9697 40.0916 64.9697C40.2941 64.9697 40.5052 64.875 40.7293 64.6858C40.949 64.4966 41.1515 64.2773 41.3282 64.0321C41.5048 63.787 41.6513 63.5332 41.7633 63.2709C41.8797 63.0129 41.9357 62.8107 41.9357 62.6731C41.9357 62.5355 41.9314 62.342 41.9184 62.0925C41.9055 61.8474 41.9098 61.6023 41.9271 61.3614C41.9443 61.1206 41.9831 60.9142 42.0434 60.7335C42.0994 60.5572 42.1985 60.4626 42.3364 60.4497C42.4742 60.4368 42.6423 60.4067 42.8405 60.3551C43.0387 60.3035 43.2239 60.2992 43.4006 60.3379C43.5773 60.3766 43.7194 60.5013 43.8271 60.7077C43.9349 60.9185 43.978 61.2754 43.9521 61.7786C43.9133 62.8021 43.965 63.5806 44.1029 64.1052C44.2408 64.6299 44.5165 64.9353 44.9215 65.0256C45.2016 65.0772 45.4515 65.0084 45.6712 64.8277C45.891 64.6428 46.0935 64.4407 46.2701 64.2127C46.4468 63.9848 46.5976 63.7784 46.7268 63.5978C46.8518 63.4128 46.9552 63.3397 47.0328 63.3784C47.1232 63.4171 47.1534 63.5763 47.1275 63.8515C47.1017 64.131 47.0069 64.445 46.8432 64.789C46.6794 65.1374 46.4339 65.4857 46.1107 65.8341C45.7876 66.1824 45.3739 66.4491 44.8655 66.6426C44.5984 66.7415 44.3528 66.7931 44.1244 66.7931C43.8961 66.7931 43.6893 66.763 43.5083 66.6985C43.323 66.634 43.1636 66.548 43.0214 66.4319C42.8836 66.3201 42.7543 66.191 42.6423 66.0534C42.3881 65.7352 42.1856 65.3438 42.0348 64.8751C41.9098 65.1804 41.7289 65.4427 41.5005 65.6707C41.3109 65.8728 41.0653 66.0577 40.7594 66.2297C40.4535 66.4018 40.083 66.5007 39.6392 66.5222C39.1954 66.5351 38.7775 66.3975 38.3854 66.105C37.9933 65.8126 37.6788 65.4212 37.4461 64.9267C37.2134 64.4321 37.0842 63.8601 37.0669 63.2107C37.0497 62.557 37.1919 61.8732 37.4935 61.1507C37.696 60.6819 37.9631 60.282 38.2906 59.9551C38.618 59.6283 38.9714 59.3573 39.3462 59.1466C39.721 58.9402 40.0959 58.7854 40.4664 58.6907C40.8413 58.5961 41.1774 58.5402 41.4747 58.5273C41.7719 58.5144 42.0132 58.5359 42.1985 58.5918C42.3838 58.6477 42.4613 58.7294 42.4355 58.8284" fill="#005B7F"/>
<path d="M54.0256 61.8604C53.9135 62.1657 53.8403 62.484 53.8058 62.8194C53.7757 63.1549 53.767 63.4602 53.7886 63.7398C53.8058 64.0193 53.8489 64.2515 53.9135 64.4408C53.9782 64.63 54.0514 64.7332 54.1419 64.7461C54.3185 64.7977 54.5081 64.759 54.702 64.6343C54.9002 64.5096 55.163 64.2472 55.4905 63.8559C55.6413 63.6537 55.7964 63.4086 55.9558 63.1162C56.1152 62.8237 56.2488 62.5399 56.3565 62.2603C56.4642 61.9808 56.5289 61.7357 56.5547 61.5206C56.5806 61.3056 56.5504 61.1809 56.4599 61.1422C56.3565 61.1035 56.1971 61.0648 55.9731 61.026C55.749 60.9873 55.5163 60.983 55.2707 61.0088C55.0252 61.0346 54.7839 61.1078 54.5469 61.2282C54.3142 61.3486 54.1376 61.5593 54.0256 61.8647M56.9899 60.153C57.0674 59.3058 57.1278 58.5102 57.1795 57.7619C57.2182 57.1168 57.2484 56.476 57.2742 55.8438C57.3001 55.2116 57.3001 54.7299 57.2742 54.4031C57.2484 54.0848 57.3216 53.7967 57.494 53.53C57.6663 53.2634 57.8645 53.0355 58.0929 52.8462C58.3212 52.657 58.5496 52.5108 58.778 52.4119C59.0063 52.3087 59.17 52.2614 59.2734 52.2614C59.3769 52.2614 59.4372 52.5151 59.4544 53.0226C59.4716 53.53 59.4716 54.1837 59.4544 54.988C59.4372 55.7922 59.4113 56.6996 59.3768 57.7103C59.3467 58.7209 59.3338 59.7402 59.3467 60.7637C59.3596 61.7141 59.4156 62.484 59.519 63.0774C59.6224 63.6709 59.7517 64.1354 59.9111 64.4709C60.0705 64.8063 60.2386 65.0428 60.4152 65.1805C60.5919 65.3181 60.7642 65.4127 60.9279 65.4557C61.0917 65.4987 61.2339 65.5288 61.3459 65.5417C61.4622 65.5546 61.5355 65.5976 61.5742 65.675C61.6259 65.7869 61.5829 65.9331 61.4493 66.1137C61.3157 66.29 61.1218 66.4405 60.859 66.5696C60.6005 66.6943 60.2903 66.7631 59.937 66.7674C59.5837 66.7717 59.2088 66.6685 58.8167 66.4535C58.4893 66.2771 58.2394 66.0406 58.0756 65.7395C57.9119 65.4428 57.7956 65.1461 57.7353 64.8579C57.6577 64.5311 57.6276 64.187 57.6405 63.8344C57.3604 64.3418 57.033 64.7848 56.6538 65.1633C56.4901 65.3267 56.3048 65.4858 56.1023 65.6363C55.8998 65.7868 55.6758 65.9202 55.4388 66.0363C55.1975 66.1481 54.939 66.2384 54.6589 66.3029C54.3789 66.3674 54.0816 66.3846 53.767 66.3588C53.4267 66.333 53.1164 66.1954 52.845 65.9503C52.5736 65.7051 52.3452 65.3955 52.1599 65.0213C51.9747 64.6472 51.8411 64.23 51.7592 63.7699C51.6774 63.3097 51.6472 62.8452 51.6731 62.385C51.6989 61.9249 51.7851 61.4819 51.9402 61.0562C52.091 60.6304 52.315 60.2691 52.6037 59.9638C52.8192 59.7488 53.0475 59.5853 53.2888 59.4692C53.5301 59.3531 53.7757 59.2843 54.0213 59.2499C54.2668 59.2198 54.5167 59.2198 54.7623 59.2499C55.0079 59.28 55.2406 59.3273 55.456 59.3918C55.9644 59.5423 56.4772 59.7961 56.9942 60.153H56.9899Z" fill="#005B7F"/>
<path d="M62.0482 55.1213C62.1861 54.8417 62.4015 54.674 62.6859 54.6095C62.9702 54.545 63.2503 54.5536 63.5217 54.6267C63.7932 54.7041 64.0302 54.8331 64.224 55.0138C64.4222 55.1987 64.4998 55.4094 64.461 55.6502C64.4093 55.9427 64.2499 56.1921 63.9741 56.3986C63.7027 56.605 63.2934 56.6867 62.7462 56.6351C62.5954 56.6222 62.4575 56.5663 62.3369 56.4631C62.2162 56.3599 62.1171 56.2394 62.0439 56.0932C61.9663 55.947 61.9276 55.7879 61.9189 55.6072C61.9146 55.4309 61.9534 55.2675 62.0439 55.1127M61.1908 61.8991C61.2296 61.5937 61.2813 61.3056 61.3416 61.026C61.4062 60.7465 61.4838 60.4885 61.5786 60.2476C61.6733 60.0068 61.7768 59.8004 61.8931 59.6326C62.0051 59.4606 62.1344 59.3402 62.2722 59.2628C62.4101 59.1983 62.5911 59.1338 62.8151 59.065C63.0392 58.9961 63.246 58.9703 63.4442 58.9875C63.6424 59.0047 63.7889 59.0951 63.8923 59.2542C63.9957 59.4133 63.9871 59.6885 63.875 60.0799C63.8233 60.2949 63.7803 60.5616 63.7415 60.8884C63.7027 61.211 63.6812 61.5593 63.6768 61.9335C63.6725 62.3076 63.6769 62.6818 63.707 63.0516C63.7329 63.4258 63.7803 63.7698 63.8492 64.0838C63.9181 64.402 64.0129 64.6687 64.1336 64.8923C64.2542 65.1116 64.405 65.2579 64.5817 65.3181C64.9479 65.4428 65.2667 65.4299 65.5339 65.2794C65.801 65.1288 66.0466 64.8923 66.2749 64.5784C66.3654 64.4408 66.4731 64.3203 66.5981 64.2257C66.723 64.1311 66.8307 64.0881 66.9126 64.101C66.9945 64.1139 67.0376 64.1956 67.0376 64.3461C67.0376 64.4967 66.9557 64.7504 66.792 65.1031C66.6153 65.4686 66.3913 65.7912 66.1155 66.0707C65.8441 66.3502 65.5382 66.5696 65.2021 66.7244C64.866 66.8835 64.5084 66.9738 64.1293 66.9996C63.7501 67.0254 63.3709 66.9695 62.9875 66.8276C62.6083 66.7029 62.2981 66.5223 62.0568 66.2857C61.8155 66.0535 61.6303 65.7395 61.4967 65.3482C61.3631 64.9568 61.277 64.4795 61.2296 63.9161C61.1865 63.3527 61.1779 62.6775 61.1994 61.8948L61.1908 61.8991Z" fill="#005B7F"/>
<path d="M87.4862 68.3887C86.2453 68.2855 85.2672 67.7737 84.5563 66.8405C83.8454 65.9115 83.3585 64.6815 83.0914 63.1505C82.988 62.6043 82.9234 62.0496 82.8932 61.4819C82.863 60.9142 82.8415 60.3465 82.8286 59.7831C82.8157 59.2197 82.8113 58.665 82.8113 58.1145C82.8113 57.564 82.807 57.0307 82.7941 56.5103C82.415 56.5619 82.0832 56.8243 81.8074 57.2974C81.5274 57.7704 81.2904 58.3553 81.0965 59.0434C80.8983 59.7315 80.7389 60.4798 80.6096 61.284C80.4847 62.0883 80.3727 62.8452 80.2779 63.5634C80.1831 64.2773 80.1055 64.8966 80.0409 65.4213C79.9763 65.9459 79.916 66.2642 79.8513 66.3803C79.7738 66.5566 79.6488 66.6986 79.4722 66.7975C79.2955 66.9007 79.1016 66.9566 78.8905 66.9781C78.6794 66.9953 78.4726 66.9781 78.2615 66.9222C78.0546 66.8663 77.8866 66.7674 77.7573 66.6297C77.4514 66.3029 77.2188 65.8599 77.055 65.3094C76.8913 64.759 76.7965 64.2042 76.7707 63.6494C76.719 62.3076 76.6199 60.94 76.4777 59.5423C76.3312 58.1446 76.1115 56.7985 75.8228 55.5083C75.7323 55.5728 75.6418 55.6373 75.547 55.7061C75.4522 55.7749 75.3575 55.8782 75.2627 56.0115C75.1679 56.1448 75.0645 56.3168 74.9568 56.5318C74.849 56.7469 74.737 57.0264 74.625 57.3662C74.5345 57.6328 74.4527 57.9984 74.3794 58.4671C74.3019 58.9359 74.2372 59.452 74.1812 60.024C74.1252 60.5916 74.0735 61.1894 74.0304 61.8087C73.9873 62.428 73.9485 63.0215 73.9141 63.5849C73.8839 64.1483 73.8581 64.6557 73.8365 65.103C73.8193 65.5503 73.802 65.8986 73.7891 66.1395C73.7762 66.3287 73.6771 66.4835 73.4961 66.6039C73.3109 66.7243 73.0998 66.7889 72.8585 66.8018C72.6172 66.8147 72.3759 66.7717 72.1346 66.6684C71.8933 66.5695 71.7167 66.3975 71.6004 66.1567C71.4237 65.804 71.3074 65.4084 71.26 64.9697C71.2083 64.531 71.1953 64.0881 71.2126 63.6322C71.2298 63.1763 71.2772 62.7291 71.3461 62.2861C71.4151 61.8431 71.484 61.426 71.5443 61.0346C71.596 60.6949 71.6693 60.2519 71.7727 59.7143C71.8761 59.1767 72.0054 58.6134 72.1648 58.0242C72.3242 57.435 72.5181 56.8587 72.7464 56.2867C72.9748 55.719 73.2462 55.2288 73.5651 54.8159C73.8839 54.403 74.2545 54.1106 74.6767 53.9343C75.1033 53.7579 75.5815 53.7622 76.1115 53.9515C76.4518 54.0762 76.7448 54.3557 76.9861 54.7858C77.2274 55.2159 77.4213 55.7362 77.5764 56.3426C77.7272 56.949 77.8478 57.6113 77.9297 58.3252C78.0116 59.0391 78.0719 59.7401 78.1107 60.4239C78.1494 61.1077 78.171 61.7399 78.1753 62.3205C78.1796 62.9011 78.1925 63.3656 78.2054 63.7053C78.3088 63.4387 78.4252 63.0774 78.5588 62.6129C78.6923 62.1528 78.8431 61.6367 79.0155 61.0776C79.1878 60.5142 79.3774 59.9337 79.5842 59.3316C79.7953 58.7295 80.0237 58.1532 80.2779 57.6027C80.5321 57.0522 80.8035 56.5576 81.0965 56.1147C81.3895 55.6717 81.6997 55.3363 82.0272 55.1083C82.3589 54.8804 82.7079 54.7815 83.0828 54.8159C83.4576 54.846 83.854 55.061 84.272 55.4524C84.552 55.719 84.7804 56.1448 84.9656 56.734C85.1509 57.3232 85.306 57.9898 85.4396 58.7381C85.5732 59.4864 85.6895 60.2691 85.7929 61.0905C85.892 61.9119 85.9997 62.6861 86.1074 63.4043C86.2151 64.1268 86.3315 64.7547 86.4607 65.2922C86.5857 65.8298 86.7537 66.1954 86.9562 66.3846C87.2621 66.6899 87.5508 66.8792 87.8309 66.9652C88.1109 67.0469 88.3565 67.0942 88.5719 67.1071C88.7874 67.12 88.9726 67.1243 89.1321 67.1243C89.2915 67.1243 89.3992 67.1931 89.4638 67.335C89.5155 67.4512 89.4983 67.5716 89.4164 67.7049C89.3346 67.8382 89.2053 67.9586 89.0287 68.0662C88.852 68.1737 88.628 68.264 88.3651 68.3328C88.098 68.4016 87.8136 68.4231 87.5077 68.3973" fill="#005B7F"/>
<path d="M92.7901 58.8413C92.7513 59.0047 92.6436 59.1423 92.467 59.2498C92.2903 59.3573 92.0878 59.4691 91.8594 59.581C91.6311 59.6971 91.3984 59.8218 91.1571 59.9594C90.9159 60.097 90.7134 60.282 90.5496 60.5099C90.2954 60.8755 90.1188 61.3141 90.0154 61.8173C89.9163 62.3248 89.8646 62.8064 89.8732 63.2709C89.8775 63.7311 89.9378 64.131 90.0455 64.4665C90.1532 64.8019 90.2911 64.9697 90.4548 64.9697C90.6573 64.9697 90.8685 64.875 91.0925 64.6858C91.3166 64.4966 91.5148 64.2773 91.6914 64.0321C91.8681 63.787 92.0146 63.5332 92.1309 63.2709C92.2472 63.0129 92.3032 62.8107 92.3032 62.6731C92.3032 62.5355 92.2989 62.342 92.286 62.0925C92.2731 61.8474 92.2774 61.6023 92.2946 61.3614C92.3118 61.1206 92.3506 60.9142 92.4066 60.7335C92.4626 60.5572 92.5617 60.4626 92.6996 60.4497C92.8375 60.4368 93.0055 60.4067 93.2037 60.3551C93.4019 60.3035 93.5872 60.2992 93.7638 60.3379C93.9405 60.3766 94.0827 60.5013 94.1904 60.7077C94.2981 60.9185 94.3412 61.2754 94.3153 61.7786C94.2766 62.8021 94.3283 63.5806 94.4661 64.1052C94.604 64.6299 94.8798 64.9353 95.2848 65.0256C95.5648 65.0772 95.8147 65.0084 96.0345 64.8277C96.2542 64.6428 96.4567 64.4407 96.6334 64.2127C96.81 63.9848 96.9608 63.7784 97.0901 63.5978C97.215 63.4128 97.3184 63.3397 97.396 63.3784C97.4865 63.4171 97.5166 63.5763 97.4908 63.8515C97.4649 64.131 97.3701 64.445 97.2064 64.789C97.0427 65.1374 96.7971 65.4857 96.474 65.8341C96.1508 66.1824 95.7372 66.4491 95.2288 66.6426C94.9616 66.7415 94.716 66.7931 94.4877 66.7931C94.2593 66.7931 94.0525 66.763 93.8716 66.6985C93.6863 66.634 93.5269 66.548 93.3847 66.4319C93.2468 66.3201 93.1176 66.191 93.0055 66.0534C92.7513 65.7352 92.5488 65.3438 92.398 64.8751C92.2731 65.1804 92.0921 65.4427 91.8681 65.6707C91.6785 65.8728 91.4286 66.0577 91.127 66.2297C90.8211 66.4018 90.4505 66.5007 90.0067 66.5222C89.563 66.5351 89.145 66.3975 88.7529 66.105C88.3609 65.8126 88.0463 65.4212 87.8137 64.9267C87.581 64.4321 87.4517 63.8601 87.4345 63.2107C87.4173 62.557 87.5595 61.8732 87.8611 61.1507C88.0636 60.6819 88.3307 60.282 88.6582 59.9551C88.9856 59.6283 89.3389 59.3573 89.7138 59.1466C90.0886 58.9402 90.4635 58.7854 90.834 58.6907C91.2088 58.5961 91.5449 58.5402 91.8422 58.5273C92.1395 58.5144 92.3808 58.5359 92.5661 58.5918C92.7513 58.6477 92.8289 58.7294 92.803 58.8284" fill="#005B7F"/>
<path d="M96.8014 59.4519C96.6635 59.3745 96.5343 59.3315 96.4223 59.3186C96.3102 59.3057 96.2025 59.3014 96.1077 59.3014C96.0129 59.3014 95.9311 59.2928 95.8621 59.2713C95.7932 59.2541 95.7329 59.1939 95.6812 59.0907C95.6424 59.0003 95.7027 58.8799 95.8621 58.7294C96.0216 58.5789 96.2327 58.4499 96.4998 58.3509C96.7669 58.252 97.0642 58.209 97.3917 58.2262C97.7191 58.2434 98.038 58.3768 98.3439 58.6133C98.611 58.8412 98.8308 59.0606 98.9988 59.267C99.1711 59.4777 99.3047 59.6626 99.4081 59.8261C99.5245 60.0153 99.6063 60.2002 99.6537 60.3766C100.007 60.0368 100.378 59.7487 100.757 59.5207C101.088 59.3186 101.455 59.1552 101.86 59.0262C102.265 58.9014 102.67 58.8928 103.075 59.009C103.178 59.0477 103.226 59.1251 103.217 59.2455C103.213 59.3659 103.161 59.4949 103.066 59.6368C102.971 59.7745 102.842 59.9078 102.678 60.0368C102.515 60.1615 102.316 60.2518 102.088 60.3034C101.644 60.4067 101.291 60.5959 101.032 60.8711C100.774 61.1507 100.571 61.4732 100.434 61.8474C100.296 62.2215 100.205 62.6215 100.166 63.0429C100.128 63.4687 100.11 63.873 100.11 64.2686C100.123 65.09 100.007 65.7007 99.77 66.1007C99.5288 66.5007 99.2056 66.7114 98.8006 66.7372C98.331 66.763 97.982 66.548 97.7536 66.0921C97.5253 65.6362 97.4132 64.8664 97.4132 63.7784C97.4262 63.0946 97.4305 62.5011 97.4305 61.9936C97.4305 61.4861 97.4132 61.0604 97.3745 60.712C97.3357 60.3636 97.2711 60.0884 97.1849 59.8863C97.0944 59.6841 96.9694 59.5379 96.8057 59.4476" fill="#005B7F"/>
<path d="M105.664 61.6883C105.828 61.6625 106.013 61.6109 106.216 61.5378C106.392 61.4733 106.586 61.3787 106.797 61.254C107.009 61.1292 107.233 60.9486 107.474 60.7207C107.702 60.5056 107.857 60.2949 107.939 60.0928C108.021 59.8907 108.068 59.7186 108.081 59.581C108.094 59.4176 108.068 59.2628 108.004 59.1251C107.827 59.0735 107.638 59.0735 107.435 59.1251C107.258 59.1767 107.06 59.2757 106.845 59.4305C106.629 59.581 106.41 59.8218 106.181 60.153C106.005 60.4067 105.875 60.6304 105.802 60.8282C105.725 61.026 105.677 61.1851 105.651 61.3142C105.625 61.4647 105.634 61.5937 105.669 61.6926M103.893 59.6197C104.07 59.28 104.307 58.9789 104.596 58.7295C104.889 58.4757 105.208 58.2693 105.557 58.1145C105.906 57.9554 106.272 57.8392 106.66 57.7618C107.047 57.6844 107.422 57.65 107.793 57.65C108.172 57.6758 108.499 57.8005 108.771 58.0199C109.042 58.2435 109.236 58.5274 109.352 58.8757C109.464 59.2241 109.49 59.6111 109.421 60.0412C109.352 60.4712 109.163 60.9099 108.861 61.3486C108.534 61.8302 108.18 62.1915 107.806 62.4323C107.431 62.6732 107.086 62.8452 106.772 62.9441C106.405 63.0688 106.043 63.129 105.686 63.1161C105.673 63.5978 105.725 64.0064 105.837 64.3504C105.888 64.5009 105.949 64.6429 106.018 64.7762C106.086 64.9095 106.181 65.0256 106.293 65.1288C106.41 65.232 106.547 65.3009 106.711 65.3482C106.875 65.3912 107.065 65.3955 107.28 65.3568C107.737 65.2793 108.107 65.1116 108.392 64.8536C108.676 64.5955 108.913 64.3332 109.102 64.0666C109.292 63.7999 109.447 63.572 109.568 63.3742C109.688 63.1763 109.805 63.1032 109.921 63.1548C110.059 63.2193 110.132 63.3742 110.141 63.6279C110.145 63.8816 110.089 64.1784 109.96 64.5181C109.835 64.8579 109.645 65.2105 109.4 65.5718C109.154 65.933 108.84 66.2384 108.461 66.4921C108.081 66.7459 107.642 66.9179 107.151 67.0125C106.655 67.1071 106.104 67.0598 105.496 66.8706C105.001 66.7201 104.591 66.4792 104.26 66.1481C103.928 65.8212 103.669 65.4385 103.48 65.0084C103.29 64.5783 103.161 64.1182 103.101 63.6236C103.036 63.129 103.027 62.6388 103.07 62.1528C103.114 61.6668 103.208 61.2023 103.355 60.7594C103.501 60.3164 103.682 59.938 103.898 59.6197H103.893Z" fill="#005B7F"/>
<path d="M121.481 55.1212C121.102 55.1857 120.766 55.3319 120.473 55.5685C120.18 55.8007 119.926 56.0888 119.702 56.4243C119.482 56.7597 119.284 57.1253 119.111 57.5252C118.939 57.9252 118.78 58.3209 118.629 58.7122C118.831 58.7896 119.077 58.781 119.37 58.695C119.663 58.6047 119.952 58.4714 120.245 58.2865C120.537 58.1015 120.813 57.8822 121.08 57.6242C121.348 57.3661 121.55 57.0909 121.688 56.7984C121.826 56.506 121.89 56.2178 121.877 55.9254C121.865 55.633 121.731 55.3706 121.477 55.1298M124.713 66.8318C124.282 66.6426 123.903 66.3588 123.579 65.9889C123.256 65.6147 122.963 65.2449 122.696 64.8793C122.403 64.4622 122.106 63.9891 121.804 63.4644C121.498 62.9397 121.175 62.4409 120.826 61.9764C120.477 61.5076 120.102 61.112 119.706 60.7894C119.305 60.4669 118.866 60.3035 118.383 60.3035C118.293 60.3035 118.228 60.4067 118.185 60.6174C118.142 60.8281 118.107 61.0776 118.082 61.3657C118.056 61.6582 118.038 61.9678 118.026 62.2947C118.013 62.6258 118.008 62.9096 118.008 63.1505C117.995 63.6709 118.017 64.1611 118.073 64.6213C118.129 65.0815 118.168 65.49 118.189 65.8341C118.207 66.1824 118.189 66.4534 118.133 66.6512C118.077 66.849 117.926 66.9393 117.685 66.9264C117.483 66.9135 117.284 66.849 117.095 66.7372C116.905 66.6254 116.729 66.4749 116.574 66.2899C116.414 66.105 116.281 65.8943 116.164 65.6534C116.048 65.4126 115.975 65.1589 115.936 64.8922C115.832 64.131 115.785 63.2709 115.794 62.3119C115.798 61.3485 115.893 60.3938 116.069 59.4347C116.246 58.48 116.522 57.5683 116.897 56.7038C117.272 55.8351 117.78 55.1212 118.426 54.5492C118.793 54.2224 119.206 53.9729 119.663 53.8095C120.12 53.6461 120.568 53.5773 121.003 53.6117C121.442 53.6418 121.847 53.7751 122.218 53.9987C122.593 54.2267 122.886 54.575 123.101 55.0438C123.342 55.5771 123.394 56.0759 123.261 56.5447C123.127 57.0135 122.886 57.4349 122.537 57.8048C122.188 58.1789 121.778 58.4886 121.309 58.7337C120.839 58.9789 120.395 59.1423 119.977 59.2197C120.296 59.3315 120.641 59.5207 121.024 59.7788C121.404 60.0368 121.778 60.325 122.145 60.6346C122.511 60.9443 122.864 61.2668 123.2 61.6022C123.536 61.9377 123.829 62.243 124.083 62.5226C124.364 62.8408 124.588 63.0989 124.76 63.301C124.932 63.5031 125.074 63.6881 125.186 63.8601C125.298 64.0321 125.398 64.1998 125.479 64.3719C125.561 64.5439 125.647 64.7589 125.738 65.0256C125.902 65.4685 125.958 65.8212 125.902 66.0792C125.846 66.3372 125.742 66.5308 125.596 66.6598C125.449 66.7845 125.29 66.8576 125.109 66.8791C124.932 66.8963 124.799 66.8791 124.708 66.8318H124.713Z" fill="#005B7F"/>
<path d="M128.534 61.6883C128.698 61.6625 128.883 61.6109 129.086 61.5378C129.262 61.4733 129.456 61.3787 129.667 61.254C129.879 61.1292 130.103 60.9486 130.344 60.7207C130.572 60.5056 130.727 60.2949 130.809 60.0928C130.891 59.8907 130.938 59.7186 130.951 59.581C130.964 59.4176 130.938 59.2628 130.874 59.1251C130.697 59.0735 130.508 59.0735 130.305 59.1251C130.128 59.1767 129.93 59.2757 129.715 59.4305C129.499 59.581 129.28 59.8218 129.051 60.153C128.875 60.4067 128.745 60.6304 128.672 60.8282C128.595 61.026 128.547 61.1851 128.521 61.3142C128.495 61.4647 128.504 61.5937 128.539 61.6926M126.768 59.6197C126.944 59.28 127.181 58.9789 127.47 58.7295C127.763 58.4757 128.082 58.2693 128.431 58.1145C128.78 57.9554 129.146 57.8392 129.534 57.7618C129.922 57.6844 130.296 57.65 130.667 57.65C131.046 57.6758 131.374 57.8005 131.645 58.0199C131.917 58.2435 132.11 58.5274 132.227 58.8757C132.339 59.2241 132.365 59.6111 132.291 60.0412C132.222 60.4712 132.033 60.9099 131.731 61.3486C131.404 61.8302 131.05 62.1915 130.676 62.4323C130.301 62.6732 129.956 62.8452 129.642 62.9441C129.275 63.0688 128.913 63.129 128.56 63.1161C128.547 63.5978 128.599 64.0064 128.711 64.3504C128.763 64.5009 128.823 64.6429 128.892 64.7762C128.961 64.9095 129.056 65.0256 129.168 65.1288C129.28 65.232 129.422 65.3009 129.586 65.3482C129.749 65.3912 129.939 65.3955 130.154 65.3568C130.611 65.2793 130.982 65.1116 131.266 64.8536C131.55 64.5955 131.787 64.3332 131.977 64.0666C132.166 63.7999 132.322 63.572 132.442 63.3742C132.563 63.1763 132.679 63.1032 132.795 63.1548C132.933 63.2193 133.007 63.3742 133.015 63.6279C133.024 63.8816 132.959 64.1784 132.834 64.5181C132.709 64.8579 132.52 65.2105 132.274 65.5718C132.029 65.933 131.714 66.2384 131.335 66.4921C130.956 66.7459 130.516 66.9179 130.025 67.0125C129.53 67.1071 128.978 67.0598 128.371 66.8706C127.875 66.7201 127.466 66.4792 127.134 66.1481C126.807 65.8212 126.544 65.4385 126.354 65.0084C126.165 64.5783 126.035 64.1182 125.975 63.6236C125.91 63.129 125.902 62.6388 125.945 62.1528C125.988 61.6668 126.083 61.2023 126.229 60.7594C126.376 60.3164 126.557 59.938 126.772 59.6197H126.768Z" fill="#005B7F"/>
<path d="M138.25 57.6285C138.302 57.7317 138.293 57.8091 138.233 57.865C138.168 57.9209 138.078 57.9811 137.957 58.037C137.837 58.0929 137.699 58.1618 137.548 58.2478C137.397 58.3295 137.251 58.4456 137.113 58.6004C136.975 58.7509 136.854 58.9488 136.759 59.1896C136.665 59.4304 136.617 59.7358 136.617 60.1013C136.604 60.4669 136.69 60.8238 136.876 61.1636C137.061 61.5076 137.285 61.8388 137.552 62.1613C137.819 62.4839 138.108 62.8021 138.427 63.1118C138.746 63.4214 139.03 63.7397 139.284 64.0622C139.538 64.3848 139.737 64.7159 139.883 65.0471C140.03 65.3825 140.077 65.7266 140.025 66.0792C139.961 66.4319 139.762 66.7329 139.426 66.9824C139.09 67.2275 138.681 67.4167 138.198 67.55C137.716 67.6834 137.199 67.7565 136.639 67.7694C136.083 67.7823 135.557 67.735 135.07 67.6275C134.584 67.5199 134.161 67.3522 133.808 67.1243C133.455 66.8963 133.231 66.6039 133.144 66.2512C133.007 65.7309 132.963 65.2965 133.02 64.9439C133.076 64.5912 133.183 64.2945 133.334 64.0622C133.485 63.83 133.657 63.6451 133.847 63.5117C134.036 63.3784 134.2 63.2752 134.342 63.1978C134.635 63.0344 134.829 63.0344 134.924 63.1978C135.019 63.3612 134.958 63.6236 134.743 63.9762C134.64 64.1525 134.618 64.3547 134.665 64.574C134.717 64.7976 134.833 65.0041 135.019 65.2019C135.204 65.3997 135.437 65.5674 135.721 65.7051C136.005 65.8427 136.333 65.9201 136.699 65.933C136.927 65.9459 137.16 65.9244 137.393 65.8685C137.625 65.8126 137.819 65.7223 137.974 65.6018C138.125 65.4814 138.22 65.3352 138.25 65.1675C138.28 64.9955 138.216 64.8019 138.052 64.5869C137.888 64.3719 137.604 64.1009 137.195 63.7698C136.79 63.4386 136.372 63.0774 135.949 62.6774C135.523 62.2775 135.152 61.856 134.829 61.4044C134.506 60.9572 134.342 60.5013 134.342 60.0454C134.342 59.1466 134.506 58.4886 134.829 58.0714C135.152 57.6543 135.674 57.3833 136.397 57.2543C136.751 57.1898 137.044 57.164 137.272 57.1683C137.5 57.1726 137.681 57.2027 137.815 57.2543C137.949 57.3059 138.048 57.3661 138.108 57.4349C138.173 57.5038 138.22 57.5726 138.259 57.6328" fill="#005B7F"/>
<path d="M142.451 60.8153C142.373 60.8927 142.313 61.0734 142.261 61.3658C142.21 61.6582 142.175 61.998 142.158 62.3893C142.141 62.7807 142.141 63.1936 142.167 63.6236C142.193 64.0537 142.24 64.445 142.309 64.802C142.378 65.1547 142.477 65.4471 142.602 65.675C142.727 65.903 142.882 66.0019 143.059 65.9804C143.235 65.9546 143.408 65.8385 143.571 65.6277C143.735 65.4213 143.886 65.159 144.019 64.8493C144.153 64.5397 144.261 64.1999 144.343 63.8258C144.424 63.4516 144.476 63.0903 144.493 62.7334C144.511 62.3807 144.493 62.0582 144.429 61.7658C144.364 61.4733 144.256 61.254 144.106 61.1035C143.752 60.7379 143.451 60.5358 143.201 60.5057C142.955 60.4756 142.705 60.5788 142.451 60.8196M144.679 59.1639C145.26 59.5165 145.713 59.9509 146.027 60.4627C146.346 60.9744 146.549 61.512 146.643 62.0754C146.738 62.6388 146.721 63.1979 146.596 63.7569C146.471 64.3117 146.256 64.8149 145.958 65.2665C145.661 65.7137 145.282 66.0879 144.825 66.376C144.368 66.6685 143.847 66.819 143.265 66.8319C142.529 66.8448 141.912 66.6814 141.413 66.3502C140.913 66.0148 140.529 65.589 140.262 65.0686C139.995 64.5483 139.84 63.9849 139.797 63.3699C139.754 62.7549 139.819 62.1786 139.995 61.641C140.172 61.1035 140.465 60.6433 140.87 60.2648C141.275 59.8864 141.783 59.6756 142.391 59.6369C142.947 59.5982 143.356 59.538 143.606 59.4563C143.86 59.3746 144.045 59.2972 144.157 59.2284C144.274 59.1596 144.351 59.1123 144.394 59.0865C144.437 59.0607 144.532 59.0865 144.67 59.1639H144.679Z" fill="#005B7F"/>
<path d="M147.509 59.4519C147.371 59.3745 147.242 59.3315 147.13 59.3186C147.014 59.3057 146.91 59.3014 146.816 59.3014C146.721 59.3014 146.639 59.2928 146.57 59.2713C146.501 59.2541 146.441 59.1939 146.389 59.0907C146.35 59.0003 146.411 58.8799 146.57 58.7294C146.729 58.5789 146.941 58.4499 147.208 58.3509C147.475 58.252 147.772 58.209 148.1 58.2262C148.427 58.2434 148.746 58.3768 149.052 58.6133C149.319 58.8412 149.539 59.0606 149.707 59.267C149.879 59.4777 150.013 59.6626 150.116 59.8261C150.228 60.0153 150.314 60.2002 150.362 60.3766C150.715 60.0368 151.086 59.7487 151.465 59.5207C151.792 59.3186 152.163 59.1552 152.568 59.0262C152.973 58.9014 153.378 58.8928 153.783 59.009C153.886 59.0477 153.933 59.1251 153.925 59.2455C153.921 59.3659 153.869 59.4949 153.774 59.6368C153.679 59.7745 153.55 59.9078 153.386 60.0368C153.223 60.1615 153.024 60.2518 152.796 60.3034C152.352 60.4067 151.999 60.5959 151.74 60.8711C151.482 61.1507 151.279 61.4732 151.142 61.8474C151.004 62.2215 150.913 62.6215 150.874 63.0429C150.836 63.4687 150.818 63.873 150.818 64.2686C150.831 65.09 150.715 65.7007 150.478 66.1007C150.237 66.5007 149.914 66.7114 149.509 66.7372C149.039 66.763 148.69 66.548 148.462 66.0921C148.233 65.6362 148.121 64.8664 148.121 63.7784C148.134 63.0946 148.138 62.5011 148.138 61.9936C148.138 61.4861 148.121 61.0604 148.082 60.712C148.044 60.3636 147.979 60.0884 147.893 59.8863C147.802 59.6841 147.677 59.5379 147.514 59.4476" fill="#005B7F"/>
<path d="M155.459 53.2074C155.498 52.9795 155.631 52.8548 155.859 52.829C156.088 52.8032 156.329 52.8548 156.583 52.9795C156.838 53.1042 157.07 53.2848 157.286 53.5214C157.501 53.7536 157.617 54.0117 157.63 54.2912C157.643 54.5836 157.656 54.8804 157.669 55.1814C157.682 55.4868 157.695 55.7577 157.708 55.9986C157.721 56.291 157.734 56.5619 157.747 56.8157C158.177 56.777 158.557 56.7641 158.888 56.777C159.181 56.7899 159.44 56.8286 159.668 56.8931C159.897 56.9576 160.009 57.0694 160.009 57.2328C160.009 57.4092 159.897 57.564 159.677 57.6887C159.457 57.8134 159.203 57.9209 158.927 58.0112C158.6 58.1145 158.229 58.2005 157.824 58.2779C157.85 59.1251 157.876 59.9465 157.902 60.7465C157.915 61.4432 157.919 62.17 157.91 62.9269C157.906 63.6881 157.876 64.3504 157.824 64.9181C157.76 65.4857 157.66 65.9029 157.531 66.1696C157.398 66.4362 157.251 66.6039 157.083 66.6813C156.919 66.7587 156.747 66.7716 156.57 66.7286C156.394 66.6856 156.23 66.6297 156.075 66.5652C155.997 66.5394 155.928 66.4061 155.868 66.1653C155.803 65.9244 155.752 65.6148 155.717 65.2363C155.678 64.8579 155.648 64.4278 155.622 63.9547C155.597 63.4817 155.579 62.9957 155.566 62.5011C155.528 61.3356 155.51 60.0325 155.51 58.5918C155.17 58.6692 154.851 58.7036 154.558 58.7036C154.304 58.7036 154.071 58.6606 153.856 58.5789C153.641 58.4972 153.507 58.3424 153.455 58.1145C153.416 57.9381 153.498 57.779 153.692 57.6414C153.89 57.5038 154.114 57.3834 154.369 57.2801C154.662 57.1683 155.002 57.0651 155.394 56.9748V56.6695C155.394 56.5791 155.394 56.4888 155.403 56.3942C155.407 56.2996 155.411 56.2222 155.411 56.1577C155.411 55.6502 155.407 55.2416 155.394 54.9234C155.381 54.6051 155.377 54.3428 155.377 54.1364C155.377 53.9299 155.381 53.7579 155.394 53.6246C155.407 53.4913 155.433 53.3494 155.472 53.1988" fill="#005B7F"/>
<path d="M57.7999 81.3723H55.9817L54.0945 73.1581H55.7146L56.9598 78.9338H57.1019L58.5755 73.1581H59.9672L61.4666 78.9338H61.6087L62.8582 73.1581H64.4223L62.5437 81.3723H60.7212L59.2778 76.0739H59.1615L57.7999 81.3723Z" fill="#005B7F"/>
<path d="M69.4375 77.6179C69.4245 77.1448 69.3125 76.8008 69.11 76.5858C68.9075 76.3707 68.6059 76.2632 68.2138 76.2632C67.4253 76.2632 66.9643 76.7148 66.8221 77.6179H69.4375ZM70.7774 78.6243H66.7877C66.8307 79.1618 66.9859 79.5575 67.2487 79.8026C67.5115 80.0478 67.8691 80.1725 68.3215 80.1725C68.6791 80.1725 68.9678 80.108 69.1876 79.9747C69.4073 79.8413 69.5883 79.6392 69.7218 79.3726H69.8382L70.8722 80.0349C70.6697 80.4692 70.3638 80.8219 69.9545 81.0928C69.5452 81.3638 68.998 81.4971 68.3172 81.4971C67.6752 81.4971 67.1194 81.3767 66.6541 81.1315C66.1888 80.8864 65.8268 80.5251 65.5726 80.0435C65.3184 79.5618 65.1935 78.9769 65.1935 78.2845C65.1935 77.5921 65.3271 76.9857 65.5942 76.504C65.8613 76.0224 66.2189 75.6611 66.6756 75.4246C67.128 75.188 67.6408 75.0676 68.2052 75.0676C69.0842 75.0676 69.7563 75.2999 70.2216 75.7643C70.687 76.2288 70.9239 76.9126 70.9239 77.8071C70.9239 78.134 70.911 78.3877 70.8895 78.564L70.7688 78.6329L70.7774 78.6243Z" fill="#005B7F"/>
<path d="M71.6693 80.3316L72.5353 79.3983H72.6517C72.8585 79.6736 73.0998 79.8843 73.3841 80.0219C73.6642 80.1595 73.9701 80.2284 74.3019 80.2284C74.6078 80.2284 74.8361 80.1724 74.9869 80.0649C75.142 79.9574 75.2196 79.8026 75.2196 79.6005C75.2196 79.4413 75.1636 79.3123 75.0516 79.2048C74.9395 79.0973 74.7629 79.0156 74.513 78.9554L73.69 78.7575C73.0739 78.6113 72.6258 78.3877 72.3415 78.0866C72.0571 77.7856 71.9149 77.4028 71.9149 76.9384C71.9149 76.5513 72.014 76.2159 72.2122 75.932C72.4104 75.6482 72.6861 75.4288 73.0438 75.2783C73.4014 75.1278 73.8193 75.0547 74.2976 75.0547C74.8577 75.0547 75.3187 75.1364 75.6892 75.2955C76.0555 75.4546 76.3441 75.674 76.551 75.9406L75.7194 76.8394H75.6074C75.435 76.6459 75.2411 76.504 75.0257 76.4137C74.8103 76.3234 74.569 76.2804 74.3019 76.2804C73.6857 76.2804 73.3798 76.4696 73.3798 76.8523C73.3798 77.0115 73.4358 77.1448 73.5522 77.2437C73.6685 77.3469 73.8667 77.4286 74.1554 77.4888L74.9223 77.6566C75.5514 77.7899 76.0124 78.0092 76.3054 78.306C76.594 78.6027 76.7405 79.0027 76.7405 79.5058C76.7405 79.8972 76.6414 80.2455 76.4476 80.5466C76.2537 80.8476 75.9693 81.0756 75.6031 81.239C75.2368 81.4024 74.7974 81.4841 74.2932 81.4841C73.871 81.4841 73.4789 81.4325 73.1299 81.3336C72.7766 81.2347 72.475 81.0971 72.2251 80.9251C71.9752 80.7487 71.79 80.5509 71.6693 80.3273" fill="#005B7F"/>
<path d="M81.3938 79.8929L81.7988 81.0455C81.6308 81.1831 81.4197 81.2906 81.1612 81.3724C80.907 81.4498 80.6183 81.4885 80.2951 81.4885C79.623 81.4885 79.1146 81.3078 78.7656 80.9423C78.4166 80.5767 78.2442 80.0478 78.2442 79.351V76.4051H77.3007V75.1708H78.2442V73.9624L79.804 73.7086V75.1708H81.5662V76.4051H79.804V79.2349C79.804 79.5403 79.8686 79.7639 79.9935 79.9058C80.1228 80.0478 80.3081 80.1166 80.5493 80.1166C80.8251 80.1166 81.0707 80.0435 81.2775 79.8929H81.3938Z" fill="#005B7F"/>
<path d="M89.1967 80.0864C90.0929 80.0864 90.541 79.6778 90.541 78.8693C90.541 78.0608 90.0929 77.6436 89.1967 77.6436H87.3527V80.0864H89.1967ZM88.8951 76.4352C89.6534 76.4352 90.0326 76.0954 90.0326 75.4116C90.0326 75.0633 89.9378 74.8052 89.7525 74.6332C89.563 74.4612 89.2786 74.3795 88.8951 74.3795H87.3483V76.4352H88.8951ZM85.724 81.3723V73.1581H89.2355C89.7439 73.1581 90.1705 73.2398 90.5195 73.3989C90.8685 73.558 91.1356 73.786 91.3166 74.0784C91.4975 74.3709 91.588 74.7192 91.588 75.1192C91.588 75.4804 91.5018 75.803 91.3252 76.0782C91.1485 76.3534 90.8943 76.5771 90.5669 76.7448V76.8609C91.0839 76.9942 91.4846 77.2394 91.7647 77.5963C92.0447 77.9533 92.1869 78.3877 92.1869 78.9037C92.1869 79.6907 91.9499 80.2971 91.476 80.7229C91.002 81.1487 90.2954 81.3637 89.3648 81.3637H85.7283L85.724 81.3723Z" fill="#005B7F"/>
<path d="M96.8057 78.9554V78.3275L96.698 78.306C96.6032 78.3791 96.4826 78.4436 96.3275 78.4952C96.1767 78.5468 95.9569 78.5941 95.6726 78.6457C95.3365 78.7016 95.0909 78.7962 94.9444 78.9339C94.7979 79.0715 94.7204 79.265 94.7204 79.5144C94.7204 79.7811 94.7979 79.9832 94.9573 80.1208C95.1168 80.2585 95.3365 80.3273 95.6166 80.3273C95.9785 80.3273 96.2628 80.2068 96.4826 79.966C96.698 79.7252 96.8057 79.3897 96.8057 78.9597M93.1736 79.6091C93.1736 79.2435 93.2511 78.9339 93.4106 78.6844C93.57 78.435 93.8113 78.2329 94.143 78.0737C94.4748 77.9146 94.9056 77.7899 95.4356 77.7039C95.8061 77.6437 96.0905 77.5792 96.2844 77.506C96.4783 77.4329 96.6075 77.3555 96.6765 77.2652C96.7454 77.1749 96.7799 77.0631 96.7799 76.9212C96.7799 76.7233 96.7109 76.5728 96.5731 76.4653C96.4352 76.3621 96.2025 76.3062 95.8794 76.3062C95.5347 76.3062 95.2072 76.3836 94.8927 76.5384C94.5825 76.6932 94.3111 76.8954 94.0827 77.1448H93.9707L93.3158 76.1599C93.6303 75.8116 94.0138 75.5407 94.4705 75.3471C94.9229 75.1536 95.4184 75.0547 95.9569 75.0547C96.7799 75.0547 97.3745 75.2267 97.7407 75.5751C98.1069 75.9234 98.2922 76.418 98.2922 77.0588V79.751C98.2922 80.0262 98.4128 80.1681 98.6584 80.1681C98.7532 80.1681 98.8437 80.1509 98.9342 80.1165L99.0117 80.138L99.1238 81.2218C99.0376 81.2777 98.917 81.325 98.7618 81.3594C98.6067 81.3938 98.4387 81.411 98.2534 81.411C97.8829 81.411 97.5899 81.3379 97.3831 81.196C97.1763 81.0541 97.0255 80.8304 96.935 80.5294L96.8187 80.5165C96.5171 81.1616 95.9483 81.4841 95.1211 81.4841C94.7247 81.4841 94.38 81.411 94.087 81.2648C93.794 81.1186 93.57 80.9036 93.4106 80.6197C93.2511 80.3359 93.1736 79.9961 93.1736 79.6005V79.6091Z" fill="#005B7F"/>
<path d="M99.3693 83.7764L99.6149 82.5163L99.7183 82.4819C99.8131 82.5292 99.9294 82.5679 100.067 82.598C100.205 82.6281 100.347 82.641 100.494 82.641C100.744 82.641 100.955 82.6066 101.123 82.5421C101.291 82.4776 101.433 82.3658 101.549 82.2152C101.666 82.0647 101.769 81.854 101.86 81.5831L99.3822 75.1665H101.015L102.558 79.4757H102.691L104.195 75.1665H105.781L103.286 81.7508C103.088 82.2841 102.868 82.7098 102.631 83.0324C102.394 83.3549 102.11 83.5957 101.786 83.7549C101.463 83.914 101.071 83.9914 100.619 83.9914C100.352 83.9914 100.11 83.9699 99.895 83.9312C99.6795 83.8882 99.5029 83.8366 99.3693 83.7678" fill="#005B7F"/>
<path fill-rule="evenodd" clip-rule="evenodd" d="M64.1982 30.6592C64.5946 28.4099 65.2926 25.7393 66.3137 23.2019C65.4046 24.6297 64.7368 26.3413 64.3361 28.2422C64.1723 29.012 64.1336 29.8292 64.1982 30.6549M63.134 28.4056C63.1555 28.182 63.1555 30.3925 63.3494 31.1409C63.4787 31.6354 63.944 31.6096 64.0474 31.4763C61.2037 23.9889 67.8303 13.8222 76.0512 14.0587C78.8259 14.0845 81.661 14.6479 84.0005 16.2133C84.2246 16.3639 84.4573 16.4972 84.6942 16.6176C84.7158 16.6563 84.7373 16.695 84.7589 16.7294V16.738C88.559 18.2303 91.3252 15.5812 90.0714 11.9256C86.366 10.3688 80.7691 6.4208 71.484 10.8462C65.4003 13.9899 61.6389 20.9612 63.1253 28.4013L63.134 28.4056Z" fill="#005B7F"/>
<path fill-rule="evenodd" clip-rule="evenodd" d="M64.3361 28.2423C65.1676 24.2943 67.1323 21.1849 70.0708 19.6668C73.466 18.2261 77.0551 17.8132 79.7695 19.1722C79.8686 19.2195 79.9634 19.2711 80.0582 19.327C80.0495 19.327 80.0366 19.327 80.028 19.327L81.9109 20.4452C84.0048 21.0688 86.1936 19.0948 84.6899 16.6176C84.4486 16.4972 84.216 16.3596 83.9962 16.2134C81.6567 14.648 78.8173 14.0846 76.0468 14.0588C67.7312 13.8222 61.0443 24.2298 64.1465 31.7387C64.2585 32.001 64.3791 32.2677 64.4998 32.53C64.1379 31.0764 64.0474 29.5927 64.3318 28.2423" fill="#0D76A0"/>
<path d="M63.1339 28.4315C61.6518 21.043 65.4089 14.1233 71.4926 11.001C80.7777 6.60577 86.0471 10.7 90.08 11.93C95.4097 13.3922 97.9216 7.10895 94.2851 4.10711C90.5668 1.29449 85.6292 0 80.6183 0C69.054 0 59.6741 9.52161 59.6741 21.2666C59.6741 29.9281 64.7712 37.3811 72.0872 40.6969H72.307L72.3242 40.6754C67.3305 38.1552 63.3408 33.3944 64.4955 27.9111C65.327 23.9502 67.3607 21.1849 70.3035 19.6625C70.2259 19.6926 70.1527 19.727 70.0751 19.7571C67.1366 21.2666 65.1719 24.3545 64.3404 28.2724C64.056 29.6142 64.1465 31.085 64.5084 32.53C64.3877 32.2677 64.2671 32.0053 64.1551 31.743C63.6941 30.6377 63.358 29.5282 63.1382 28.4315" fill="#0D76A0"/>
<path d="M80.1615 19.4044C70.0923 19.77 74.2631 30.4097 82.3589 33.1278C89.7482 34.8652 98.1758 31.4075 99.477 23.0471C100.072 19.2238 99.4296 17.4562 99.2659 16.3166C99.253 16.2392 100.597 21.1935 100.283 24.3803C99.2056 35.2351 91.0321 42.5848 80.4201 42.5848C78.0977 42.5848 75.3876 42.1548 72.992 41.0581C69.7003 39.5486 66.7144 36.9381 65.2193 33.8718C63.2287 29.7948 64.6247 24.5437 67.658 21.3999C70.325 18.6346 76.8784 16.9875 80.1658 19.4087" fill="#005B7F"/>
</g>
</g>
<defs>
<clipPath id="clip0_334_1180">
<rect width="160" height="84" fill="white"/>
</clipPath>
<clipPath id="clip1_334_1180">
<rect width="160" height="84" fill="white"/>
</clipPath>
</defs>
</svg>
