<svg width="160" height="49" viewBox="0 0 160 49" fill="none" xmlns="http://www.w3.org/2000/svg">
<g clip-path="url(#clip0_334_1241)">
<g clip-path="url(#clip1_334_1241)">
<path d="M34.468 22.0483C38.6787 23.6577 50.4414 22.8624 55.3356 18.302C55.3356 18.302 52.5183 17.6462 50.5136 17.0055C45.1372 20.3561 38.5383 23.522 34.468 22.0483Z" fill="#005B7F"/>
<path d="M27.5842 34.0184C26.7261 34.938 25.9592 36.6416 25.2416 39.0085C23.9658 43.2033 22.3939 43.9797 22.3939 43.9797C22.3939 43.9797 24.4063 43.9797 26.5705 43.1581C26.5933 43.1016 26.616 43.045 26.6388 42.9885C28.0778 39.3289 27.7057 35.8991 27.588 34.0146" fill="#005B7F"/>
<path d="M36.9473 32.1754C36.8752 38.3188 34.0807 41.7108 31.1609 43.5765C30.1699 44.2096 29.1751 44.6845 28.2791 45.035C27.7665 47.7977 26.6274 49.0037 26.6274 49.0037C26.6274 49.0037 34.6958 47.9748 36.6702 38.4055C37.5358 33.7734 36.8296 29.85 36.8296 29.85C36.8904 30.649 36.9511 31.4555 36.9473 32.1754Z" fill="#005B7F"/>
<path d="M55.6583 7.24377C57.5757 7.38322 59.2881 7.76388 61.1713 8.50637C61.8206 7.96364 63.4494 6.36184 66.1338 4.77511C63.1153 1.21347 56.1519 2.95472 50.8439 4.98618C48.5088 5.87941 46.4167 6.82919 44.9967 7.40584C40.4898 9.23377 31.0698 13.6095 26.7869 9.18101C24.8733 6.50506 26.3009 4.7035 25.0745 2.68335C23.4988 0.0940901 20.2715 -0.591857 17.5871 0.497367C11.9374 2.79265 5.80541 -0.65216 0 0.301382C4.6056 1.98233 10.9122 1.25116 14.4395 5.15578C17.3289 8.35561 17.9174 14.0957 19.345 18.8596C20.2525 13.4776 26.8552 12.1924 26.8552 12.1924C24.7897 12.8557 20.9967 15.4412 21.2587 20.7969C21.532 26.3749 30.3749 30.2268 30.3749 37.0674C30.3749 39.3137 29.8168 40.2559 28.7651 42.6454C29.4333 39.1139 28.9056 36.7697 27.5539 33.9806C27.6716 35.8651 28.0475 39.2948 26.6084 42.9545C26.5857 43.011 26.5629 43.0676 26.5401 43.1241C26.0997 44.202 25.5074 45.2988 24.6986 46.3767C24.6986 46.3767 26.2591 46.2109 28.2943 45.4156C29.1941 45.0651 30.1851 44.594 31.1799 43.9608C34.0997 42.0952 36.8904 38.7031 36.9663 32.5597C36.9739 31.8399 36.9473 31.0823 36.879 30.2833C36.7423 28.4855 36.4158 26.5068 35.7475 24.3321C35.6602 24.0532 35.5691 23.7743 35.4741 23.4879C35.4703 23.4691 35.4627 23.454 35.4551 23.4351C35.3223 23.0507 35.1818 22.6587 35.0261 22.2592C39.1457 23.601 45.6383 20.2315 50.9046 16.7113C54.3977 14.3784 57.3555 11.9776 58.711 10.8469C56.4898 8.93226 52.9511 8.57798 50.0427 8.64205C47.009 8.70989 44.0892 9.53152 41.5112 10.9486C44.8904 8.63828 48.9454 7.26262 53.2701 7.16839C54.0598 7.14955 54.8609 7.18724 55.6659 7.24377" fill="#005B7F"/>
<mask id="mask0_334_1241" style="mask-type:luminance" maskUnits="userSpaceOnUse" x="75" y="27" width="6" height="18">
<path d="M75.0717 36.1705V44.6921H80.8353V27.5057L75.0717 36.1705Z" fill="white"/>
</mask>
<g mask="url(#mask0_334_1241)">
<path d="M75.0804 27.39L74.7275 44.6859L80.8392 44.8088L81.1921 27.5129L75.0804 27.39Z" fill="#005B7F"/>
</g>
<path d="M61.3459 27.5057H67.3792L71.0887 33.5436L74.7982 27.5057H80.8353L75.0716 36.1705L71.0887 42.2838H70.99L67.0071 36.1705V44.6921H61.3459V27.5057Z" fill="#005B7F"/>
<path d="M55.2102 37.7422C55.1495 37.8477 55.0887 37.9494 55.028 38.0512C54.3369 39.1593 53.4409 39.9055 51.9449 39.9055C50.0389 39.9055 48.7062 38.3376 48.7062 36.0989V36.0499C48.7062 35.6202 48.7631 35.2057 48.8695 34.8212C49.2719 33.3551 50.3996 32.2923 51.9449 32.2923C53.4902 32.2923 54.4205 33.1327 55.0621 34.335C55.0849 34.3426 55.1077 34.3463 55.1343 34.3501C56.0607 33.683 57.0365 33.0611 58.0655 32.4958C58.6578 32.1717 59.2539 31.8777 59.8576 31.6025C59.8576 31.5988 59.85 31.5912 59.85 31.5875C58.3882 28.9718 55.8177 27.1364 52.0209 27.1364C46.8495 27.1364 42.821 30.9656 42.821 36.0951V36.1441C42.821 37.0637 42.9463 37.9306 43.178 38.7372C43.2425 38.9708 43.3184 39.2007 43.402 39.4231C44.0474 41.1304 45.1903 42.5212 46.6255 43.4936C48.1063 44.4961 49.9022 45.0577 51.7968 45.0577C56.0987 45.0577 58.5249 42.9697 59.9829 40.4181L55.2102 37.7422Z" fill="#005B7F"/>
<path d="M93.832 27.2871H95.3356V28.9266H93.832V27.2871ZM93.9801 32.183H95.1913V44.6619H93.9801V32.183Z" fill="#005B7F"/>
<path d="M106.601 33.3099C103.692 33.3099 101.152 35.4884 101.152 39.5513V44.6657H99.9449V32.183H101.152V35.7333C102.14 33.5059 104.235 31.889 106.726 31.987V33.3061H106.601V33.3099Z" fill="#005B7F"/>
<path d="M111.188 26.7971H109.98V44.6619H111.188V26.7971Z" fill="#005B7F"/>
<path d="M115.968 27.2871H117.471V28.9266H115.968V27.2871ZM116.116 32.183H117.323V44.6619H116.116V32.183Z" fill="#005B7F"/>
<path d="M131.649 44.662V37.2485C131.649 34.6781 130.195 32.9896 127.654 32.9896C125.114 32.9896 123.292 34.8477 123.292 37.4445V44.6658H122.084V32.183H123.292V34.5085C124.131 33.0386 125.536 31.889 127.829 31.889C131.007 31.889 132.856 34.0411 132.856 37.0261V44.662H131.645H131.649Z" fill="#005B7F"/>
<path d="M142.546 43.8328C144.494 43.8328 145.826 42.9773 146.859 41.8767L147.698 42.6117C146.419 43.9836 144.911 44.9597 142.496 44.9597C139.193 44.9597 136.334 42.3403 136.334 38.4508V38.4018C136.334 34.7798 138.897 31.8928 142.299 31.8928C145.701 31.8928 148.07 34.7308 148.07 38.4282V38.4772C148.07 38.6505 148.07 38.7221 148.044 38.9181H137.617C137.838 42.0275 140.082 43.8366 142.55 43.8366M146.764 37.8402C146.589 35.3188 145.135 32.9934 142.253 32.9934C139.763 32.9934 137.841 35.0738 137.617 37.8402H146.764Z" fill="#005B7F"/>
<path d="M155.664 44.9069C153.838 44.9069 151.844 44.172 150.512 43.094L151.229 42.1405C152.611 43.192 154.138 43.78 155.74 43.78C157.441 43.78 158.77 42.8528 158.77 41.4056V41.3566C158.77 39.8904 157.194 39.3515 155.44 38.8615C153.397 38.2773 151.127 37.6668 151.127 35.4355V35.3866C151.127 33.3815 152.828 31.9342 155.269 31.9342C156.773 31.9342 158.474 32.4732 159.73 33.3061L159.089 34.3086C157.931 33.5511 156.549 33.0611 155.22 33.0611C153.492 33.0611 152.361 33.992 152.361 35.2396V35.2886C152.361 36.6831 154.062 37.1956 155.865 37.712C157.885 38.2736 160.004 39.0085 160.004 41.2096V41.2586C160.004 43.486 158.079 44.9031 155.664 44.9031" fill="#005B7F"/>
<path d="M76.8637 44.6619H75.4817L86.766 27.5321H89.2795V44.6619H87.9962V39.8641H80.0379L76.8599 44.6619H76.8637ZM80.8011 38.7146H88V28.6816H87.3963L80.8011 38.7146Z" fill="#005B7F"/>
</g>
</g>
<defs>
<clipPath id="clip0_334_1241">
<rect width="160" height="49" fill="white"/>
</clipPath>
<clipPath id="clip1_334_1241">
<rect width="160" height="49" fill="white"/>
</clipPath>
</defs>
</svg>
