<svg width="160" height="56" viewBox="0 0 160 56" fill="none" xmlns="http://www.w3.org/2000/svg">
<g clip-path="url(#clip0_334_1210)">
<path d="M128.814 50.3108C129.264 50.5932 129.77 50.9887 130.248 51.243C126.451 50.565 122.429 51.1017 118.857 51.9209C110.082 53.5311 101.56 57.2882 91.8288 55.2825C83.7569 53.5311 76.8943 49.3785 67.4161 50.1695C59.3441 50.8475 53.1847 53.3898 45.1409 54.4633C39.2064 55.1413 32.3439 54.7458 28.772 51.7797C32.5689 51.9209 36.3658 52.0622 40.1627 51.3842C45.619 50.565 49.4159 48.4181 54.3941 47.2034C64.6036 44.9153 73.3505 49.6328 82.3787 51.4972C87.1319 52.5706 92.5882 52.4294 97.3133 51.3559C105.385 49.4633 113.682 45.8475 122.935 47.8531C125.242 48.4181 127.154 49.2373 128.814 50.3108Z" fill="#005B7F"/>
<path d="M116.747 45.7628C117.619 46.1017 118.407 46.4407 119.363 46.695C114.863 46.017 110.363 46.5537 106.088 47.6272C99.2253 49.5198 91.8565 52.3447 83.8127 50.8475C79.0595 49.7741 74.5595 48.4181 70.2844 46.9492C75.2626 47.8814 80.7189 47.8814 85.9221 47.2317C93.2628 46.1582 99.1972 42.5142 107.269 43.3334C110.841 43.6159 113.682 44.5763 116.747 45.7628Z" fill="#005B7F"/>
<path d="M65.4472 27.9378C65.4472 28.7005 65.3628 29.322 65.1941 29.774C64.9409 30.5085 64.5191 31.0452 63.9284 31.4407C63.3659 31.8079 62.6909 32.0056 61.9034 32.0056C60.6378 32.0056 59.6534 31.5819 58.9784 30.7062C58.4721 30.0565 58.219 29.2655 58.219 28.3333C58.219 27.3164 58.5284 26.4689 59.119 25.7909C59.794 25 60.7503 24.6045 61.9878 24.6045C62.8034 24.6045 63.5065 24.8022 64.0691 25.226C64.4628 25.5367 64.8284 25.9604 65.1097 26.5536L63.394 27.2599C63.2534 26.9209 63.0847 26.6949 62.8878 26.5254C62.6065 26.2994 62.269 26.1864 61.9034 26.1864C61.1159 26.1864 60.5815 26.5819 60.2721 27.4011C60.1596 27.7118 60.1034 27.9943 60.1034 28.3333C60.1034 28.983 60.3003 29.548 60.7221 30C61.0315 30.339 61.4534 30.4802 61.9597 30.4802C62.4097 30.4802 62.7753 30.339 63.0565 30.0847C63.2253 29.9152 63.3378 29.661 63.394 29.322H61.8753V27.9378H65.4472Z" fill="#005B7F"/>
<path d="M73.1542 31.808H71.2417L70.7917 30.5933H68.3167L67.8385 31.808H65.926L68.5979 24.8306H70.5667L73.1542 31.808ZM70.3136 29.2091L69.5542 26.9775L68.7948 29.2091H70.3136Z" fill="#005B7F"/>
<path d="M77.9353 31.808H73.9696V24.8306H75.7696V30.2825H77.9353V31.808Z" fill="#005B7F"/>
<path d="M85.4452 31.808H83.5327L83.0827 30.5933H80.6077L80.1296 31.808H78.217L80.8889 24.8306H82.8577L85.4452 31.808ZM82.6046 29.2091L81.8452 26.9775L81.0858 29.2091H82.6046Z" fill="#005B7F"/>
<path d="M92.8976 31.808H90.7319L89.2413 29.5198L87.6944 31.808H85.5006L88.2288 28.0792L86.0069 24.8306H88.2288L89.2413 26.6385L90.3382 24.8306H92.5319L90.2819 28.0792L92.8976 31.808Z" fill="#005B7F"/>
<path d="M99.6754 24.8306L97.0879 28.4464V31.808H95.2879V28.4464L92.7566 24.8306H94.9222L96.2441 26.7232L97.4816 24.8306H99.6754Z" fill="#005B7F"/>
<path d="M150.667 31.6949C150.639 31.6667 150.555 31.6384 150.442 31.6667C150.33 31.7232 149.711 31.6667 149.486 31.6384C149.374 31.6384 149.289 31.6102 149.233 31.6102H147.602L145.689 31.5819L143.045 31.5254C141.217 31.4689 139.361 31.4407 137.505 31.469C134.355 31.5254 131.767 31.0735 129.573 30.0565C128.336 29.4915 127.127 28.8418 125.973 28.1921C124.68 27.4859 123.358 26.7797 121.951 26.13C119.308 24.9435 116.355 24.1526 113.514 23.4181L112.951 23.2769L109.52 22.4011L107.495 21.8927L97.0325 19.1808L96.9481 19.1243C95.8231 16.4689 89.6918 14.1243 82.1542 13.5876C80.073 13.4463 78.1042 13.4463 76.2761 13.5876L73.9698 10.5932H77.8511H77.9636V10.4802V9.57628V9.46328H77.8511H73.0979L69.1322 4.37853H71.1291V3.30509H68.3166L65.7572 0.0282486L65.701 0H65.6447H63.3103H63.1415L63.2259 0.141243L64.0978 1.77966H59.8228H59.7103V1.89266L59.5415 2.65537V2.76836H59.654H64.6322L67.8666 8.92656H60.5821H60.4696V9.03955L60.3009 9.80227V9.91526H60.4134H68.401L69.301 11.6102L63.8447 17.1469L7.20038 18.9548V19.1526C15.5536 19.2373 23.9068 19.2938 32.26 19.3785C38.6726 19.435 45.0851 19.435 51.4977 19.4633L55.2946 19.4915C58.1353 19.3503 61.0603 19.2938 64.0416 19.2938C90.7606 19.2938 113.261 25.0283 120.123 32.8531L55.154 34.0396L135.311 34.9435C135.874 35.0565 136.38 35.3108 136.802 35.678C138.095 36.8644 138.208 39.0678 137.28 41.582C137.252 41.6102 137.252 41.6667 137.224 41.6949C137.195 41.8079 137.139 41.8927 137.111 42.0057C137.111 42.0339 137.083 42.0339 137.083 42.0622C136.97 42.3164 136.858 42.5707 136.745 42.8249L136.717 42.8531C136.661 42.9661 136.605 43.0791 136.549 43.1921C136.549 43.2204 136.52 43.2486 136.52 43.2769C136.464 43.3899 136.408 43.4746 136.352 43.5876C136.324 43.6159 136.324 43.6441 136.295 43.6723C136.239 43.7853 136.183 43.8701 136.127 43.9831C136.099 44.0113 136.099 44.0396 136.07 44.0678C136.014 44.1526 135.958 44.2656 135.902 44.3503C135.874 44.3786 135.874 44.4068 135.845 44.4351C135.789 44.5198 135.733 44.6328 135.648 44.7175C135.62 44.7458 135.62 44.774 135.592 44.8023C135.536 44.9153 135.452 45 135.395 45.113C135.367 45.1413 135.367 45.1695 135.339 45.1978C135.255 45.3108 135.199 45.3955 135.114 45.5085C135.086 45.5368 135.086 45.565 135.058 45.5933C134.974 45.7062 134.889 45.8192 134.805 45.9322C134.805 45.9605 134.777 45.9605 134.777 45.9887C134.692 46.1017 134.58 46.2147 134.495 46.356C134.27 46.6385 134.045 46.8927 133.82 47.1469C133.173 47.8531 132.498 48.5029 131.823 49.0961C131.711 49.1808 131.57 49.2938 131.458 49.4068C130.98 49.8305 130.67 50.2543 130.755 50.339C130.839 50.4238 131.289 50.1695 131.739 49.7458L131.767 49.7176C133.202 48.5311 134.72 47.2599 136.267 45.904C144.733 38.6441 151.174 32.2882 150.667 31.6949Z" fill="#005B7F"/>
<path d="M159.977 33.1074C159.949 33.0792 159.892 33.0792 159.78 33.0792C159.696 33.1357 159.161 33.0792 158.964 33.0509C158.852 33.0509 158.796 33.0227 158.739 33.0227H157.361H155.73L153.48 32.9662C152.692 32.9379 151.877 32.9379 151.033 32.9097C150.217 33.8136 149.092 34.9436 147.714 36.2713C147.827 36.356 147.967 36.4407 148.08 36.5255C149.205 37.5424 149.261 39.4351 148.502 41.582C148.502 41.6102 148.474 41.6385 148.474 41.695C148.446 41.7797 148.417 41.8645 148.361 41.9492C148.361 41.9775 148.361 41.9775 148.333 42.0057C148.249 42.2317 148.136 42.4294 148.052 42.6554L148.024 42.6837C147.967 42.7684 147.939 42.8814 147.883 42.9944C147.883 43.0227 147.855 43.0227 147.855 43.0509C147.799 43.1357 147.771 43.2204 147.714 43.3052C147.714 43.3334 147.686 43.3617 147.686 43.3899C147.63 43.4746 147.602 43.5594 147.546 43.6441C147.517 43.6724 147.517 43.7006 147.489 43.7289C147.433 43.8136 147.377 43.8984 147.349 43.9831C147.321 44.0114 147.321 44.0396 147.292 44.0679C147.236 44.1526 147.18 44.2374 147.124 44.3221C147.095 44.3504 147.096 44.3786 147.067 44.4068C147.011 44.4916 146.955 44.5763 146.899 44.6611C146.87 44.6893 146.87 44.7176 146.842 44.7458C146.786 44.8306 146.73 44.9153 146.646 45.0001C146.617 45.0283 146.617 45.0283 146.589 45.0566C146.533 45.1413 146.449 45.2543 146.392 45.3391L146.364 45.3955C146.28 45.5085 146.195 45.5933 146.111 45.7063C145.914 45.9323 145.717 46.1583 145.52 46.3843C144.958 47.0057 144.395 47.5424 143.805 48.0509C143.692 48.1357 143.58 48.2204 143.467 48.3052C143.074 48.6724 142.792 49.0396 142.877 49.0961C142.961 49.1809 143.327 48.9549 143.72 48.5876L143.749 48.5594C144.986 47.5424 146.28 46.4407 147.63 45.2826C154.886 39.0679 160.399 33.6159 159.977 33.1074Z" fill="#005B7F"/>
<path d="M141.047 48.5316C140.513 48.0796 139.979 47.5992 139.388 47.2319C138.544 46.6669 137.701 46.2996 136.801 46.0453L134.241 48.1643C134.944 48.1926 135.619 48.2208 136.294 48.3056C137.363 48.4186 138.432 48.6446 139.5 48.9837C140.457 49.2945 141.413 49.7183 142.425 49.5205C142.032 49.5488 141.357 48.7859 141.047 48.5316Z" fill="#005B7F"/>
<path d="M62.1848 21.7233V22.0906H61.4535V23.7575H60.9473V22.0906H60.2161V21.7233H62.1848Z" fill="#005B7F"/>
<path d="M65.1104 21.7233V23.7575H64.6041V22.9382H63.6198V23.7575H63.1135V21.7233H63.6198V22.5426H64.6041V21.7233H65.1104Z" fill="#005B7F"/>
<path d="M67.67 23.3902V23.7575H66.1794V21.7233H67.6419V22.0906H66.6857V22.5426H67.6138V22.9099H66.6857V23.3902H67.67Z" fill="#005B7F"/>
<path d="M55.1541 32.0622C55.8291 30.6215 56.1666 29.2656 56.1666 27.9944C56.1666 27.0339 56.0541 26.1865 55.7728 25.452C55.5197 24.7176 55.0978 24.0961 54.5635 23.5876C54.4228 23.4464 54.226 23.2769 54.001 23.1639C53.776 23.0226 53.4947 22.9379 53.1853 22.9379C52.8759 22.9379 52.5947 23.0509 52.3978 23.2204C52.2853 23.3051 52.2009 23.4181 52.1447 23.5594C52.0884 23.7006 52.0322 23.8418 52.0322 23.9831C52.0322 24.1808 52.0884 24.3786 52.2009 24.5481C52.2853 24.7176 52.3978 24.8305 52.5384 24.9718C52.7353 25.226 52.9041 25.565 52.9884 26.017C53.1009 26.469 53.1572 27.0339 53.1572 27.6837C53.1572 27.7684 53.1572 27.8531 53.1572 27.9661C53.1009 29.0396 52.7634 30.226 52.1447 31.5537C51.5259 32.8814 50.5978 34.2938 49.3884 35.8475C47.279 38.5311 44.6915 41.017 41.7383 43.2486C40.2477 44.3786 38.9539 45.226 37.9133 45.791C36.8445 46.3842 36.0008 46.6667 35.382 46.7515C35.2414 46.7797 35.0164 46.7797 34.8476 46.7797C34.5101 46.7797 34.2008 46.7232 33.9195 46.6385C33.6383 46.5537 33.4132 46.4407 33.2445 46.2995C33.0757 46.1582 32.9632 46.017 32.8789 45.8475C32.7945 45.678 32.7664 45.5085 32.7664 45.2825V45.226C32.7945 43.0509 33.2445 40.9605 34.0883 38.8136C34.9039 36.8645 36.2258 34.4633 37.9133 31.8645C37.9977 31.7232 38.0539 31.582 38.082 31.4407C38.1102 31.2995 38.1383 31.1865 38.1383 31.0452C38.1383 30.791 38.082 30.5085 37.9977 30.2543C37.857 29.8588 37.632 29.4916 37.3227 29.1808C37.0133 28.8701 36.6477 28.5876 36.2258 28.4746L36.1414 28.4464C36.0852 28.4464 36.0008 28.4181 35.9164 28.4181C35.6914 28.4181 35.4383 28.4746 35.1851 28.6159C34.932 28.7571 34.6789 28.9831 34.4539 29.3221C34.257 29.5481 34.1164 29.7176 34.0039 29.8871C33.9195 30 33.8351 30.0848 33.7789 30.1978L26.4663 36.921L23.7944 39.3786C24.9757 37.5989 26.0163 35.791 27.0007 33.9831C28.1257 31.8645 28.9695 30.0565 29.532 28.4746C30.0945 26.8927 30.3757 25.565 30.3757 24.4351C30.3757 24.3503 30.3757 24.2656 30.3757 24.1808C30.3476 23.5029 30.1226 22.8814 29.7288 22.3164C29.3351 21.7515 28.7726 21.2712 28.0694 20.8757C26.8882 20.1413 25.5663 19.774 24.16 19.774C23.9069 19.774 23.6538 19.774 23.3725 19.8023C19.2662 20.2543 14.6537 21.9492 9.64739 24.8023C7.03174 26.2712 5.03484 27.6272 3.57233 28.9548C2.84107 29.6046 2.25044 30.2543 1.80044 30.904C1.35043 31.5255 1.01293 32.1752 0.844179 32.7967C0.787928 32.9379 0.759803 33.0791 0.731677 33.2204C0.703552 33.3616 0.703552 33.4746 0.703552 33.5876C0.703552 34.2091 0.872304 34.8588 1.18168 35.452C1.35043 35.7345 1.51919 36.017 1.74419 36.243C1.96919 36.469 2.22232 36.6667 2.5317 36.808C3.00982 37.0057 3.54421 37.1187 4.10671 37.1187C4.61297 37.1187 5.17547 37.0339 5.73798 36.8645C5.96298 36.8362 6.13173 36.7797 6.30048 36.7232C6.55361 36.6102 6.75049 36.469 6.86299 36.2995C6.97549 36.13 7.03174 35.9323 7.03174 35.791C7.03174 35.6215 6.97549 35.452 6.89111 35.3108C6.83486 35.1978 6.72236 35.113 6.63799 35.0565C6.49736 34.9436 6.32861 34.8871 6.13173 34.8588C5.96298 34.8306 5.7661 34.8023 5.5411 34.8023C4.83797 34.8023 4.35984 34.7458 4.07859 34.6611C3.82546 34.6046 3.71296 34.5481 3.68483 34.5198L3.65671 34.4916C3.62858 34.4633 3.62858 34.4633 3.60046 34.4068C3.57233 34.3786 3.57233 34.2938 3.57233 34.1808C3.57233 34.0113 3.62858 33.7571 3.76921 33.3899C4.21921 32.3447 5.2036 31.2147 6.72236 30C8.24113 28.7854 10.2943 27.5142 12.8537 26.2147C15.4412 24.9153 17.7475 23.9548 19.7444 23.3334C21.7413 22.7119 23.4569 22.4012 24.8632 22.4012C25.3132 22.4012 25.6788 22.4577 25.9882 22.5142C26.2132 22.5707 26.4101 22.6554 26.5788 22.7684C26.8319 22.9096 27.0007 23.1074 27.1413 23.3616C27.2819 23.6159 27.3944 23.9266 27.4226 24.3221C27.4226 24.4068 27.4507 24.4916 27.4507 24.5763C27.4507 25.0283 27.3101 25.7345 26.9444 26.7797C26.3819 28.3334 25.285 30.565 23.3444 33.8136C21.4038 37.0339 18.6475 41.243 14.7099 46.7232L14.6818 46.7515V46.7797L14.6256 46.8645V46.8927V46.921C14.5974 47.0057 14.5693 47.0905 14.5412 47.2034C14.5131 47.3164 14.4849 47.4294 14.4849 47.5707C14.4849 47.7684 14.5131 47.9662 14.6256 48.1356C14.7662 48.4181 15.0193 48.6724 15.3568 48.8419C15.6943 49.0114 16.1162 49.0961 16.6225 49.0961C16.9037 49.0961 17.1568 49.0396 17.41 48.9549C17.6631 48.8701 17.86 48.7289 18.0287 48.5311C18.5069 48.0227 18.9287 47.5424 19.3225 47.1187C19.7725 46.6102 20.1662 46.1865 20.5037 45.8758L32.0914 35.0283C30.4601 38.1921 29.6445 41.2147 29.6445 44.0396C29.6445 44.5198 29.6445 44.9153 29.7007 45.3955C29.757 45.9605 29.9257 46.4972 30.207 46.9775C30.6288 47.6837 31.2476 48.2769 32.0351 48.6724C32.8226 49.0679 33.7226 49.2938 34.7351 49.2938C35.0726 49.2938 35.382 49.2656 35.6914 49.2373H35.8039H35.832H35.8601C36.957 49.0396 38.1945 48.5876 39.5164 47.8814C40.8664 47.1752 42.3571 46.1865 43.9884 44.9436C47.3634 42.3729 50.0634 39.7176 52.2291 36.8645C53.4947 35.0848 54.4791 33.5311 55.1541 32.0622ZM75.0387 49.1243C74.9543 48.9266 74.8137 48.7571 74.673 48.6441C74.5043 48.5311 74.3074 48.4464 74.1105 48.4464C73.998 48.4464 73.8574 48.4746 73.7449 48.5311C73.5761 48.6159 73.4355 48.7289 73.323 48.8701C73.2386 49.0114 73.1543 49.1526 73.098 49.2938C72.9574 49.5198 72.7324 49.7741 72.423 50.0283C72.0855 50.2825 71.6636 50.5368 71.1292 50.7628C70.7636 50.904 70.4542 51.017 70.1449 51.1018C69.3011 51.3277 68.3448 51.469 67.4448 51.469C67.023 51.469 66.6573 51.4407 66.3761 51.356C66.1511 51.2995 65.9542 51.243 65.8136 51.1583C65.5886 51.0453 65.4479 50.904 65.3354 50.7345C65.2511 50.565 65.1948 50.3673 65.1948 50.0848C65.1948 49.8871 65.1948 49.7458 65.2229 49.5763C65.4761 48.2769 65.8136 47.2317 66.3761 46.1582C66.9386 45.0566 67.698 43.8984 68.7949 42.4012C69.9199 40.904 71.1574 39.3786 72.3386 37.9097L73.548 36.4125L73.5761 36.3842L73.6043 36.356L73.6605 36.243L73.6886 36.2147V36.1865C73.7449 36.0735 73.7449 35.9605 73.7449 35.8475C73.7449 35.6215 73.6887 35.452 73.6043 35.339C73.5199 35.1978 73.4636 35.113 73.4074 35.0565C73.1261 34.7458 72.7324 34.5763 72.3386 34.5763C72.198 34.5763 72.0293 34.6046 71.8886 34.6328C71.7199 34.6893 71.5511 34.7458 71.4105 34.8588C71.3542 34.8871 71.298 34.9436 71.2136 34.9718C71.1292 35 71.0167 35.0283 70.848 35.0565C70.8199 35.0565 70.7917 35.0565 70.7636 35.0565C70.7074 35.0565 70.623 35.0565 70.5667 35.0283H70.4261C69.7792 34.8588 69.0199 34.7176 68.2323 34.7176C67.4448 34.7176 66.7698 34.8871 66.2073 35.0283C63.7604 35.8193 61.0885 37.3729 58.2479 39.6328C56.5885 40.9605 55.351 42.1752 54.5072 43.3051C54.0853 43.8701 53.7759 44.4068 53.5509 44.9436C53.3259 45.4803 53.2134 45.9888 53.2134 46.4972C53.2134 46.921 53.2978 47.2599 53.4384 47.5707C53.5509 47.7967 53.6916 47.9662 53.8322 48.1074C54.0572 48.3334 54.3385 48.4464 54.5916 48.5311C54.8447 48.5876 55.0978 48.6159 55.2947 48.6159C55.9135 48.6159 56.3916 48.4181 56.7572 48.2486C58.6135 47.3729 60.7229 46.13 63.2542 44.4068C63.7604 44.0396 64.2667 43.7006 64.7167 43.3616C63.9854 44.6893 63.451 45.6498 63.1135 46.582C62.776 47.5142 62.6073 48.3616 62.5792 49.4068C62.5792 49.4633 62.5792 49.5481 62.5792 49.6046C62.5792 50.339 62.7479 51.017 63.0573 51.582C63.3948 52.147 63.8729 52.5707 64.4917 52.8814C65.7011 53.5311 67.023 53.8701 68.3448 53.8701C69.2167 53.8701 70.1449 53.7854 71.073 53.5029L72.0293 53.3051H72.0855L72.1136 53.2769C72.873 52.9379 73.4918 52.5424 73.998 52.0905C74.5043 51.6102 74.8418 51.0735 75.0668 50.452C75.1512 50.2543 75.2074 49.9718 75.2074 49.6893C75.1512 49.5481 75.123 49.3221 75.0387 49.1243ZM57.7697 45.6215C57.6291 45.678 57.4885 45.7063 57.4604 45.7063C57.4041 45.7063 57.376 45.7063 57.3479 45.7063C57.3479 45.7063 57.2916 45.6215 57.2916 45.3673C57.2916 45.1413 57.3479 44.9436 57.4041 44.7741C58.2197 43.3051 59.5135 41.7232 61.3135 40.1413C63.226 38.4181 64.8292 37.4294 66.0386 37.2034C66.348 37.1469 66.6011 37.1187 66.8542 37.1187C67.6698 37.1187 68.148 37.4294 68.2042 37.6272C64.1542 41.469 60.751 44.0961 57.7697 45.6215ZM94.2201 34.1808C94.192 34.1526 94.1638 34.1243 94.1357 34.0961C93.9951 33.9831 93.7982 33.8136 93.517 33.6441C93.3763 33.5594 93.2357 33.5029 93.067 33.4464C92.8982 33.3899 92.7295 33.3616 92.5326 33.3616C92.3638 33.3616 92.2232 33.3899 92.0545 33.4464C91.6326 33.6159 91.2107 33.8984 90.5919 34.2656L90.1982 34.4916L90.1419 34.5198L90.0857 34.5763L89.8888 34.8023L89.8326 34.8588L89.8044 34.9153C89.5794 35.3955 89.4669 35.8475 89.3544 36.13C89.3263 36.2147 89.2982 36.2995 89.2701 36.3842C89.2701 36.4125 89.2419 36.4407 89.2419 36.469L89.1857 36.5255L85.0794 41.0735C84.2075 42.0057 83.3075 42.9662 82.4919 43.7571C81.6762 44.5481 80.945 45.1978 80.3825 45.5933V45.565C80.6637 44.7458 81.1981 43.7006 81.9575 42.4577C82.7169 41.2147 83.7294 39.8023 84.995 38.2204L85.0231 38.1921L85.0513 38.1639L85.1075 38.0791C85.1356 38.0509 85.1919 37.9662 85.22 37.8532C85.2763 37.7402 85.3044 37.6272 85.3044 37.4577C85.3044 37.2317 85.2481 37.0057 85.1356 36.8362C85.0231 36.6385 84.8825 36.4972 84.6856 36.3842C84.3763 36.1865 84.0106 36.1017 83.5887 36.1017C83.3356 36.1017 83.1106 36.13 82.8856 36.2147C82.6887 36.2995 82.4919 36.4125 82.3512 36.582C80.5793 38.5594 79.145 40.3673 78.0762 42.0057C77.0074 43.6441 76.2762 45.1413 75.8824 46.4972C75.8543 46.6102 75.8262 46.7232 75.8262 46.8362C75.8262 47.1187 75.9387 47.3729 76.1074 47.5989C76.3324 47.8814 76.6137 48.0792 76.9512 48.2204C77.2887 48.3616 77.6262 48.4746 77.9918 48.4746C78.1324 48.4746 78.2731 48.5029 78.3856 48.5029C78.6668 48.5029 78.9481 48.4746 79.1731 48.4181C79.3981 48.3616 79.5387 48.2769 79.6793 48.2486C79.7637 48.2486 79.8481 48.2204 79.9043 48.2204H79.9325H79.9606L80.945 47.8532H81.0012L81.0856 47.7967C81.3387 47.6554 81.5637 47.5142 81.8168 47.3447C83.2794 46.3277 85.0231 44.8588 87.1325 42.8532C88.7638 41.2995 90.0576 39.9436 91.0419 38.7854C91.3513 38.8984 91.6607 38.9831 92.0545 39.0678C92.1951 39.0961 92.3638 39.1243 92.5607 39.1243C92.7013 39.1243 92.842 39.1243 92.9826 39.0678C93.1232 39.0396 93.2638 38.9831 93.4045 38.8701C93.517 38.7854 93.6295 38.7006 93.742 38.5311C93.8545 38.3616 93.9107 38.1639 93.9107 37.9097C93.9107 37.7119 93.8545 37.5142 93.742 37.3447C93.6295 37.2034 93.4888 37.0622 93.3201 36.9774C93.2638 36.9492 93.2357 36.921 93.2357 36.921C93.2357 36.8645 93.292 36.7797 93.3763 36.6102C93.517 36.3842 93.742 36.0452 94.1638 35.565C94.2201 35.5085 94.2763 35.452 94.3045 35.339C94.3607 35.226 94.3889 35.0848 94.3889 34.9435C94.3889 34.8306 94.3607 34.6893 94.3045 34.5763C94.3888 34.4068 94.3326 34.2938 94.2201 34.1808ZM111.517 35.1695C111.517 34.4068 111.208 33.6724 110.617 33.0791C109.998 32.4577 109.183 32.1469 108.311 32.1469C108.001 32.1469 107.664 32.2034 107.355 32.2882C106.342 32.6272 105.161 33.2204 103.923 34.0113C102.067 35.1978 100.098 36.8362 98.5514 38.7006C97.792 39.6328 97.117 40.6215 96.6107 41.6385C96.1045 42.6554 95.7951 43.7289 95.7389 44.8023C95.7389 44.8306 95.7389 44.8871 95.7389 44.9153C95.7389 45.4803 95.9076 46.017 96.2451 46.5255C96.5545 47.034 97.0326 47.4859 97.5951 47.8814C98.5233 48.5311 99.6202 48.8701 100.605 48.8984C100.801 48.8984 100.97 48.8701 101.167 48.8419C102.32 48.6724 103.53 48.3051 104.598 47.8532C105.667 47.4012 106.595 46.921 107.186 46.5537C107.411 46.4407 107.608 46.2712 107.72 46.0735C107.833 45.8758 107.861 45.7063 107.861 45.565C107.861 45.5368 107.861 45.5368 107.861 45.5085C107.861 45.3108 107.776 45.113 107.664 44.9718C107.551 44.8306 107.383 44.7176 107.214 44.6328C107.045 44.5481 106.848 44.5198 106.651 44.5198C106.37 44.5198 106.061 44.6046 105.808 44.7458C105.133 45.0566 104.233 45.3955 103.276 45.678C102.348 45.9605 101.336 46.1865 100.492 46.2712C100.408 46.2712 100.323 46.2712 100.239 46.2712C100.042 46.2712 99.817 46.243 99.6483 46.2147C99.4514 46.1582 99.2827 46.1017 99.1702 46.017C99.0576 45.9323 98.9733 45.8193 98.917 45.678C98.8608 45.5368 98.8326 45.339 98.8326 45.0848C98.8326 45.0283 98.8326 44.9718 98.8326 44.9153C98.8889 44.0961 99.2545 43.2204 99.7608 42.4012C100.239 41.6385 100.858 40.904 101.448 40.226C101.87 40.226 102.32 40.226 102.798 40.226H102.855H102.911C103.108 40.1978 103.333 40.1695 103.558 40.113C104.88 39.8023 106.201 39.4633 107.523 38.9266C108.451 38.5594 109.351 38.1074 110.223 37.6554L110.252 37.6272L110.28 37.5989C110.617 37.3447 110.898 37.0339 111.123 36.7232C111.377 36.2147 111.517 35.678 111.517 35.1695ZM108.676 35.5933C107.692 36.7797 105.273 37.7967 102.855 38.1074C104.711 36.582 106.426 35.4238 107.861 34.7741C108.48 34.4916 108.901 34.5198 109.014 34.6046C109.126 34.7176 109.126 35.0565 108.676 35.5933Z" fill="white"/>
<path d="M55.1536 32.0623C55.8286 30.6216 56.1661 29.2657 56.1661 27.9945C56.1661 27.0341 56.0536 26.1866 55.7724 25.4521C55.5192 24.7177 55.0974 24.0962 54.563 23.5877C54.4223 23.4465 54.2255 23.277 54.0005 23.164C53.7755 23.0228 53.4942 22.938 53.1848 22.938C52.8755 22.938 52.5942 23.051 52.3973 23.2205C52.2848 23.3052 52.2004 23.4182 52.1442 23.5595C52.0879 23.7007 52.0317 23.842 52.0317 23.9832C52.0317 24.181 52.0879 24.3787 52.2004 24.5482C52.2848 24.7177 52.3973 24.8307 52.538 24.9719C52.7348 25.2262 52.9036 25.5651 52.988 26.0171C53.1005 26.4691 53.1567 27.0341 53.1567 27.6838C53.1567 27.7685 53.1567 27.8533 53.1567 27.9663C53.1005 29.0397 52.763 30.2262 52.1442 31.5538C51.5254 32.8815 50.5973 34.294 49.3879 35.8476C47.2785 38.5312 44.691 41.0171 41.7378 43.2488C40.2472 44.3787 38.9534 45.2262 37.9128 45.7911C36.844 46.3844 36.0003 46.6668 35.3815 46.7516C35.2409 46.7798 35.0159 46.7798 34.8472 46.7798C34.5096 46.7798 34.2003 46.7233 33.919 46.6386C33.6378 46.5539 33.4128 46.4409 33.244 46.2996C33.0753 46.1584 32.9628 46.0171 32.8784 45.8476C32.794 45.6781 32.7659 45.5087 32.7659 45.2827V45.2262C32.794 43.051 33.244 40.9606 34.0878 38.8137C34.9034 36.8646 36.2253 34.4634 37.9128 31.8646C37.9972 31.7233 38.0534 31.5821 38.0816 31.4408C38.1097 31.2996 38.1378 31.1866 38.1378 31.0454C38.1378 30.7911 38.0816 30.5086 37.9972 30.2544C37.8566 29.8589 37.6316 29.4917 37.3222 29.181C37.0128 28.8702 36.6472 28.5877 36.2253 28.4747L36.1409 28.4465C36.0847 28.4465 36.0003 28.4182 35.9159 28.4182C35.6909 28.4182 35.4378 28.4747 35.1847 28.616C34.9315 28.7572 34.6784 28.9832 34.4534 29.3222C34.2565 29.5482 34.1159 29.7177 34.0034 29.8872C33.919 30.0002 33.8346 30.0849 33.7784 30.1979L26.4658 36.9211L23.7939 39.3787C24.9752 37.599 26.0158 35.7911 27.0002 33.9832C28.1252 31.8646 28.969 30.0567 29.5315 28.4747C30.094 26.8928 30.3752 25.5651 30.3752 24.4352C30.3752 24.3504 30.3752 24.2657 30.3752 24.181C30.3471 23.503 30.1221 22.8815 29.7283 22.3165C29.3346 21.7516 28.7721 21.2713 28.069 20.8759C26.8877 20.1414 25.5658 19.7742 24.1595 19.7742C23.9064 19.7742 23.6533 19.7742 23.372 19.8024C19.2657 20.2544 14.6532 21.9493 9.6469 24.8024C7.03125 26.2714 5.03436 27.6273 3.57184 28.955C2.84058 29.6047 2.24995 30.2544 1.79995 30.9041C1.34995 31.5256 1.01244 32.1753 0.84369 32.7968C0.78744 32.938 0.759314 33.0793 0.731189 33.2205C0.703064 33.3617 0.703064 33.4747 0.703064 33.5877C0.703064 34.2092 0.871816 34.8589 1.18119 35.4521C1.34995 35.7346 1.5187 36.0171 1.7437 36.2431C1.9687 36.4691 2.22183 36.6668 2.53121 36.8081C3.00934 37.0058 3.54372 37.1188 4.10622 37.1188C4.61248 37.1188 5.17498 37.0341 5.73749 36.8646C5.96249 36.8363 6.13124 36.7798 6.29999 36.7233C6.55312 36.6103 6.75 36.4691 6.8625 36.2996C6.975 36.1301 7.03125 35.9324 7.03125 35.7911C7.03125 35.6216 6.975 35.4521 6.89062 35.3109C6.83437 35.1979 6.72187 35.1132 6.6375 35.0567C6.49687 34.9437 6.32812 34.8872 6.13124 34.8589C5.96249 34.8307 5.76561 34.8024 5.54061 34.8024C4.83748 34.8024 4.35935 34.7459 4.0781 34.6612C3.82497 34.6047 3.71247 34.5482 3.68434 34.5199L3.65622 34.4917C3.62809 34.4634 3.62809 34.4634 3.59997 34.4069C3.57184 34.3787 3.57184 34.294 3.57184 34.181C3.57184 34.0115 3.62809 33.7572 3.76872 33.39C4.21872 32.3448 5.20311 31.2149 6.72187 30.0002C8.24064 28.7855 10.2938 27.5143 12.8532 26.2149C15.4407 24.9154 17.747 23.955 19.7439 23.3335C21.7408 22.712 23.4564 22.4013 24.8627 22.4013C25.3127 22.4013 25.6783 22.4578 25.9877 22.5143C26.2127 22.5708 26.4096 22.6555 26.5783 22.7685C26.8314 22.9098 27.0002 23.1075 27.1408 23.3617C27.2815 23.616 27.394 23.9267 27.4221 24.3222C27.4221 24.4069 27.4502 24.4917 27.4502 24.5764C27.4502 25.0284 27.3096 25.7346 26.9439 26.7798C26.3814 28.3335 25.2846 30.5651 23.3439 33.8137C21.4033 37.0341 18.647 41.2431 14.7095 46.7233L14.6813 46.7516V46.7798L14.6251 46.8646V46.8928V46.9211C14.597 47.0058 14.5688 47.0906 14.5407 47.2036C14.5126 47.3166 14.4844 47.4296 14.4844 47.5708C14.4844 47.7685 14.5126 47.9663 14.6251 48.1358C14.7657 48.4183 15.0188 48.6725 15.3563 48.842C15.6938 49.0115 16.1157 49.0962 16.622 49.0962C16.9032 49.0962 17.1564 49.0397 17.4095 48.955C17.6626 48.8702 17.8595 48.729 18.0282 48.5313C18.5064 48.0228 18.9282 47.5426 19.322 47.1188C19.772 46.6103 20.1658 46.1866 20.5033 45.8759L32.0909 35.0284C30.4596 38.1923 29.644 41.2149 29.644 44.0397C29.644 44.5199 29.644 44.9154 29.7002 45.3957C29.7565 45.9606 29.9252 46.4974 30.2065 46.9776C30.6284 47.6838 31.2471 48.277 32.0346 48.6725C32.8221 49.068 33.7221 49.294 34.7346 49.294C35.0722 49.294 35.3815 49.2657 35.6909 49.2375H35.8034H35.8315H35.8597C36.9565 49.0397 38.1941 48.5877 39.5159 47.8815C40.866 47.1753 42.3566 46.1866 43.9879 44.9437C47.3629 42.3731 50.0629 39.7177 52.2286 36.8646C53.4942 35.0849 54.4786 33.5312 55.1536 32.0623ZM75.0382 49.1245C74.9538 48.9267 74.8132 48.7572 74.6725 48.6442C74.5038 48.5313 74.3069 48.4465 74.11 48.4465C73.9975 48.4465 73.8569 48.4748 73.7444 48.5313C73.5757 48.616 73.435 48.729 73.3225 48.8702C73.2382 49.0115 73.1538 49.1527 73.0975 49.294C72.9569 49.52 72.7319 49.7742 72.4225 50.0284C72.085 50.2827 71.6631 50.5369 71.1288 50.7629C70.7631 50.9041 70.4538 51.0171 70.1444 51.1019C69.3006 51.3279 68.3444 51.4691 67.4444 51.4691C67.0225 51.4691 66.6568 51.4409 66.3756 51.3561C66.1506 51.2996 65.9537 51.2431 65.8131 51.1584C65.5881 51.0454 65.4475 50.9041 65.335 50.7346C65.2506 50.5652 65.1943 50.3674 65.1943 50.0849C65.1943 49.8872 65.1943 49.7459 65.2225 49.5765C65.4756 48.277 65.8131 47.2318 66.3756 46.1584C66.9381 45.0567 67.6975 43.8985 68.7944 42.4013C69.9194 40.9041 71.1569 39.3787 72.3382 37.9098L73.5475 36.4126L73.5757 36.3844L73.6038 36.3561L73.66 36.2431L73.6882 36.2149V36.1866C73.7444 36.0736 73.7444 35.9606 73.7444 35.8476C73.7444 35.6216 73.6882 35.4521 73.6038 35.3392C73.5194 35.1979 73.4632 35.1132 73.4069 35.0567C73.1257 34.7459 72.7319 34.5764 72.3382 34.5764C72.1975 34.5764 72.0288 34.6047 71.8881 34.6329C71.7194 34.6894 71.5506 34.7459 71.41 34.8589C71.3538 34.8872 71.2975 34.9437 71.2131 34.9719C71.1288 35.0002 71.0163 35.0284 70.8475 35.0567C70.8194 35.0567 70.7913 35.0567 70.7631 35.0567C70.7069 35.0567 70.6225 35.0567 70.5663 35.0284H70.4256C69.7787 34.8589 69.0194 34.7177 68.2319 34.7177C67.4444 34.7177 66.7693 34.8872 66.2068 35.0284C63.7599 35.8194 61.088 37.3731 58.2474 39.6329C56.588 40.9606 55.3505 42.1753 54.5067 43.3053C54.0848 43.8702 53.7755 44.407 53.5505 44.9437C53.3255 45.4804 53.213 45.9889 53.213 46.4974C53.213 46.9211 53.2973 47.2601 53.438 47.5708C53.5505 47.7968 53.6911 47.9663 53.8317 48.1075C54.0567 48.3335 54.338 48.4465 54.5911 48.5313C54.8442 48.5878 55.0974 48.616 55.2942 48.616C55.913 48.616 56.3911 48.4183 56.7567 48.2488C58.613 47.3731 60.7224 46.1301 63.2537 44.407C63.7599 44.0397 64.2662 43.7007 64.7162 43.3618C63.9849 44.6894 63.4506 45.6499 63.1131 46.5821C62.7755 47.5143 62.6068 48.3618 62.5787 49.407C62.5787 49.4635 62.5787 49.5482 62.5787 49.6047C62.5787 50.3392 62.7474 51.0171 63.0568 51.5821C63.3943 52.1471 63.8724 52.5708 64.4912 52.8815C65.7006 53.5313 67.0225 53.8702 68.3444 53.8702C69.2162 53.8702 70.1444 53.7855 71.0725 53.503L72.0288 53.3053H72.085L72.1131 53.277C72.8725 52.938 73.4913 52.5426 73.9975 52.0906C74.5038 51.6103 74.8413 51.0736 75.0663 50.4522C75.1507 50.2544 75.2069 49.9719 75.2069 49.6894C75.1507 49.5482 75.1225 49.3222 75.0382 49.1245ZM57.7692 45.6216C57.6286 45.6781 57.488 45.7064 57.4599 45.7064C57.4036 45.7064 57.3755 45.7064 57.3474 45.7064C57.3474 45.7064 57.2911 45.6216 57.2911 45.3674C57.2911 45.1414 57.3474 44.9437 57.4036 44.7742C58.2193 43.3053 59.513 41.7233 61.313 40.1414C63.2256 38.4183 64.8287 37.4295 66.0381 37.2036C66.3475 37.1471 66.6006 37.1188 66.8537 37.1188C67.6693 37.1188 68.1475 37.4295 68.2037 37.6273C64.1537 41.4691 60.7505 44.0962 57.7692 45.6216ZM94.2196 34.181C94.1915 34.1527 94.1634 34.1245 94.1352 34.0962C93.9946 33.9832 93.7977 33.8137 93.5165 33.6442C93.3759 33.5595 93.2352 33.503 93.0665 33.4465C92.8977 33.39 92.729 33.3617 92.5321 33.3617C92.3633 33.3617 92.2227 33.39 92.054 33.4465C91.6321 33.616 91.2102 33.8985 90.5915 34.2657L90.1977 34.4917L90.1414 34.5199L90.0852 34.5764L89.8883 34.8024L89.8321 34.8589L89.8039 34.9154C89.5789 35.3956 89.4664 35.8476 89.3539 36.1301C89.3258 36.2149 89.2977 36.2996 89.2696 36.3844C89.2696 36.4126 89.2414 36.4409 89.2414 36.4691L89.1852 36.5256L85.0789 41.0736C84.207 42.0058 83.307 42.9663 82.4914 43.7572C81.6757 44.5482 80.9445 45.1979 80.382 45.5934V45.5651C80.6632 44.7459 81.1976 43.7007 81.957 42.4578C82.7164 41.2149 83.7289 39.8024 84.9945 38.2205L85.0226 38.1923L85.0508 38.164L85.107 38.0793C85.1351 38.051 85.1914 37.9663 85.2195 37.8533C85.2758 37.7403 85.3039 37.6273 85.3039 37.4578C85.3039 37.2318 85.2477 37.0058 85.1351 36.8363C85.0227 36.6386 84.882 36.4973 84.6851 36.3844C84.3758 36.1866 84.0101 36.1019 83.5883 36.1019C83.3351 36.1019 83.1101 36.1301 82.8851 36.2149C82.6882 36.2996 82.4914 36.4126 82.3507 36.5821C80.5788 38.5595 79.1445 40.3674 78.0757 42.0058C77.0069 43.6442 76.2757 45.1414 75.8819 46.4974C75.8538 46.6103 75.8257 46.7233 75.8257 46.8363C75.8257 47.1188 75.9382 47.3731 76.1069 47.599C76.3319 47.8815 76.6132 48.0793 76.9507 48.2205C77.2882 48.3618 77.6257 48.4748 77.9913 48.4748C78.132 48.4748 78.2726 48.503 78.3851 48.503C78.6663 48.503 78.9476 48.4748 79.1726 48.4183C79.3976 48.3618 79.5382 48.277 79.6788 48.2488C79.7632 48.2488 79.8476 48.2205 79.9038 48.2205H79.932H79.9601L80.9445 47.8533H81.0007L81.0851 47.7968C81.3382 47.6555 81.5632 47.5143 81.8164 47.3448C83.2789 46.3279 85.0226 44.8589 87.132 42.8533C88.7633 41.2996 90.0571 39.9437 91.0415 38.7855C91.3508 38.8985 91.6602 38.9832 92.054 39.068C92.1946 39.0962 92.3633 39.1245 92.5602 39.1245C92.7008 39.1245 92.8415 39.1245 92.9821 39.068C93.1227 39.0397 93.2634 38.9832 93.404 38.8702C93.5165 38.7855 93.629 38.7007 93.7415 38.5312C93.854 38.3618 93.9102 38.164 93.9102 37.9098C93.9102 37.712 93.854 37.5143 93.7415 37.3448C93.629 37.2036 93.4883 37.0623 93.3196 36.9776C93.2634 36.9493 93.2352 36.9211 93.2352 36.9211C93.2352 36.8646 93.2915 36.7798 93.3759 36.6103C93.5165 36.3844 93.7415 36.0454 94.1634 35.5651C94.2196 35.5086 94.2759 35.4521 94.304 35.3392C94.3602 35.2262 94.3884 35.0849 94.3884 34.9437C94.3884 34.8307 94.3602 34.6894 94.304 34.5764C94.3884 34.4069 94.3321 34.294 94.2196 34.181ZM111.517 35.1697C111.517 34.4069 111.207 33.6725 110.617 33.0793C109.998 32.4578 109.182 32.1471 108.31 32.1471C108.001 32.1471 107.663 32.2036 107.354 32.2883C106.342 32.6273 105.16 33.2205 103.923 34.0115C102.067 35.1979 100.098 36.8363 98.5509 38.7007C97.7915 39.6329 97.1165 40.6216 96.6103 41.6386C96.104 42.6555 95.7946 43.729 95.7384 44.8024C95.7384 44.8307 95.7384 44.8872 95.7384 44.9154C95.7384 45.4804 95.9071 46.0171 96.2446 46.5256C96.554 47.0341 97.0321 47.4861 97.5946 47.8815C98.5228 48.5313 99.6197 48.8702 100.604 48.8985C100.801 48.8985 100.97 48.8702 101.167 48.842C102.32 48.6725 103.529 48.3053 104.598 47.8533C105.667 47.4013 106.595 46.9211 107.185 46.5539C107.41 46.4409 107.607 46.2714 107.72 46.0736C107.832 45.8759 107.86 45.7064 107.86 45.5651C107.86 45.5369 107.86 45.5369 107.86 45.5087C107.86 45.3109 107.776 45.1132 107.663 44.9719C107.551 44.8307 107.382 44.7177 107.213 44.6329C107.045 44.5482 106.848 44.52 106.651 44.52C106.37 44.52 106.06 44.6047 105.807 44.7459C105.132 45.0567 104.232 45.3957 103.276 45.6781C102.348 45.9606 101.335 46.1866 100.492 46.2714C100.407 46.2714 100.323 46.2714 100.238 46.2714C100.042 46.2714 99.8165 46.2431 99.6478 46.2149C99.4509 46.1584 99.2822 46.1019 99.1697 46.0171C99.0572 45.9324 98.9728 45.8194 98.9165 45.6781C98.8603 45.5369 98.8322 45.3392 98.8322 45.0849C98.8322 45.0284 98.8322 44.9719 98.8322 44.9154C98.8884 44.0962 99.254 43.2205 99.7603 42.4013C100.238 41.6386 100.857 40.9041 101.448 40.2262C101.87 40.2262 102.32 40.2262 102.798 40.2262H102.854H102.91C103.107 40.1979 103.332 40.1697 103.557 40.1132C104.879 39.8024 106.201 39.4635 107.523 38.9267C108.451 38.5595 109.351 38.1075 110.223 37.6555L110.251 37.6273L110.279 37.599C110.617 37.3448 110.898 37.0341 111.123 36.7233C111.376 36.2149 111.517 35.6781 111.517 35.1697ZM108.676 35.5934C107.692 36.7798 105.273 37.7968 102.854 38.1075C104.71 36.5821 106.426 35.4239 107.86 34.7742C108.479 34.4917 108.901 34.5199 109.014 34.6047C109.126 34.7177 109.126 35.0567 108.676 35.5934Z" fill="white"/>
<path d="M68.2885 54.6328C66.8541 54.6328 65.4198 54.2656 64.0979 53.5594C63.3666 53.1922 62.776 52.6554 62.3822 51.9775C61.9885 51.2995 61.7916 50.5368 61.7916 49.6611C61.7916 49.5763 61.7916 49.5198 61.7916 49.4351C61.7916 49.4069 61.7916 49.4069 61.7916 49.3786C61.8478 48.2487 62.0166 47.3447 62.3822 46.3843C62.4666 46.13 62.5791 45.8475 62.7197 45.5933C60.4978 47.0622 58.6134 48.1639 56.954 48.9549C56.5884 49.1526 55.9978 49.4069 55.2103 49.4069C54.9009 49.4069 54.5915 49.3786 54.3384 49.2939C53.9446 49.1809 53.579 48.9831 53.2978 48.7289C53.0728 48.5311 52.8759 48.2487 52.7353 47.9662C52.5384 47.5707 52.454 47.1187 52.454 46.6102C52.454 46.017 52.5946 45.4238 52.8478 44.8023C53.0728 44.2091 53.4384 43.6441 53.8884 43.0227C54.7603 41.8645 55.9978 40.6215 57.7416 39.2374C57.7416 39.2374 57.7416 39.2374 57.7697 39.2374C60.6947 36.921 63.451 35.339 65.926 34.5198C65.9541 34.5198 65.9823 34.4916 65.9823 34.4916C66.5729 34.3221 67.3323 34.1526 68.176 34.1526C69.0479 34.1526 69.8354 34.3221 70.4823 34.4633H70.5948H70.6229H70.6511H70.7917C70.8761 34.4633 70.9323 34.4351 70.9323 34.4351C71.1854 34.2374 71.4104 34.1244 71.6917 34.0396C71.9167 33.9831 72.1136 33.9549 72.3386 33.9549C72.9292 33.9549 73.5198 34.2091 73.9136 34.6611C73.9136 34.6611 73.9136 34.6611 73.9417 34.6893C74.0542 34.8306 74.1386 34.9436 74.223 35.1131C74.3636 35.3955 74.448 35.678 74.448 35.9605C74.448 36.1865 74.4198 36.3842 74.3355 36.582C74.3355 36.6102 74.3073 36.6667 74.2792 36.695L74.1948 36.8362C74.1667 36.8645 74.1386 36.921 74.1105 36.9492L72.9011 38.4746C71.6917 39.9718 70.4823 41.469 69.3573 42.9662C68.2042 44.5481 67.501 45.6215 66.9948 46.6102C66.4885 47.6272 66.151 48.6159 65.8979 49.8588C65.8698 49.9718 65.8698 50.0848 65.8698 50.2261C65.8698 50.4238 65.926 50.4803 65.926 50.5086C65.9541 50.5368 65.9823 50.5933 66.1229 50.678C66.2354 50.7345 66.3479 50.7628 66.5166 50.8193C66.7698 50.8758 67.0791 50.904 67.4448 50.904C68.2885 50.904 69.1604 50.791 69.9479 50.565C70.2292 50.4803 70.5386 50.3956 70.8761 50.2543C71.3261 50.0566 71.7198 49.8306 72.0011 49.6328C72.2823 49.4351 72.423 49.2656 72.4792 49.1526C72.5636 48.9549 72.6479 48.7854 72.7605 48.6159C72.9573 48.3617 73.1823 48.1639 73.4636 48.0509C73.998 47.8249 74.6167 47.8814 75.0667 48.2204C75.3198 48.4182 75.5449 48.6724 75.6574 48.9831C75.7699 49.2656 75.8261 49.5481 75.8261 49.8588C75.8261 50.2543 75.7417 50.5933 75.6292 50.8475C75.3761 51.5537 74.9823 52.2035 74.3917 52.7402C73.8573 53.2487 73.1542 53.7006 72.3104 54.0679C72.2542 54.0961 72.1698 54.1244 72.1417 54.1244L71.1854 54.3221C70.3136 54.4916 69.3854 54.6328 68.2885 54.6328ZM63.1979 49.4916V49.6611C63.1979 50.2826 63.3385 50.8475 63.5916 51.2995C63.8447 51.7515 64.2385 52.0905 64.7166 52.3165C65.8979 52.9379 67.0791 53.2487 68.2885 53.2487C69.2729 53.2487 70.0604 53.1357 70.8198 52.9097C70.8479 52.9097 70.8761 52.9097 70.8761 52.8814L71.8042 52.6837C72.5073 52.373 73.0417 52.034 73.4636 51.6385C73.8855 51.243 74.1667 50.791 74.3355 50.2826C74.3355 50.2826 74.3355 50.2826 74.3355 50.2543C74.3917 50.0848 74.448 49.9153 74.448 49.7176C74.448 49.6046 74.4198 49.5198 74.3917 49.4069C74.3636 49.3221 74.3073 49.2656 74.2511 49.2091C74.1948 49.1809 74.0823 49.1244 73.998 49.1809C73.9417 49.2091 73.9136 49.2374 73.8573 49.3221C73.8011 49.3786 73.773 49.4634 73.7448 49.5763C73.7448 49.6046 73.7167 49.6328 73.6886 49.6893C73.4917 50.0283 73.2105 50.3391 72.8167 50.6498C72.4229 50.9323 71.9448 51.2148 71.3823 51.469C70.9886 51.6385 70.6229 51.7515 70.3136 51.8362C69.4135 52.0905 68.401 52.2317 67.4448 52.2317C66.9666 52.2317 66.5729 52.2035 66.2073 52.1187C65.926 52.0622 65.701 51.9775 65.476 51.8645C65.1385 51.695 64.9135 51.469 64.7447 51.1865C64.576 50.904 64.4916 50.565 64.4916 50.1978C64.4916 49.9718 64.4916 49.8023 64.5197 49.5763C64.801 48.1922 65.1385 47.0905 65.7291 45.9605C66.2635 44.9153 66.9948 43.7571 68.2323 42.1187C69.3573 40.6215 70.5948 39.0961 71.7761 37.6272L73.0417 36.0453C73.0417 36.0453 73.0417 36.017 73.0417 35.9888C73.0417 35.9323 73.0136 35.8758 72.9855 35.791C72.9573 35.7345 72.9011 35.678 72.873 35.6498C72.8448 35.6215 72.8448 35.6215 72.8167 35.5933C72.7042 35.4803 72.5073 35.3673 72.3104 35.3673C72.2261 35.3673 72.1136 35.3673 72.0292 35.3955C71.9167 35.4238 71.8604 35.452 71.8042 35.5085C71.7198 35.5933 71.5792 35.678 71.4104 35.7345C71.2698 35.791 71.1011 35.8475 70.9042 35.8758C70.8761 35.8758 70.8198 35.8758 70.7917 35.8758L70.5386 35.8475C70.5104 35.8475 70.5104 35.8475 70.4823 35.8475H70.3417C70.3136 35.8475 70.2573 35.8475 70.2292 35.8193C69.6385 35.678 68.9354 35.5368 68.176 35.5085C67.4729 35.5085 66.8541 35.6498 66.3198 35.791C63.9854 36.5537 61.3978 38.0509 58.5853 40.2826C56.954 41.6102 55.7728 42.7684 54.9853 43.8136C54.5915 44.3504 54.3103 44.8306 54.1134 45.3108C53.9165 45.7628 53.8321 46.2148 53.8321 46.6102C53.8321 46.921 53.8884 47.1752 53.9728 47.373C54.029 47.4859 54.1134 47.6272 54.2259 47.7119C54.3665 47.8249 54.5071 47.9097 54.704 47.9662C54.8728 48.0227 55.0415 48.0227 55.2103 48.0227C55.6884 48.0227 56.0822 47.8532 56.3634 47.7119C58.1916 46.8645 60.2728 45.6215 62.8041 43.8984C63.3104 43.5311 63.7885 43.1922 64.2666 42.8814C64.5197 42.6837 64.8854 42.7119 65.1385 42.9379C65.3916 43.1639 65.4479 43.5029 65.2791 43.7854C64.6041 45.0001 64.0697 45.9888 63.7322 46.8927C63.3666 47.7119 63.226 48.4746 63.1979 49.4916C63.1979 49.4634 63.1979 49.4634 63.1979 49.4916ZM34.7351 49.9153C33.6663 49.9153 32.6257 49.6611 31.7257 49.2091C30.8257 48.7571 30.0944 48.0792 29.6163 47.26C29.2788 46.695 29.0819 46.0453 29.0256 45.3956C28.9694 44.9153 28.9694 44.4916 28.9694 44.0114C28.9694 42.034 29.3632 39.9436 30.1507 37.7967L21.0099 46.356C20.7006 46.6385 20.3631 47.034 19.8849 47.5707L19.8287 47.6272C19.4631 48.0509 19.0412 48.5029 18.563 48.9831C18.338 49.2374 18.0287 49.4351 17.6912 49.5763C17.3818 49.6893 17.0162 49.7741 16.6505 49.7741C16.0318 49.7741 15.4974 49.6611 15.0755 49.4351C14.6255 49.2091 14.2599 48.8419 14.0349 48.4182C13.8943 48.1357 13.838 47.8532 13.838 47.5424C13.838 47.373 13.8661 47.1752 13.9224 47.0057C13.9505 46.8645 14.0068 46.7232 14.063 46.6385C14.063 46.6102 14.0911 46.5537 14.1193 46.5537L14.1755 46.4407C14.1755 46.4125 14.2036 46.356 14.2318 46.356C17.8037 41.243 20.7006 36.8927 22.7818 33.4181C24.5256 30.5368 25.7069 28.2204 26.3256 26.5255C26.7194 25.4238 26.7756 24.8306 26.7756 24.5763C26.7756 24.5198 26.7756 24.4633 26.7756 24.4068C26.7475 24.0961 26.6631 23.8701 26.5788 23.7006C26.4944 23.5594 26.41 23.4464 26.2412 23.3616C26.1287 23.3051 25.9881 23.2486 25.8194 23.1921C25.5662 23.1356 25.2287 23.0792 24.8631 23.0792C23.485 23.0792 21.8256 23.3899 19.9412 23.9831C18.0005 24.6046 15.7224 25.565 13.1911 26.808C10.688 28.0792 8.66295 29.3221 7.17231 30.5085C5.79417 31.6102 4.83791 32.6837 4.44416 33.6441C4.38791 33.7571 4.35978 33.8701 4.33166 33.9549C4.55666 34.0114 4.95041 34.0396 5.56917 34.0396C5.85042 34.0396 6.07543 34.0679 6.30043 34.0961C6.58168 34.1526 6.83481 34.2374 7.03168 34.3786C7.22856 34.4916 7.36919 34.6611 7.50981 34.8306C7.67857 35.0848 7.76294 35.3955 7.76294 35.7063C7.76294 36.017 7.67857 36.356 7.48169 36.6102C7.28481 36.8927 6.97543 37.147 6.60981 37.2882C6.41293 37.3729 6.18793 37.4294 5.9348 37.4577C4.55666 37.8532 3.3754 37.8249 2.30664 37.3729C1.94101 37.2317 1.57538 36.9775 1.266 36.6667C1.01288 36.3842 0.759749 36.0735 0.562872 35.7063C0.197243 35.0283 0.000366211 34.2374 0.000366211 33.5311C0.000366211 33.3899 0.000366211 33.2486 0.0284915 33.0792C0.0566168 32.8814 0.112867 32.7119 0.169118 32.5424C0.365995 31.8645 0.731623 31.1583 1.23788 30.4803C1.71601 29.8023 2.33476 29.1244 3.12227 28.4181C4.61291 27.0622 6.63793 25.678 9.28171 24.1526C14.3724 21.243 19.0693 19.5481 23.26 19.0678C23.5693 19.0396 23.8225 19.0396 24.1319 19.0114C25.6506 19.0114 27.085 19.4068 28.3788 20.1978C29.1663 20.6498 29.8132 21.2147 30.2632 21.8362C30.7413 22.5142 31.0225 23.2769 31.0507 24.0679C31.0507 24.1526 31.0507 24.2656 31.0507 24.3503C31.0507 25.5368 30.7694 26.9492 30.1507 28.6159C29.56 30.2261 28.7163 32.0622 27.5631 34.2374C27.3381 34.6611 27.1131 35.0848 26.86 35.4803L33.1601 29.6893C33.2163 29.6046 33.2726 29.5198 33.3569 29.4068C33.4694 29.2656 33.6101 29.0961 33.8069 28.8701C34.0882 28.4746 34.3976 28.1639 34.7632 27.9662C35.1851 27.7402 35.5507 27.6837 35.832 27.6837C35.9445 27.6837 36.0851 27.6837 36.1695 27.7119L36.3101 27.7402C36.3101 27.7402 36.3663 27.7402 36.3663 27.7684C36.9007 27.9097 37.3789 28.2204 37.8007 28.6724C38.1664 29.0396 38.4476 29.5198 38.6164 30.0001C38.757 30.339 38.8132 30.7063 38.8132 31.017C38.8132 31.1865 38.7851 31.3842 38.7289 31.582C38.6726 31.808 38.5882 32.0057 38.4757 32.1752C36.7882 34.7458 35.4663 37.1187 34.6788 39.0396C33.8632 41.1018 33.4413 43.1074 33.4132 45.1978C33.4132 45.3391 33.4413 45.4238 33.4694 45.4803C33.4976 45.565 33.5538 45.6215 33.6382 45.7063C33.7226 45.7628 33.8632 45.8475 34.0882 45.9323C34.3132 46.017 34.5945 46.0453 34.9038 46.0453C35.0163 46.0453 35.157 46.0453 35.2413 46.017C35.832 45.9605 36.6476 45.6498 37.5757 45.1413C38.6164 44.5763 39.882 43.7289 41.3164 42.6554C44.2414 40.452 46.7727 38.0227 48.854 35.3673C50.0071 33.8984 50.9071 32.4859 51.5259 31.2148C52.1165 30.0001 52.4259 28.8701 52.4821 27.9097V27.6837C52.4821 27.1187 52.4259 26.6102 52.3134 26.1865C52.229 25.791 52.0884 25.565 52.004 25.4238C51.8352 25.2543 51.6946 25.0848 51.5821 24.8871C51.4134 24.5763 51.329 24.2938 51.329 23.9831C51.329 23.7289 51.3852 23.4746 51.4977 23.2486C51.6102 23.0227 51.7509 22.8532 51.9196 22.6837C52.2571 22.4012 52.7071 22.2317 53.1571 22.2317C53.5509 22.2317 53.9446 22.3447 54.3103 22.5424C54.5915 22.7119 54.8165 22.9097 54.9853 23.0509C55.604 23.6159 56.0822 24.3503 56.3634 25.1978C56.6447 26.017 56.7853 26.921 56.7853 27.9662C56.7853 29.3221 56.4478 30.7345 55.7165 32.3164C55.0415 33.8136 54.029 35.3955 52.679 37.1752C50.4852 40.0566 47.7571 42.7402 44.3258 45.3673C44.3258 45.3673 44.2977 45.3673 44.2977 45.3956C42.6102 46.6667 41.1195 47.6554 39.7414 48.3617C38.307 49.1244 37.0414 49.5763 35.8601 49.8023C35.8601 49.8023 35.8038 49.8023 35.7757 49.8023H35.6632H35.6351C35.4382 49.8871 35.1007 49.9153 34.7351 49.9153ZM30.3757 45.2826C30.4319 45.7345 30.5725 46.1583 30.7975 46.5537C31.135 47.147 31.6694 47.6272 32.3444 47.9662C33.0476 48.3334 33.8632 48.5029 34.707 48.5029C34.9882 48.5029 35.2695 48.4746 35.5788 48.4464H35.607H35.6913C36.7038 48.2769 37.8289 47.8532 39.1226 47.147C40.4445 46.4407 41.8789 45.5085 43.5102 44.2939C46.8289 41.7515 49.5008 39.1526 51.6102 36.356C52.9321 34.6611 53.8603 33.1639 54.5071 31.7797C55.1259 30.3955 55.4353 29.1526 55.4353 28.0227C55.4353 27.1187 55.3228 26.356 55.0978 25.7063C54.8728 25.0848 54.5353 24.5481 54.0853 24.1244C53.9446 24.0114 53.804 23.8701 53.6634 23.7854C53.4946 23.7006 53.354 23.6441 53.1853 23.6441C53.0446 23.6441 52.9321 23.6724 52.8478 23.7571C52.8196 23.7854 52.7915 23.8419 52.7634 23.8701C52.7353 23.8984 52.7353 23.9549 52.7353 24.0114C52.7353 24.0679 52.7634 24.1526 52.8196 24.2373C52.8759 24.3221 52.9321 24.4068 53.0446 24.4916C53.0728 24.5198 53.1009 24.5481 53.129 24.5763C53.3821 24.9153 53.579 25.3673 53.7196 25.8758C53.8603 26.4125 53.9165 27.0057 53.9165 27.7119C53.9165 27.7967 53.9165 27.9097 53.9165 27.9944C53.8603 29.1809 53.4946 30.4803 52.8196 31.8645C52.1728 33.2487 51.2165 34.7176 49.979 36.2712C47.8415 39.0114 45.2258 41.5255 42.1883 43.8136C40.6695 44.9436 39.3476 45.8193 38.2789 46.4125C37.1539 47.0057 36.2257 47.373 35.4945 47.4294C35.3257 47.4577 35.0726 47.4577 34.8757 47.4577C34.482 47.4577 34.0882 47.4012 33.7507 47.2882C33.3851 47.1752 33.0757 47.0057 32.8226 46.808C32.5976 46.6102 32.4007 46.3843 32.2882 46.13C32.1757 45.8758 32.0913 45.5933 32.0913 45.2826C32.0913 45.2826 32.0913 45.2543 32.0913 45.2261C32.1194 42.9379 32.5976 40.7628 33.4694 38.5594C34.3132 36.5537 35.6632 34.0961 37.3789 31.4972C37.407 31.4407 37.4351 31.3842 37.4632 31.2712C37.4914 31.1865 37.4914 31.13 37.4914 31.0453C37.4914 30.8758 37.4632 30.7063 37.3789 30.5085C37.2664 30.1978 37.0695 29.9153 36.8445 29.6611C36.5913 29.4068 36.3382 29.2091 36.057 29.1526H36.0007C35.9726 29.1526 35.9726 29.1526 35.8882 29.1526C35.8038 29.1526 35.6351 29.1809 35.4945 29.2656C35.3257 29.3503 35.157 29.5198 34.9882 29.7458C34.9882 29.7741 34.9601 29.7741 34.9601 29.8023C34.7632 30.0283 34.6226 30.1978 34.5382 30.339C34.482 30.4238 34.4257 30.5085 34.3694 30.565C34.3413 30.6215 34.2851 30.678 34.257 30.7063L24.1881 39.9153C23.935 40.1413 23.5412 40.1696 23.2881 39.9436C23.035 39.7176 22.9787 39.3221 23.1475 39.0396C24.3006 37.26 25.3412 35.5085 26.3256 33.6724C27.4506 31.582 28.2663 29.8023 28.8288 28.2486C29.3632 26.7232 29.6444 25.4803 29.6444 24.4351C29.6444 24.3503 29.6444 24.2938 29.6444 24.2091C29.6163 23.6724 29.4475 23.1639 29.11 22.7119C28.7725 22.2317 28.2944 21.8362 27.6756 21.469C26.5788 20.791 25.3694 20.452 24.1037 20.452C23.8787 20.452 23.6256 20.452 23.4006 20.4803C19.3787 20.9323 14.8505 22.5989 9.92859 25.3955C7.36919 26.8645 5.42854 28.1922 4.02228 29.4916C3.31915 30.1131 2.75664 30.7345 2.33476 31.3277C1.91288 31.8927 1.63163 32.4859 1.46288 33.0227C1.46288 33.0509 1.43476 33.0792 1.43476 33.0792C1.40663 33.1639 1.3785 33.2487 1.3785 33.3051C1.3785 33.4181 1.3785 33.5029 1.3785 33.5876C1.3785 34.0679 1.51913 34.6328 1.80038 35.1131C1.94101 35.3673 2.08164 35.565 2.25039 35.7628C2.41914 35.9323 2.61602 36.0735 2.81289 36.1583C3.62853 36.4972 4.47228 36.4972 5.56917 36.1865C5.5973 36.1865 5.62542 36.1583 5.65355 36.1583C5.8223 36.13 5.96292 36.1018 6.0473 36.0453C6.1598 35.9888 6.24418 35.9323 6.30043 35.8758C6.32855 35.8193 6.32855 35.7628 6.32855 35.7628C6.32855 35.7063 6.32855 35.678 6.30043 35.6498C6.2723 35.6215 6.2723 35.5933 6.24418 35.5933C6.18793 35.565 6.10355 35.5368 5.99105 35.5085C5.87855 35.4803 5.7098 35.4803 5.54105 35.4803C4.89416 35.4803 4.33166 35.4238 3.90978 35.339C3.6004 35.2825 3.43165 35.1978 3.31915 35.1413C3.29102 35.1131 3.23477 35.0848 3.20665 35.0566C3.17852 35.0566 3.1504 35.0001 3.1504 35.0001C3.09415 34.9436 3.0379 34.8588 2.95352 34.7176C2.89727 34.5481 2.86914 34.4068 2.86914 34.2091C2.86914 33.8984 2.95352 33.5594 3.12227 33.1357C3.62853 31.9492 4.69729 30.7345 6.2723 29.4633C7.81919 28.2204 9.92859 26.921 12.488 25.6215H12.5161C15.1318 24.3221 17.4662 23.3334 19.4912 22.6837C21.5162 22.034 23.3162 21.7232 24.835 21.7232C25.3412 21.7232 25.7631 21.7797 26.1569 21.8645C26.4381 21.9492 26.7194 22.034 26.9444 22.1752C27.2819 22.3729 27.5631 22.6554 27.76 22.9944C27.9569 23.3334 28.0694 23.7289 28.1256 24.2091C28.1256 24.2938 28.1538 24.4351 28.1538 24.5481C28.1538 25.1695 27.985 25.9888 27.6194 26.9775C26.9725 28.7571 25.735 31.1583 23.9631 34.1244C21.8537 37.6272 18.9568 41.9775 15.3286 47.0622L15.3005 47.147C15.3005 47.1752 15.2724 47.2317 15.2443 47.3165C15.2161 47.4012 15.2161 47.4577 15.2161 47.5142C15.2161 47.5989 15.2443 47.7119 15.2724 47.7967C15.3568 47.9379 15.4974 48.0792 15.6661 48.1639C15.9193 48.2769 16.2286 48.3617 16.6224 48.3617C16.8193 48.3617 16.988 48.3334 17.1568 48.2769C17.2974 48.2204 17.438 48.1357 17.5224 48.0227C17.9724 47.5424 18.3943 47.0905 18.7599 46.6667C19.2099 46.1583 19.6318 45.678 19.9974 45.3391L31.5851 34.4633C31.8382 34.2374 32.2038 34.2091 32.4851 34.4068C32.7663 34.6046 32.8226 34.9718 32.6819 35.2826C31.1069 38.3616 30.2913 41.2995 30.2913 43.9831C30.3475 44.4633 30.3475 44.8306 30.3757 45.2826ZM100.548 49.5198C99.3951 49.5198 98.1857 49.1244 97.1451 48.3899C96.4982 47.9379 95.9919 47.4295 95.5982 46.8362C95.2044 46.2148 94.9794 45.5368 94.9794 44.8588C94.9794 44.8023 94.9794 44.7458 94.9794 44.6893C94.9794 44.6611 94.9794 44.6328 94.9794 44.6328C95.0638 43.5311 95.3732 42.4012 95.9076 41.2713C96.3857 40.2543 97.0888 39.2091 97.9326 38.1922C99.3951 36.4125 101.364 34.7176 103.473 33.3899C104.767 32.5707 106.005 31.9492 107.073 31.6102C107.101 31.6102 107.13 31.582 107.13 31.582C107.495 31.469 107.889 31.4407 108.255 31.4407C109.323 31.4407 110.308 31.8362 111.039 32.5707C111.742 33.2769 112.136 34.2091 112.136 35.1696C112.136 35.8475 111.939 36.4972 111.545 37.0622C111.292 37.4294 110.983 37.7684 110.561 38.0792C110.533 38.1074 110.448 38.1639 110.42 38.1639C109.295 38.7571 108.451 39.1809 107.608 39.4916C106.286 40.0283 104.936 40.3673 103.558 40.7063C103.389 40.7345 103.248 40.7628 103.108 40.791C103.023 40.791 102.939 40.8193 102.883 40.8193C102.826 40.8193 102.742 40.8475 102.686 40.8475H101.589C100.998 41.5255 100.52 42.1187 100.183 42.6837C99.6763 43.5029 99.3951 44.2374 99.3388 44.8871C99.3388 44.9153 99.3388 44.9718 99.3388 45.0001C99.3388 45.1978 99.367 45.3108 99.3951 45.3391C99.4232 45.3673 99.4232 45.3956 99.4232 45.3956C99.4232 45.3956 99.5076 45.452 99.6201 45.4803C99.7326 45.5085 99.9295 45.5368 100.07 45.5368C100.154 45.5368 100.211 45.5368 100.295 45.5368C101.026 45.452 101.954 45.2543 102.939 44.9718C103.811 44.7176 104.683 44.3786 105.386 44.0679C106.005 43.7571 106.736 43.7006 107.355 43.9549C107.636 44.0679 107.889 44.2656 108.086 44.4916C108.311 44.7458 108.423 45.0848 108.451 45.4238V45.5085C108.451 45.8193 108.367 46.13 108.198 46.3843C108.03 46.6667 107.748 46.921 107.411 47.0905C107.073 47.2882 106.117 47.8532 104.767 48.4182C103.445 48.9549 102.236 49.3221 101.139 49.4634C100.998 49.5198 100.773 49.5198 100.548 49.5198ZM96.3857 44.8023V44.8871C96.3857 45.2826 96.5263 45.7345 96.7794 46.13C97.0607 46.5537 97.4263 46.9492 97.9326 47.2882C98.7482 47.8532 99.7045 48.1639 100.548 48.1639C100.689 48.1639 100.858 48.1639 100.998 48.1357C101.983 47.9944 103.079 47.6837 104.289 47.1752C105.555 46.6667 106.455 46.13 106.792 45.9323C106.989 45.8193 107.045 45.7345 107.073 45.7063C107.13 45.6215 107.13 45.565 107.13 45.565C107.13 45.5085 107.101 45.452 107.073 45.4238C107.017 45.3673 106.961 45.3108 106.905 45.2826C106.68 45.1978 106.342 45.2261 106.061 45.3673C105.273 45.7063 104.345 46.0453 103.417 46.3278C102.686 46.5537 101.561 46.8362 100.52 46.9492C100.379 46.9492 100.295 46.9775 100.183 46.9492C99.9857 46.9492 99.7045 46.9492 99.4232 46.8645C99.142 46.808 98.8888 46.695 98.6919 46.5255C98.4951 46.356 98.3263 46.1583 98.2138 45.904C98.1013 45.6498 98.0732 45.3673 98.0732 45.0283C98.0732 44.9718 98.0732 44.8871 98.0732 44.8023C98.1294 43.9266 98.4951 42.9662 99.1138 41.9775C99.5357 41.2995 100.126 40.5368 100.886 39.7176C101.026 39.5763 101.195 39.4916 101.392 39.4916H102.714C102.826 39.4633 102.911 39.4633 102.995 39.4351C103.108 39.4068 103.22 39.4068 103.333 39.3786C104.655 39.0679 105.948 38.7289 107.186 38.2204C107.973 37.9097 108.761 37.5142 109.801 36.9775C110.111 36.7232 110.308 36.4972 110.476 36.2712C110.73 35.9323 110.842 35.565 110.842 35.1696C110.842 34.6046 110.589 34.0114 110.139 33.5594C109.661 33.0792 109.014 32.8249 108.311 32.8249C108.058 32.8249 107.776 32.8532 107.523 32.9379C106.567 33.2486 105.442 33.8136 104.261 34.5763C102.292 35.8475 100.436 37.4577 99.0576 39.1244C98.2701 40.0566 97.6513 41.017 97.2013 41.921C96.7232 42.9097 96.4419 43.8701 96.3857 44.8023ZM78.4418 49.1809C78.3011 49.1809 78.1324 49.1809 77.9917 49.1526C77.5699 49.1244 77.1199 49.0114 76.698 48.8136C76.248 48.5876 75.8542 48.3334 75.6011 47.9944C75.3198 47.6272 75.1792 47.2317 75.1792 46.808C75.1792 46.6385 75.2074 46.469 75.2636 46.2995V46.2713C75.6574 44.8306 76.4167 43.3052 77.5417 41.582C78.6386 39.9153 80.0449 38.1074 81.873 36.0735C82.0699 35.8475 82.3512 35.6498 82.6887 35.5085C82.9699 35.3955 83.2793 35.339 83.6168 35.339C84.1793 35.339 84.6574 35.452 85.0512 35.7063C85.0512 35.7063 85.0793 35.7063 85.0793 35.7345C85.3606 35.904 85.5856 36.1583 85.7543 36.4407C85.9231 36.7232 86.0075 37.0622 86.0075 37.4012C86.0075 37.6272 85.9512 37.8814 85.8668 38.0792C85.8106 38.2204 85.7262 38.3334 85.6981 38.3899L85.67 38.4464C85.6418 38.4746 85.6137 38.5311 85.6137 38.5594C84.4606 40.0283 83.5043 41.356 82.773 42.5142C83.4481 41.8362 84.0949 41.13 84.6293 40.565L88.6794 36.0735C88.7075 36.017 88.7075 35.9605 88.7356 35.904V35.8758C88.82 35.5933 88.9606 35.1131 89.1856 34.6046L89.2137 34.5198C89.2419 34.4633 89.2981 34.3786 89.3262 34.3503L89.5794 34.0679L89.6356 34.0114C89.6919 33.9549 89.72 33.9266 89.7762 33.8984L89.8325 33.8701L90.2262 33.6441C90.8731 33.2486 91.3231 32.9944 91.745 32.7967C92.0263 32.6837 92.2513 32.6272 92.5325 32.6272C92.7856 32.6272 93.0107 32.6554 93.2919 32.7684C93.4888 32.8249 93.6857 32.9097 93.8544 33.0227C94.22 33.2204 94.4732 33.4464 94.6138 33.5594C94.67 33.6159 94.6982 33.6441 94.7544 33.7006C94.895 33.8701 95.0075 34.0396 95.0919 34.2374C95.1763 34.4351 95.2325 34.6611 95.2325 34.8871C95.2325 35.1131 95.1763 35.3673 95.0638 35.5933C95.0075 35.7345 94.9232 35.8475 94.8107 35.9605C94.5294 36.2713 94.3607 36.4972 94.2482 36.6667C94.3325 36.7515 94.3888 36.808 94.445 36.8927C94.6419 37.1752 94.7263 37.5142 94.7263 37.8532C94.7263 38.1922 94.6419 38.5594 94.445 38.8419C94.3044 39.0679 94.1357 39.2374 93.9107 39.3786C93.7138 39.5198 93.4888 39.6046 93.2638 39.6611C92.87 39.7458 92.3919 39.7176 92.0825 39.6611C92.0544 39.6611 92.0263 39.6611 91.9981 39.6611C91.745 39.6046 91.5481 39.5481 91.3512 39.4916C90.395 40.5933 89.1575 41.8645 87.695 43.2769C85.5574 45.3108 83.7856 46.808 82.2949 47.8532C82.0418 48.0227 81.7887 48.2204 81.5074 48.3617L81.423 48.4182C81.3668 48.4464 81.2824 48.4746 81.198 48.5029L80.298 48.8419C80.2699 48.8419 80.2136 48.8701 80.1574 48.8701C80.073 48.8984 79.9886 48.8984 79.9324 48.8984C79.7918 48.9549 79.6511 49.0114 79.4543 49.0679C79.1449 49.1526 78.8074 49.1809 78.4418 49.1809ZM76.5855 46.6102C76.5855 46.6385 76.5855 46.6667 76.5574 46.695C76.5292 46.7515 76.5292 46.7797 76.5292 46.808C76.5292 46.921 76.5855 47.034 76.6699 47.147C76.8105 47.3165 77.0074 47.4577 77.2605 47.5707C77.5136 47.6837 77.7949 47.7684 78.048 47.7684C78.5261 47.7967 78.8074 47.7684 79.0324 47.7119C79.2011 47.6554 79.3418 47.5989 79.4543 47.5707C79.5105 47.5424 79.5949 47.5142 79.6511 47.5142C79.7074 47.5142 79.7636 47.486 79.8199 47.486L80.7762 47.1187C80.8043 47.1187 80.8324 47.0905 80.8324 47.0905C81.0574 46.9775 81.2543 46.8362 81.4512 46.695C82.9137 45.678 84.6293 44.2374 86.7106 42.2317C88.3137 40.7063 89.6075 39.3503 90.5919 38.2204C90.7887 37.9944 91.0981 37.9097 91.3512 38.0227C91.5763 38.1074 91.8575 38.1922 92.2794 38.2769C92.4481 38.3052 92.7013 38.3334 92.8981 38.2769C92.9825 38.2487 93.0388 38.2204 93.1232 38.1922C93.1794 38.1639 93.2356 38.1074 93.2638 38.0509C93.2919 38.0227 93.32 37.9379 93.32 37.8249C93.32 37.7684 93.2919 37.6837 93.2638 37.6554C93.2356 37.5989 93.1794 37.5424 93.095 37.5142C92.9825 37.4577 92.9263 37.4012 92.8981 37.3729C92.7013 37.2035 92.5888 36.921 92.6731 36.6667C92.7013 36.5255 92.7857 36.356 92.87 36.1865C93.0388 35.8758 93.2919 35.5085 93.6575 35.1131C93.545 35.0848 93.4325 35.0001 93.3482 34.9153C93.2356 34.7741 93.1794 34.6046 93.1794 34.4633C93.1794 34.4068 93.1794 34.3221 93.2075 34.2656C93.1794 34.2656 93.1794 34.2374 93.1513 34.2374C93.0388 34.1809 92.9263 34.1244 92.8138 34.0961C92.7013 34.0679 92.5888 34.0396 92.5044 34.0396C92.42 34.0679 92.3356 34.0396 92.2794 34.0679C91.9138 34.2374 91.52 34.4633 90.9294 34.8306L90.5075 35.0848L90.3669 35.2543C90.17 35.678 90.0575 36.0735 89.9731 36.356C89.9731 36.356 89.9731 36.356 89.9731 36.3842C89.945 36.469 89.9169 36.5537 89.8887 36.6385L89.8606 36.7232C89.8325 36.808 89.7762 36.8927 89.72 36.9492L85.6137 41.5255C84.5168 42.7119 83.7012 43.5594 82.9981 44.2374C82.098 45.1131 81.3387 45.7628 80.7762 46.13C80.523 46.2995 80.2136 46.2995 79.9886 46.1018C79.7636 45.9323 79.6511 45.6215 79.7355 45.3673C79.7355 45.3673 79.7636 45.3108 79.7636 45.2826C80.073 44.3786 80.6355 43.3052 81.423 42.034C82.2105 40.791 83.2512 39.3221 84.4887 37.7402L84.5168 37.6837C84.5168 37.6837 84.5449 37.6554 84.5449 37.6272C84.5731 37.5989 84.6012 37.5707 84.6293 37.5142C84.6293 37.4859 84.6574 37.4577 84.6574 37.4012C84.6574 37.2882 84.6293 37.2035 84.5731 37.1187C84.5168 37.034 84.4606 36.9492 84.3481 36.8927C84.3199 36.8927 84.3199 36.8645 84.2918 36.8645C84.1231 36.7797 83.8981 36.7232 83.6168 36.7232C83.4481 36.7232 83.3074 36.7515 83.1668 36.808C83.0543 36.8362 82.9699 36.921 82.9137 36.9775C81.1137 38.9549 79.7636 40.7063 78.6949 42.3165C77.6542 43.9266 76.9792 45.3108 76.5855 46.6102ZM57.4603 46.4125C57.3197 46.4125 57.2072 46.3843 57.1228 46.356C57.0103 46.3278 56.8978 46.243 56.8134 46.1583C56.6728 45.9888 56.5884 45.7063 56.5884 45.3673C56.5884 45.0566 56.6447 44.7458 56.7853 44.4916C57.6572 42.9097 59.0072 41.2713 60.8635 39.6328C62.9166 37.8249 64.5479 36.7797 65.8979 36.5255C66.2354 36.469 66.5448 36.4125 66.8541 36.4125C67.8667 36.4125 68.6823 36.808 68.851 37.4012C68.9354 37.6554 68.851 37.9379 68.6823 38.1074C64.6041 42.0057 61.1447 44.6611 58.1072 46.2148C58.1072 46.2148 58.1072 46.2148 58.0791 46.2148C57.8541 46.356 57.6291 46.4125 57.4603 46.4125ZM66.826 37.7967C66.601 37.7967 66.4041 37.8249 66.1229 37.8814C65.3635 38.0227 63.9854 38.6441 61.7072 40.678C60.2166 42.0057 59.0916 43.3052 58.3041 44.5198C60.8353 43.0792 63.676 40.8758 66.9385 37.8249C66.9385 37.7967 66.8823 37.7967 66.826 37.7967ZM102.854 38.8136C102.573 38.8136 102.32 38.6441 102.208 38.3899C102.095 38.1074 102.179 37.7684 102.404 37.5707C104.317 35.9888 106.061 34.8306 107.551 34.1526C107.861 34.0114 108.901 33.6159 109.464 34.0961C109.83 34.4068 109.97 35.1131 109.211 36.0453C108.142 37.3447 105.611 38.4464 102.939 38.8136C102.911 38.8136 102.883 38.8136 102.854 38.8136ZM107.58 35.678C107.186 35.8758 106.764 36.13 106.314 36.4125C106.792 36.1865 107.242 35.9323 107.58 35.678Z" fill="white"/>
<path d="M55.1541 32.0622C55.8291 30.6215 56.1666 29.2656 56.1666 27.9944C56.1666 27.0339 56.0541 26.1865 55.7728 25.452C55.5197 24.7176 55.0978 24.0961 54.5635 23.5876C54.4228 23.4464 54.226 23.2769 54.001 23.1639C53.776 23.0226 53.4947 22.9379 53.1853 22.9379C52.8759 22.9379 52.5947 23.0509 52.3978 23.2204C52.2853 23.3051 52.2009 23.4181 52.1447 23.5594C52.0884 23.7006 52.0322 23.8418 52.0322 23.9831C52.0322 24.1808 52.0884 24.3786 52.2009 24.5481C52.2853 24.7176 52.3978 24.8305 52.5384 24.9718C52.7353 25.226 52.9041 25.565 52.9884 26.017C53.1009 26.469 53.1572 27.0339 53.1572 27.6837C53.1572 27.7684 53.1572 27.8531 53.1572 27.9661C53.1009 29.0396 52.7634 30.226 52.1447 31.5537C51.5259 32.8814 50.5978 34.2938 49.3884 35.8475C47.279 38.5311 44.6915 41.017 41.7383 43.2486C40.2477 44.3786 38.9539 45.226 37.9133 45.791C36.8445 46.3842 36.0008 46.6667 35.382 46.7515C35.2414 46.7797 35.0164 46.7797 34.8476 46.7797C34.5101 46.7797 34.2008 46.7232 33.9195 46.6385C33.6383 46.5537 33.4132 46.4407 33.2445 46.2995C33.0757 46.1582 32.9632 46.017 32.8789 45.8475C32.7945 45.678 32.7664 45.5085 32.7664 45.2825V45.226C32.7945 43.0509 33.2445 40.9605 34.0883 38.8136C34.9039 36.8645 36.2258 34.4633 37.9133 31.8645C37.9977 31.7232 38.0539 31.582 38.082 31.4407C38.1102 31.2995 38.1383 31.1865 38.1383 31.0452C38.1383 30.791 38.082 30.5085 37.9977 30.2543C37.857 29.8588 37.632 29.4916 37.3227 29.1808C37.0133 28.8701 36.6477 28.5876 36.2258 28.4746L36.1414 28.4464C36.0852 28.4464 36.0008 28.4181 35.9164 28.4181C35.6914 28.4181 35.4383 28.4746 35.1851 28.6159C34.932 28.7571 34.6789 28.9831 34.4539 29.3221C34.257 29.5481 34.1164 29.7176 34.0039 29.8871C33.9195 30 33.8351 30.0848 33.7789 30.1978L26.4663 36.921L23.7944 39.3786C24.9757 37.5989 26.0163 35.791 27.0007 33.9831C28.1257 31.8645 28.9695 30.0565 29.532 28.4746C30.0945 26.8927 30.3757 25.565 30.3757 24.4351C30.3757 24.3503 30.3757 24.2656 30.3757 24.1808C30.3476 23.5029 30.1226 22.8814 29.7288 22.3164C29.3351 21.7515 28.7726 21.2712 28.0694 20.8757C26.8882 20.1413 25.5663 19.774 24.16 19.774C23.9069 19.774 23.6538 19.774 23.3725 19.8023C19.2662 20.2543 14.6537 21.9492 9.64739 24.8023C7.03174 26.2712 5.03484 27.6272 3.57233 28.9548C2.84107 29.6046 2.25044 30.2543 1.80044 30.904C1.35043 31.5255 1.01293 32.1752 0.844179 32.7967C0.787928 32.9379 0.759803 33.0791 0.731677 33.2204C0.703552 33.3616 0.703552 33.4746 0.703552 33.5876C0.703552 34.2091 0.872304 34.8588 1.18168 35.452C1.35043 35.7345 1.51919 36.017 1.74419 36.243C1.96919 36.469 2.22232 36.6667 2.5317 36.808C3.00982 37.0057 3.54421 37.1187 4.10671 37.1187C4.61297 37.1187 5.17547 37.0339 5.73798 36.8645C5.96298 36.8362 6.13173 36.7797 6.30048 36.7232C6.55361 36.6102 6.75049 36.469 6.86299 36.2995C6.97549 36.13 7.03174 35.9323 7.03174 35.791C7.03174 35.6215 6.97549 35.452 6.89111 35.3108C6.83486 35.1978 6.72236 35.113 6.63799 35.0565C6.49736 34.9436 6.32861 34.8871 6.13173 34.8588C5.96298 34.8306 5.7661 34.8023 5.5411 34.8023C4.83797 34.8023 4.35984 34.7458 4.07859 34.6611C3.82546 34.6046 3.71296 34.5481 3.68483 34.5198L3.65671 34.4916C3.62858 34.4633 3.62858 34.4633 3.60046 34.4068C3.57233 34.3786 3.57233 34.2938 3.57233 34.1808C3.57233 34.0113 3.62858 33.7571 3.76921 33.3899C4.21921 32.3447 5.2036 31.2147 6.72236 30C8.24113 28.7854 10.2943 27.5142 12.8537 26.2147C15.4412 24.9153 17.7475 23.9548 19.7444 23.3334C21.7413 22.7119 23.4569 22.4012 24.8632 22.4012C25.3132 22.4012 25.6788 22.4577 25.9882 22.5142C26.2132 22.5707 26.4101 22.6554 26.5788 22.7684C26.8319 22.9096 27.0007 23.1074 27.1413 23.3616C27.2819 23.6159 27.3944 23.9266 27.4226 24.3221C27.4226 24.4068 27.4507 24.4916 27.4507 24.5763C27.4507 25.0283 27.3101 25.7345 26.9444 26.7797C26.3819 28.3334 25.285 30.565 23.3444 33.8136C21.4038 37.0339 18.6475 41.243 14.7099 46.7232L14.6818 46.7515V46.7797L14.6256 46.8645V46.8927V46.921C14.5974 47.0057 14.5693 47.0905 14.5412 47.2034C14.5131 47.3164 14.4849 47.4294 14.4849 47.5707C14.4849 47.7684 14.5131 47.9662 14.6256 48.1356C14.7662 48.4181 15.0193 48.6724 15.3568 48.8419C15.6943 49.0114 16.1162 49.0961 16.6225 49.0961C16.9037 49.0961 17.1568 49.0396 17.41 48.9549C17.6631 48.8701 17.86 48.7289 18.0287 48.5311C18.5069 48.0227 18.9287 47.5424 19.3225 47.1187C19.7725 46.6102 20.1662 46.1865 20.5037 45.8758L32.0914 35.0283C30.4601 38.1921 29.6445 41.2147 29.6445 44.0396C29.6445 44.5198 29.6445 44.9153 29.7007 45.3955C29.757 45.9605 29.9257 46.4972 30.207 46.9775C30.6288 47.6837 31.2476 48.2769 32.0351 48.6724C32.8226 49.0679 33.7226 49.2938 34.7351 49.2938C35.0726 49.2938 35.382 49.2656 35.6914 49.2373H35.8039H35.832H35.8601C36.957 49.0396 38.1945 48.5876 39.5164 47.8814C40.8664 47.1752 42.3571 46.1865 43.9884 44.9436C47.3634 42.3729 50.0634 39.7176 52.2291 36.8645C53.4947 35.0848 54.4791 33.5311 55.1541 32.0622ZM75.0387 49.1243C74.9543 48.9266 74.8137 48.7571 74.673 48.6441C74.5043 48.5311 74.3074 48.4464 74.1105 48.4464C73.998 48.4464 73.8574 48.4746 73.7449 48.5311C73.5761 48.6159 73.4355 48.7289 73.323 48.8701C73.2386 49.0114 73.1543 49.1526 73.098 49.2938C72.9574 49.5198 72.7324 49.7741 72.423 50.0283C72.0855 50.2825 71.6636 50.5368 71.1292 50.7628C70.7636 50.904 70.4542 51.017 70.1449 51.1018C69.3011 51.3277 68.3448 51.469 67.4448 51.469C67.023 51.469 66.6573 51.4407 66.3761 51.356C66.1511 51.2995 65.9542 51.243 65.8136 51.1583C65.5886 51.0453 65.4479 50.904 65.3354 50.7345C65.2511 50.565 65.1948 50.3673 65.1948 50.0848C65.1948 49.8871 65.1948 49.7458 65.2229 49.5763C65.4761 48.2769 65.8136 47.2317 66.3761 46.1582C66.9386 45.0566 67.698 43.8984 68.7949 42.4012C69.9199 40.904 71.1574 39.3786 72.3386 37.9097L73.548 36.4125L73.5761 36.3842L73.6043 36.356L73.6605 36.243L73.6886 36.2147V36.1865C73.7449 36.0735 73.7449 35.9605 73.7449 35.8475C73.7449 35.6215 73.6887 35.452 73.6043 35.339C73.5199 35.1978 73.4636 35.113 73.4074 35.0565C73.1261 34.7458 72.7324 34.5763 72.3386 34.5763C72.198 34.5763 72.0293 34.6046 71.8886 34.6328C71.7199 34.6893 71.5511 34.7458 71.4105 34.8588C71.3542 34.8871 71.298 34.9436 71.2136 34.9718C71.1292 35 71.0167 35.0283 70.848 35.0565C70.8199 35.0565 70.7917 35.0565 70.7636 35.0565C70.7074 35.0565 70.623 35.0565 70.5667 35.0283H70.4261C69.7792 34.8588 69.0199 34.7176 68.2323 34.7176C67.4448 34.7176 66.7698 34.8871 66.2073 35.0283C63.7604 35.8193 61.0885 37.3729 58.2479 39.6328C56.5885 40.9605 55.351 42.1752 54.5072 43.3051C54.0853 43.8701 53.7759 44.4068 53.5509 44.9436C53.3259 45.4803 53.2134 45.9888 53.2134 46.4972C53.2134 46.921 53.2978 47.2599 53.4384 47.5707C53.5509 47.7967 53.6916 47.9662 53.8322 48.1074C54.0572 48.3334 54.3385 48.4464 54.5916 48.5311C54.8447 48.5876 55.0978 48.6159 55.2947 48.6159C55.9135 48.6159 56.3916 48.4181 56.7572 48.2486C58.6135 47.3729 60.7229 46.13 63.2542 44.4068C63.7604 44.0396 64.2667 43.7006 64.7167 43.3616C63.9854 44.6893 63.451 45.6498 63.1135 46.582C62.776 47.5142 62.6073 48.3616 62.5792 49.4068C62.5792 49.4633 62.5792 49.5481 62.5792 49.6046C62.5792 50.339 62.7479 51.017 63.0573 51.582C63.3948 52.147 63.8729 52.5707 64.4917 52.8814C65.7011 53.5311 67.023 53.8701 68.3448 53.8701C69.2167 53.8701 70.1449 53.7854 71.073 53.5029L72.0293 53.3051H72.0855L72.1136 53.2769C72.873 52.9379 73.4918 52.5424 73.998 52.0905C74.5043 51.6102 74.8418 51.0735 75.0668 50.452C75.1512 50.2543 75.2074 49.9718 75.2074 49.6893C75.1512 49.5481 75.123 49.3221 75.0387 49.1243ZM57.7697 45.6215C57.6291 45.678 57.4885 45.7063 57.4604 45.7063C57.4041 45.7063 57.376 45.7063 57.3479 45.7063C57.3479 45.7063 57.2916 45.6215 57.2916 45.3673C57.2916 45.1413 57.3479 44.9436 57.4041 44.7741C58.2197 43.3051 59.5135 41.7232 61.3135 40.1413C63.226 38.4181 64.8292 37.4294 66.0386 37.2034C66.348 37.1469 66.6011 37.1187 66.8542 37.1187C67.6698 37.1187 68.148 37.4294 68.2042 37.6272C64.1542 41.469 60.751 44.0961 57.7697 45.6215ZM94.2201 34.1808C94.192 34.1526 94.1638 34.1243 94.1357 34.0961C93.9951 33.9831 93.7982 33.8136 93.517 33.6441C93.3763 33.5594 93.2357 33.5029 93.067 33.4464C92.8982 33.3899 92.7295 33.3616 92.5326 33.3616C92.3638 33.3616 92.2232 33.3899 92.0545 33.4464C91.6326 33.6159 91.2107 33.8984 90.5919 34.2656L90.1982 34.4916L90.1419 34.5198L90.0857 34.5763L89.8888 34.8023L89.8326 34.8588L89.8044 34.9153C89.5794 35.3955 89.4669 35.8475 89.3544 36.13C89.3263 36.2147 89.2982 36.2995 89.2701 36.3842C89.2701 36.4125 89.2419 36.4407 89.2419 36.469L89.1857 36.5255L85.0794 41.0735C84.2075 42.0057 83.3075 42.9662 82.4919 43.7571C81.6762 44.5481 80.945 45.1978 80.3825 45.5933V45.565C80.6637 44.7458 81.1981 43.7006 81.9575 42.4577C82.7169 41.2147 83.7294 39.8023 84.995 38.2204L85.0231 38.1921L85.0513 38.1639L85.1075 38.0791C85.1356 38.0509 85.1919 37.9662 85.22 37.8532C85.2763 37.7402 85.3044 37.6272 85.3044 37.4577C85.3044 37.2317 85.2481 37.0057 85.1356 36.8362C85.0231 36.6385 84.8825 36.4972 84.6856 36.3842C84.3763 36.1865 84.0106 36.1017 83.5887 36.1017C83.3356 36.1017 83.1106 36.13 82.8856 36.2147C82.6887 36.2995 82.4919 36.4125 82.3512 36.582C80.5793 38.5594 79.145 40.3673 78.0762 42.0057C77.0074 43.6441 76.2762 45.1413 75.8824 46.4972C75.8543 46.6102 75.8262 46.7232 75.8262 46.8362C75.8262 47.1187 75.9387 47.3729 76.1074 47.5989C76.3324 47.8814 76.6137 48.0792 76.9512 48.2204C77.2887 48.3616 77.6262 48.4746 77.9918 48.4746C78.1324 48.4746 78.2731 48.5029 78.3856 48.5029C78.6668 48.5029 78.9481 48.4746 79.1731 48.4181C79.3981 48.3616 79.5387 48.2769 79.6793 48.2486C79.7637 48.2486 79.8481 48.2204 79.9043 48.2204H79.9325H79.9606L80.945 47.8532H81.0012L81.0856 47.7967C81.3387 47.6554 81.5637 47.5142 81.8168 47.3447C83.2794 46.3277 85.0231 44.8588 87.1325 42.8532C88.7638 41.2995 90.0576 39.9436 91.0419 38.7854C91.3513 38.8984 91.6607 38.9831 92.0545 39.0678C92.1951 39.0961 92.3638 39.1243 92.5607 39.1243C92.7013 39.1243 92.842 39.1243 92.9826 39.0678C93.1232 39.0396 93.2638 38.9831 93.4045 38.8701C93.517 38.7854 93.6295 38.7006 93.742 38.5311C93.8545 38.3616 93.9107 38.1639 93.9107 37.9097C93.9107 37.7119 93.8545 37.5142 93.742 37.3447C93.6295 37.2034 93.4888 37.0622 93.3201 36.9774C93.2638 36.9492 93.2357 36.921 93.2357 36.921C93.2357 36.8645 93.292 36.7797 93.3763 36.6102C93.517 36.3842 93.742 36.0452 94.1638 35.565C94.2201 35.5085 94.2763 35.452 94.3045 35.339C94.3607 35.226 94.3889 35.0848 94.3889 34.9435C94.3889 34.8306 94.3607 34.6893 94.3045 34.5763C94.3888 34.4068 94.3326 34.2938 94.2201 34.1808ZM111.517 35.1695C111.517 34.4068 111.208 33.6724 110.617 33.0791C109.998 32.4577 109.183 32.1469 108.311 32.1469C108.001 32.1469 107.664 32.2034 107.355 32.2882C106.342 32.6272 105.161 33.2204 103.923 34.0113C102.067 35.1978 100.098 36.8362 98.5514 38.7006C97.792 39.6328 97.117 40.6215 96.6107 41.6385C96.1045 42.6554 95.7951 43.7289 95.7389 44.8023C95.7389 44.8306 95.7389 44.8871 95.7389 44.9153C95.7389 45.4803 95.9076 46.017 96.2451 46.5255C96.5545 47.034 97.0326 47.4859 97.5951 47.8814C98.5233 48.5311 99.6202 48.8701 100.605 48.8984C100.801 48.8984 100.97 48.8701 101.167 48.8419C102.32 48.6724 103.53 48.3051 104.598 47.8532C105.667 47.4012 106.595 46.921 107.186 46.5537C107.411 46.4407 107.608 46.2712 107.72 46.0735C107.833 45.8758 107.861 45.7063 107.861 45.565C107.861 45.5368 107.861 45.5368 107.861 45.5085C107.861 45.3108 107.776 45.113 107.664 44.9718C107.551 44.8306 107.383 44.7176 107.214 44.6328C107.045 44.5481 106.848 44.5198 106.651 44.5198C106.37 44.5198 106.061 44.6046 105.808 44.7458C105.133 45.0566 104.233 45.3955 103.276 45.678C102.348 45.9605 101.336 46.1865 100.492 46.2712C100.408 46.2712 100.323 46.2712 100.239 46.2712C100.042 46.2712 99.817 46.243 99.6483 46.2147C99.4514 46.1582 99.2827 46.1017 99.1702 46.017C99.0576 45.9323 98.9733 45.8193 98.917 45.678C98.8608 45.5368 98.8326 45.339 98.8326 45.0848C98.8326 45.0283 98.8326 44.9718 98.8326 44.9153C98.8889 44.0961 99.2545 43.2204 99.7608 42.4012C100.239 41.6385 100.858 40.904 101.448 40.226C101.87 40.226 102.32 40.226 102.798 40.226H102.855H102.911C103.108 40.1978 103.333 40.1695 103.558 40.113C104.88 39.8023 106.201 39.4633 107.523 38.9266C108.451 38.5594 109.351 38.1074 110.223 37.6554L110.252 37.6272L110.28 37.5989C110.617 37.3447 110.898 37.0339 111.123 36.7232C111.377 36.2147 111.517 35.678 111.517 35.1695ZM108.676 35.5933C107.692 36.7797 105.273 37.7967 102.855 38.1074C104.711 36.582 106.426 35.4238 107.861 34.7741C108.48 34.4916 108.901 34.5198 109.014 34.6046C109.126 34.7176 109.126 35.0565 108.676 35.5933Z" fill="#005B7F"/>
<path d="M58.725 8.2777H66.9373H67.0779L67.0217 8.16468L64.5467 3.55932L64.5186 3.50281H64.4623H56.2219H56.0813L56.1376 3.61582L58.6125 8.22119L58.6406 8.2777H58.725ZM56.2219 3.64408H64.4623L64.378 3.58757L66.8529 8.19293L66.9373 8.07992H58.6969L58.7812 8.13643L56.3063 3.53106L56.2219 3.64408Z" fill="#005B7F"/>
<path d="M65.3061 4.94375L64.5186 3.50281H56.0813L56.8688 4.94375H65.3061Z" fill="#005B7F"/>
<path d="M67.077 8.27718L66.2895 6.80798H57.8804L58.6679 8.27718H67.077Z" fill="#005B7F"/>
<path d="M60.5266 5.14124L60.4985 5.31076H60.3016L60.4985 5.39552V5.56504L60.6391 5.45203L60.836 5.56504L60.7235 5.39552L60.8641 5.31076H60.6391L60.5266 5.14124Z" fill="#005B7F"/>
<path d="M62.0739 5.56504L62.2146 5.45203L62.4396 5.56504L62.2989 5.39552L62.4396 5.31076H62.2146L62.1021 5.14124L62.0739 5.31076H61.8771L62.0739 5.39552V5.56504Z" fill="#005B7F"/>
<path d="M61.6232 5.81925L61.4826 5.67798V5.81925H61.2576L61.4826 5.93226L61.4544 6.07353L61.6232 5.98877L61.8201 6.07353L61.7076 5.93226L61.8482 5.81925H61.6232Z" fill="#005B7F"/>
<path d="M60.9761 6.35605L60.8636 6.18652L60.8355 6.35605H60.6105L60.8355 6.44081L60.8073 6.61033L60.948 6.52557L61.173 6.61033L61.0605 6.44081L61.2011 6.35605H60.9761Z" fill="#005B7F"/>
<path d="M62.6362 6.35605L62.5237 6.18652L62.4956 6.35605H62.2987L62.4956 6.44081V6.61033L62.6362 6.52557L62.8612 6.61033L62.7206 6.44081L62.8612 6.35605H62.6362Z" fill="#005B7F"/>
</g>
<defs>
<clipPath id="clip0_334_1210">
<rect width="160" height="55.8578" fill="white"/>
</clipPath>
</defs>
</svg>
