<svg width="160" height="42" viewBox="0 0 160 42" fill="none" xmlns="http://www.w3.org/2000/svg">
<g clip-path="url(#clip0_334_1262)">
<g clip-path="url(#clip1_334_1262)">
<path d="M60.35 23.4745V31.4084H56.7864V10.8955H62.5483C63.8365 10.8955 64.9549 11.0514 65.896 11.3553C66.8447 11.6593 67.6238 12.0801 68.2486 12.6179C68.8733 13.1557 69.3284 13.7947 69.637 14.5351C69.9378 15.2755 70.0921 16.0861 70.0921 16.959C70.0921 17.3019 70.0458 17.6994 69.9609 18.1514C69.8761 18.6034 69.7218 19.0711 69.5058 19.5621C69.2899 20.0531 68.989 20.5207 68.6111 20.9883C68.2331 21.4559 67.7472 21.8768 67.1532 22.2431C66.5593 22.6172 65.8497 22.9133 65.032 23.1393C64.2067 23.3654 63.2348 23.4823 62.1241 23.4823H60.35V23.4745ZM60.35 20.848L62.1472 20.8324C62.8029 20.8324 63.4045 20.7467 63.9445 20.583C64.4921 20.4194 64.9549 20.17 65.3406 19.8504C65.7263 19.5309 66.0271 19.1334 66.2431 18.658C66.459 18.1826 66.5593 17.6526 66.5593 17.0447C66.5593 16.5615 66.4822 16.1173 66.3356 15.6886C66.1891 15.2677 65.9499 14.8937 65.6106 14.5741C65.2712 14.2546 64.8315 14.0052 64.2838 13.8181C63.7362 13.6311 63.0574 13.5376 62.2398 13.5376H60.3346V20.8402L60.35 20.848Z" fill="#005B7F"/>
<path d="M84.5779 13.5531H76.6408V19.1646H82.9581V21.8066H76.6408V28.743H84.9173V31.4006H73.0771V10.8955H84.5779V13.5531Z" fill="#005B7F"/>
<path d="M102.62 13.5454H96.3794V31.4084H92.8158V13.5454H86.5834V10.9033H102.62V13.5454Z" fill="#005B7F"/>
<path d="M108.621 31.4084H105.073V10.8955H110.827C112.123 10.8955 113.241 11.028 114.182 11.2852C115.123 11.5502 115.902 11.9243 116.519 12.4075C117.136 12.8907 117.591 13.4908 117.892 14.1844C118.193 14.8859 118.34 15.673 118.34 16.5537C118.34 17.1304 118.27 17.7227 118.124 18.3307C117.977 18.9386 117.73 19.5153 117.375 20.0608C117.021 20.6064 116.535 21.113 115.918 21.565C115.301 22.0171 114.529 22.3834 113.588 22.6639L119.767 31.3928H115.763L110.333 23.0068C110.117 23.0068 109.87 23.0068 109.593 22.9913C109.315 22.9835 108.999 22.9445 108.636 22.8899L108.621 31.4006V31.4084ZM108.628 20.2947C108.898 20.3258 109.168 20.3492 109.446 20.357C109.724 20.3648 110.001 20.3726 110.287 20.3726C110.996 20.3726 111.629 20.2869 112.192 20.1232C112.755 19.9595 113.226 19.7179 113.619 19.4062C114.005 19.0944 114.306 18.7125 114.506 18.2605C114.707 17.8085 114.807 17.3019 114.807 16.733C114.807 16.164 114.737 15.6808 114.599 15.2833C114.46 14.8781 114.221 14.5507 113.874 14.2935C113.526 14.0364 113.064 13.8493 112.477 13.7246C111.891 13.5999 111.158 13.5453 110.271 13.5453H108.628V20.3024V20.2947Z" fill="#005B7F"/>
<path d="M140.261 20.7234C140.261 21.7521 140.161 22.7419 139.96 23.6927C139.76 24.6436 139.467 25.5321 139.081 26.3582C138.695 27.1843 138.233 27.9325 137.685 28.6028C137.137 29.273 136.52 29.8497 135.834 30.3329C135.147 30.8161 134.399 31.1824 133.589 31.4474C132.779 31.7124 131.915 31.8371 130.997 31.8371C129.532 31.8371 128.221 31.5799 127.079 31.05C125.937 30.52 124.966 29.7874 124.179 28.8366C123.392 27.8857 122.783 26.7479 122.374 25.4151C121.957 24.0824 121.749 22.6094 121.749 20.9961C121.749 19.3829 121.965 18.019 122.397 16.7174C122.829 15.4159 123.446 14.2936 124.248 13.3506C125.05 12.4075 126.03 11.6749 127.179 11.1528C128.329 10.6306 129.632 10.3656 131.075 10.3656C132.424 10.3656 133.659 10.6072 134.785 11.0826C135.911 11.558 136.883 12.2439 137.693 13.1323C138.503 14.0208 139.135 15.1119 139.59 16.3901C140.045 17.676 140.269 19.1179 140.269 20.7234H140.261ZM136.505 21.0507C136.505 19.8739 136.374 18.7983 136.119 17.8397C135.865 16.8733 135.502 16.0472 135.024 15.3613C134.546 14.6755 133.975 14.1377 133.304 13.7558C132.633 13.374 131.877 13.1869 131.036 13.1869C130.195 13.1869 129.462 13.3662 128.791 13.7247C128.113 14.0832 127.534 14.5976 127.04 15.26C126.555 15.9303 126.169 16.733 125.899 17.676C125.629 18.6191 125.49 19.6712 125.49 20.8325C125.49 21.9937 125.606 23.1004 125.829 24.098C126.061 25.0956 126.4 25.9607 126.855 26.6933C127.31 27.4259 127.873 27.9948 128.545 28.4079C129.216 28.821 129.995 29.0236 130.874 29.0236C131.753 29.0236 132.54 28.8054 133.234 28.3611C133.929 27.9169 134.522 27.3324 135.001 26.592C135.487 25.8516 135.857 25.0099 136.111 24.0435C136.366 23.077 136.497 22.0873 136.497 21.0429L136.505 21.0507Z" fill="#005B7F"/>
<path d="M149.641 10.8878H152.819L160.008 31.4085H155.827L153.714 24.9943H147.705L145.684 31.4085H142.313L149.641 10.8878ZM148.438 22.3601H153.066L150.813 14.9561L148.445 22.3601H148.438Z" fill="#005B7F"/>
<path d="M66.4513 36.482C66.6596 36.4509 66.9295 36.4197 67.2689 36.4197C67.6932 36.4197 68.0017 36.521 68.1945 36.7002C68.3719 36.8561 68.4799 37.0977 68.4799 37.3939C68.4799 37.69 68.3951 37.9316 68.2254 38.1031C68.0017 38.3447 67.6314 38.4694 67.2149 38.4694C67.0838 38.4694 66.9681 38.4694 66.8755 38.4382V39.7709H66.4513V36.4742V36.482ZM66.8755 38.0875C66.9681 38.1109 67.0838 38.1187 67.2304 38.1187C67.7472 38.1187 68.0557 37.8693 68.0557 37.4095C68.0557 36.9496 67.7472 36.7548 67.2766 36.7548C67.0915 36.7548 66.945 36.7704 66.8755 36.786V38.0797V38.0875Z" fill="#005B7F"/>
<path d="M71.5499 38.2123H70.2695V39.4125H71.6965V39.771H69.8375V36.4353H71.6193V36.7938H70.2618V37.846H71.5422V38.2045L71.5499 38.2123Z" fill="#005B7F"/>
<path d="M73.7327 36.8094H72.73V36.4431H75.1751V36.8094H74.1647V39.7788H73.7327V36.8094Z" fill="#005B7F"/>
<path d="M76.3245 36.4898C76.5404 36.4431 76.849 36.4197 77.1421 36.4197C77.5972 36.4197 77.8903 36.5054 78.0986 36.6925C78.2683 36.8405 78.3608 37.0666 78.3608 37.3237C78.3608 37.768 78.0831 38.0563 77.736 38.1732V38.1888C77.9906 38.2824 78.1448 38.5162 78.222 38.8591C78.33 39.3267 78.4071 39.6462 78.4765 39.7709H78.0368C77.9829 39.6774 77.9057 39.3891 77.8132 38.976C77.7129 38.5162 77.5355 38.3447 77.1498 38.3291H76.7487V39.7709H76.3245V36.482V36.4898ZM76.7487 38.0096H77.1807C77.6357 38.0096 77.9211 37.7602 77.9211 37.3783C77.9211 36.9496 77.6126 36.7626 77.1652 36.7548C76.957 36.7548 76.8104 36.7782 76.741 36.7938V38.0096H76.7487Z" fill="#005B7F"/>
<path d="M82.5724 38.0798C82.5724 39.2254 81.8781 39.8333 81.0374 39.8333C80.1966 39.8333 79.5564 39.1475 79.5564 38.1421C79.5564 37.0822 80.2043 36.3885 81.0914 36.3885C81.9784 36.3885 82.5724 37.09 82.5724 38.0798ZM80.0115 38.1265C80.0115 38.8358 80.3972 39.4748 81.0605 39.4748C81.7239 39.4748 82.1173 38.8436 82.1173 38.0876C82.1173 37.4251 81.7779 36.7315 81.0682 36.7315C80.3586 36.7315 80.0115 37.3861 80.0115 38.1187V38.1265Z" fill="#005B7F"/>
<path d="M83.9146 36.4431H84.3388V39.4125H85.7503V39.771H83.9146V36.4353V36.4431Z" fill="#005B7F"/>
<path d="M88.7123 38.2123H87.4318V39.4125H88.8588V39.771H86.9999V36.4353H88.7817V36.7938H87.4241V37.846H88.7045V38.2045L88.7123 38.2123Z" fill="#005B7F"/>
<path d="M93.0164 38.0798C93.0164 39.2254 92.3222 39.8333 91.4815 39.8333C90.6407 39.8333 90.0005 39.1475 90.0005 38.1421C90.0005 37.0822 90.6484 36.3885 91.5355 36.3885C92.4225 36.3885 93.0164 37.09 93.0164 38.0798ZM90.4556 38.1265C90.4556 38.8358 90.8413 39.4748 91.5046 39.4748C92.168 39.4748 92.5614 38.8436 92.5614 38.0876C92.5614 37.4251 92.222 36.7315 91.5123 36.7315C90.8027 36.7315 90.4556 37.3861 90.4556 38.1187V38.1265Z" fill="#005B7F"/>
<path d="M94.2968 39.2566C94.4897 39.3735 94.7673 39.4749 95.0605 39.4749C95.4924 39.4749 95.7547 39.241 95.7547 38.9059C95.7547 38.5942 95.5773 38.4149 95.1299 38.2435C94.5899 38.0486 94.2583 37.768 94.2583 37.3004C94.2583 36.7783 94.6825 36.3964 95.3227 36.3964C95.6621 36.3964 95.9089 36.4743 96.0555 36.56L95.9398 36.9107C95.8318 36.8484 95.6081 36.7549 95.315 36.7549C94.8676 36.7549 94.6902 37.0276 94.6902 37.2537C94.6902 37.5654 94.8908 37.7213 95.3459 37.9005C95.9012 38.1188 96.1866 38.3915 96.1866 38.8825C96.1866 39.3969 95.8087 39.8412 95.0296 39.8412C94.7134 39.8412 94.3663 39.7476 94.1888 39.6307L94.2968 39.2722V39.2566Z" fill="#005B7F"/>
<path d="M99.3723 36.4898C99.6346 36.4509 99.9431 36.4197 100.275 36.4197C100.884 36.4197 101.324 36.56 101.609 36.8327C101.902 37.1055 102.072 37.4874 102.072 38.033C102.072 38.5785 101.902 39.0228 101.594 39.3267C101.285 39.6385 100.776 39.8099 100.136 39.8099C99.8351 39.8099 99.5806 39.7943 99.3646 39.7709V36.4898H99.3723ZM99.7966 39.4358C99.9046 39.4592 100.059 39.4592 100.229 39.4592C101.139 39.4592 101.632 38.9448 101.632 38.0408C101.632 37.2536 101.2 36.7548 100.298 36.7548C100.074 36.7548 99.9123 36.7782 99.7966 36.8016V39.4358Z" fill="#005B7F"/>
<path d="M105.127 38.2123H103.846V39.4125H105.273V39.771H103.414V36.4353H105.196V36.7938H103.838V37.846H105.119V38.2045L105.127 38.2123Z" fill="#005B7F"/>
<path d="M108.428 36.4898C108.644 36.4431 108.952 36.4197 109.245 36.4197C109.701 36.4197 109.994 36.5054 110.202 36.6925C110.372 36.8405 110.464 37.0666 110.464 37.3237C110.464 37.768 110.187 38.0563 109.839 38.1732V38.1888C110.094 38.2824 110.248 38.5162 110.325 38.8591C110.433 39.3267 110.51 39.6462 110.58 39.7709H110.14C110.086 39.6774 110.009 39.3891 109.917 38.976C109.816 38.5162 109.639 38.3447 109.253 38.3291H108.852V39.7709H108.428V36.482V36.4898ZM108.852 38.0096H109.284C109.739 38.0096 110.025 37.7602 110.025 37.3783C110.025 36.9496 109.716 36.7626 109.269 36.7548C109.06 36.7548 108.914 36.7782 108.844 36.7938V38.0096H108.852Z" fill="#005B7F"/>
<path d="M114.676 38.0798C114.676 39.2254 113.982 39.8333 113.141 39.8333C112.3 39.8333 111.66 39.1475 111.66 38.1421C111.66 37.0822 112.308 36.3885 113.195 36.3885C114.082 36.3885 114.676 37.09 114.676 38.0798ZM112.115 38.1265C112.115 38.8358 112.501 39.4748 113.164 39.4748C113.827 39.4748 114.221 38.8436 114.221 38.0876C114.221 37.4251 113.881 36.7315 113.172 36.7315C112.462 36.7315 112.115 37.3861 112.115 38.1187V38.1265Z" fill="#005B7F"/>
<path d="M116.481 38.7267L116.141 39.7788H115.702L116.82 36.4431H117.337L118.463 39.7788H118.008L117.653 38.7267H116.481ZM117.561 38.3915L117.237 37.4329C117.16 37.2147 117.113 37.0198 117.067 36.825H117.059C117.013 37.0198 116.959 37.2225 116.89 37.4329L116.566 38.3993H117.561V38.3915Z" fill="#005B7F"/>
<path d="M119.975 36.8094H118.972V36.4431H121.417V36.8094H120.407V39.7788H119.975V36.8094Z" fill="#005B7F"/>
<path d="M122.729 38.7267L122.389 39.7788H121.95L123.068 36.4431H123.585L124.711 39.7788H124.256L123.901 38.7267H122.729ZM123.816 38.3915L123.492 37.4329C123.415 37.2147 123.369 37.0198 123.323 36.825H123.315C123.269 37.0198 123.215 37.2225 123.145 37.4329L122.821 38.3993H123.816V38.3915Z" fill="#005B7F"/>
<path d="M125.976 39.7788V36.4431H126.439L127.496 38.1265C127.742 38.5162 127.927 38.8669 128.089 39.2099H128.097C128.059 38.7578 128.051 38.3526 128.051 37.8382V36.4431H128.452V39.7788H128.02L126.971 38.0876C126.74 37.7135 126.524 37.3394 126.354 36.9731H126.339C126.362 37.3939 126.369 37.7992 126.369 38.3526V39.7788H125.968H125.976Z" fill="#005B7F"/>
<path d="M131.746 39.2566C131.938 39.3735 132.216 39.4749 132.509 39.4749C132.941 39.4749 133.196 39.241 133.196 38.9059C133.196 38.5942 133.018 38.4149 132.571 38.2435C132.031 38.0486 131.699 37.768 131.699 37.3004C131.699 36.7783 132.124 36.3964 132.764 36.3964C133.103 36.3964 133.342 36.4743 133.497 36.56L133.381 36.9107C133.273 36.8484 133.049 36.7549 132.756 36.7549C132.309 36.7549 132.131 37.0276 132.131 37.2537C132.131 37.5654 132.332 37.7213 132.787 37.9005C133.342 38.1188 133.628 38.3915 133.628 38.8825C133.628 39.3969 133.25 39.8412 132.471 39.8412C132.154 39.8412 131.807 39.7476 131.63 39.6307L131.738 39.2722L131.746 39.2566Z" fill="#005B7F"/>
<path d="M134.877 39.5216C134.877 39.3345 135.001 39.2098 135.17 39.2098C135.34 39.2098 135.456 39.3345 135.456 39.5216C135.456 39.7086 135.34 39.8333 135.163 39.8333C134.993 39.8333 134.877 39.7008 134.877 39.5216Z" fill="#005B7F"/>
<path d="M137.33 38.7267L136.991 39.7788H136.551L137.669 36.4431H138.186L139.312 39.7788H138.857L138.503 38.7267H137.33ZM138.41 38.3915L138.086 37.4329C138.009 37.2147 137.963 37.0198 137.916 36.825H137.909C137.862 37.0198 137.808 37.2225 137.739 37.4329L137.415 38.3993H138.41V38.3915Z" fill="#005B7F"/>
<path d="M140.454 39.5216C140.454 39.3345 140.578 39.2098 140.747 39.2098C140.917 39.2098 141.033 39.3345 141.033 39.5216C141.033 39.7086 140.917 39.8333 140.74 39.8333C140.57 39.8333 140.454 39.7008 140.454 39.5216Z" fill="#005B7F"/>
<path d="M27.9073 0C27.9073 0 27.1514 6.18037 20.5332 14.4806C20.5332 14.4806 15.6738 21.339 14.9178 24.9787C14.9178 24.9787 27.0665 19.1334 40.8967 24.9787C40.8967 24.9787 38.1276 18.206 34.2786 13.1245C30.4296 8.04305 28.4087 4.06049 27.9073 0Z" fill="#005B7F"/>
<path d="M55.8068 36.7471C55.8068 36.7471 49.7749 31.9228 41.6449 29.8886C41.6449 29.8886 41.7298 41.4856 27.8147 42C27.8147 42 14.4936 42.1714 13.8225 29.3821C13.8225 29.3821 5.86224 31.9228 -0.00769043 36.2405C-0.00769043 36.2405 10.3823 24.3863 27.8147 23.7083C27.8147 23.7083 41.8917 23.3732 55.8068 36.7471Z" fill="#005B7F"/>
</g>
</g>
<defs>
<clipPath id="clip0_334_1262">
<rect width="160" height="42" fill="white"/>
</clipPath>
<clipPath id="clip1_334_1262">
<rect width="160" height="42" fill="white"/>
</clipPath>
</defs>
</svg>
