<svg width="1439" height="466" viewBox="0 0 1439 466" fill="none" xmlns="http://www.w3.org/2000/svg">
<path d="M1216.35 329.815C992.287 312.949 829.799 228.62 672.706 147.089C497.482 56.1513 332.033 -29.7182 120.791 9.93256C79.8242 17.6357 39.5471 29.7174 0 46.1778V193.753C47.497 167.725 96.0081 149.886 145.33 140.642C311.469 109.465 443.82 178.144 611.377 265.109C772.486 348.708 955.133 443.497 1206.33 462.43C1237.11 464.741 1268.02 465.917 1299.01 465.917C1345.86 465.917 1392.87 463.241 1440 457.97V324.017C1364.96 333.383 1290.21 335.41 1216.35 329.815Z" fill="#D6D2C4"/>
</svg>
