<svg width="24" height="24" viewBox="0 0 24 24" fill="none" xmlns="http://www.w3.org/2000/svg">
<circle cx="11.9146" cy="11.9146" r="11.9146" fill="#007AB9"/>
<path fill-rule="evenodd" clip-rule="evenodd" d="M7.36063 5.09106C6.3864 5.09106 5.74902 5.73057 5.74902 6.57078C5.74902 7.39315 6.36793 8.05114 7.32325 8.05114H7.34173C8.33508 8.05114 8.9527 7.39315 8.9527 6.57078C8.9338 5.73057 8.33508 5.09106 7.36063 5.09106ZM19.0336 12.8734V17.7856H16.1856V13.2026C16.1856 12.0519 15.7744 11.2661 14.7433 11.2661C13.9564 11.2661 13.4889 11.7951 13.2825 12.3074C13.2075 12.4905 13.1882 12.7447 13.1882 13.0015V17.7854H10.34C10.34 17.7854 10.3783 10.0234 10.34 9.21992H13.1884V10.4337C13.1857 10.4382 13.1825 10.4426 13.1793 10.447C13.1757 10.452 13.1722 10.4569 13.1695 10.4618H13.1884V10.4337C13.5669 9.85135 14.2418 9.01878 15.7551 9.01878C17.6288 9.01878 19.0336 10.243 19.0336 12.8734ZM8.76538 17.7856H5.9183V9.21992H8.76538V17.7856Z" fill="#F1F2F2"/>
</svg>
