<svg width="120" height="52" viewBox="0 0 120 52" fill="none" xmlns="http://www.w3.org/2000/svg">
<g clip-path="url(#clip0_334_2131)">
<path d="M23.1452 26.2397C22.2261 27.1409 21.7601 28.2787 21.7601 29.6205C21.7601 30.9537 22.2256 32.0956 23.1452 33.0146C24.0722 33.9152 25.24 34.3718 26.616 34.3718C27.8067 34.3718 28.845 34.0224 29.7022 33.3336C30.5849 32.6273 31.145 31.7223 31.3659 30.6441C31.3699 30.6242 31.3649 30.6038 31.3519 30.5878C31.3389 30.5719 31.3195 30.5629 31.299 30.5629H29.1479C29.1195 30.5629 29.0946 30.5804 29.0846 30.6062C28.8892 31.1155 28.5668 31.5262 28.1257 31.8273C27.6841 32.1283 27.1762 32.2813 26.616 32.2813C25.8688 32.2813 25.2358 32.0276 24.7365 31.5277C24.2356 31.0103 23.9819 30.3684 23.9819 29.6203C23.9819 28.8642 24.2357 28.2268 24.7365 27.7258C25.2279 27.2175 25.8604 26.9598 26.616 26.9598C27.1762 26.9598 27.6841 27.1128 28.1257 27.4134C28.5668 27.715 28.8892 28.1257 29.0846 28.635C29.0946 28.6609 29.1195 28.6783 29.1479 28.6783H31.299C31.3195 28.6783 31.3389 28.6694 31.3519 28.6534C31.3648 28.6375 31.3699 28.6171 31.3659 28.5972C31.1445 27.5096 30.5849 26.6095 29.7022 25.9212C28.8454 25.2234 27.8072 24.8695 26.616 24.8695C25.231 24.8696 24.0632 25.3307 23.1452 26.2397ZM23.1452 26.2397C22.2261 27.1409 21.7601 28.2787 21.7601 29.6205C21.7601 30.9537 22.2256 32.0956 23.1452 33.0146C24.0722 33.9152 25.24 34.3718 26.616 34.3718C27.8067 34.3718 28.845 34.0224 29.7022 33.3336C30.5849 32.6273 31.145 31.7223 31.3659 30.6441C31.3699 30.6242 31.3649 30.6038 31.3519 30.5878C31.3389 30.5719 31.3195 30.5629 31.299 30.5629H29.1479C29.1195 30.5629 29.0946 30.5804 29.0846 30.6062C28.8892 31.1155 28.5668 31.5262 28.1257 31.8273C27.6841 32.1283 27.1762 32.2813 26.616 32.2813C25.8688 32.2813 25.2358 32.0276 24.7365 31.5277C24.2356 31.0103 23.9819 30.3684 23.9819 29.6203C23.9819 28.8642 24.2357 28.2268 24.7365 27.7258C25.2279 27.2175 25.8604 26.9598 26.616 26.9598C27.1762 26.9598 27.6841 27.1128 28.1257 27.4134C28.5668 27.715 28.8892 28.1257 29.0846 28.635C29.0946 28.6609 29.1195 28.6783 29.1479 28.6783H31.299C31.3195 28.6783 31.3389 28.6694 31.3519 28.6534C31.3648 28.6375 31.3699 28.6171 31.3659 28.5972C31.1445 27.5096 30.5849 26.6095 29.7022 25.9212C28.8454 25.2234 27.8072 24.8695 26.616 24.8695C25.231 24.8696 24.0632 25.3307 23.1452 26.2397ZM19.2426 21.7142L25.3775 13.4123V22.3981C25.3775 22.418 25.3864 22.437 25.4019 22.45C25.4178 22.4629 25.4388 22.4684 25.4582 22.4649C26.3015 22.3069 27.1458 22.3309 27.9632 22.5278C27.9837 22.5327 28.0051 22.5278 28.0215 22.5148C28.0379 22.5023 28.0469 22.4824 28.0469 22.4615V9.5361C28.0469 9.49868 28.017 9.46832 27.979 9.46832H24.9189C24.8969 9.46832 24.8769 9.47832 24.864 9.49573L17.7712 19.1011L10.7082 9.49573C10.6952 9.47824 10.6748 9.46832 10.6534 9.46832H7.58483C7.54751 9.46832 7.51705 9.49868 7.51705 9.5361V20.4133C7.51705 20.4373 7.53002 20.4597 7.55046 20.4716L10.0843 21.9604C10.1053 21.9724 10.1312 21.9728 10.1521 21.9604C10.1736 21.9489 10.1866 21.926 10.1866 21.9016V13.4122L16.322 21.7141C16.1456 22.0067 15.0979 23.7407 15.0849 23.7635C14.4779 24.8217 14.4111 26.0732 14.907 27.1109C15.3491 28.0369 16.1964 28.6629 17.2316 28.8284C17.407 28.8569 17.5919 28.8718 17.7828 28.8738C17.9727 28.8718 18.1576 28.8568 18.3325 28.8284C19.3677 28.6629 20.215 28.037 20.6576 27.1109C21.1535 26.0736 21.0867 24.8222 20.4791 23.7635C20.4663 23.7407 19.419 22.0067 19.2426 21.7142ZM18.5643 26.2158C18.4492 26.4566 18.2673 26.5846 17.9752 26.6314C17.9178 26.6404 17.8541 26.6459 17.7788 26.6484C17.7075 26.6459 17.6452 26.6404 17.589 26.6314C17.2963 26.5846 17.1149 26.4566 16.9998 26.2158C16.8294 25.8585 16.8708 25.363 17.1054 24.9549C17.1369 24.9006 17.3486 24.5491 17.6975 23.972L17.7827 23.833L17.8664 23.9716C18.2153 24.5492 18.4271 24.9006 18.4596 24.9554C18.6939 25.3641 18.7348 25.8585 18.5643 26.2158ZM18.1307 0H17.7189C7.94871 0 0 7.94862 0 17.7195V34.145C0 43.9153 7.94862 51.864 17.7189 51.864H18.1307C27.9006 51.864 35.8496 43.9153 35.8496 34.145V17.7195C35.8496 7.94862 27.9005 0 18.1307 0ZM27.3513 45.9972C27.0318 46.0774 26.7407 46.206 26.4866 46.3805C24.016 48.0736 21.1261 48.9687 18.1307 48.9687H17.7189C9.54506 48.9687 2.89583 42.319 2.89583 34.145V29.3239C2.89583 25.6372 2.38796 24.9773 1.60244 24.6344C1.48037 24.5811 1.31888 24.5078 1.17184 24.4406C1.17088 24.44 1.16984 24.4396 1.16888 24.4391L2.83153 24.5218C4.54109 24.5752 6.06818 25.1264 7.49861 26.206V42.7292C7.49861 42.7661 7.52906 42.7965 7.56639 42.7965H10.1068C10.1437 42.7965 10.1746 42.7661 10.1746 42.7292V28.9632C11.3682 30.5277 12.4583 32.3922 13.5135 34.1965C16.6868 39.6237 19.9683 45.2363 26.789 45.2363C28.1756 45.2363 29.4456 45.0101 30.6502 44.5461C29.632 45.1713 28.2015 45.7839 27.3513 45.9972ZM32.9539 34.145C32.9539 36.5548 32.3578 38.9497 31.2288 41.0739C31.2284 41.0744 31.2274 41.0748 31.2268 41.0754C30.2261 41.7328 29.1873 42.1375 28.054 42.3109L28.0734 36.7736C28.0739 36.7527 28.0639 36.7332 28.048 36.7202C28.0355 36.7107 28.0211 36.7053 28.0061 36.7053C28.0001 36.7053 27.9946 36.7058 27.9897 36.7073C27.1723 36.9082 26.325 36.9365 25.4782 36.78C25.4583 36.776 25.4379 36.782 25.4224 36.7944C25.4069 36.8078 25.398 36.8268 25.398 36.8467V42.2904C20.9871 41.5437 18.4821 37.2589 15.8305 32.7244C14.1588 29.865 12.4298 26.9085 10.1537 24.7828C10.1358 24.7653 9.70907 24.3542 9.48633 24.1956C7.5241 22.5833 5.36993 21.7649 2.89583 21.6936V17.7193C2.89583 9.54541 9.54515 2.89557 17.7189 2.89557H18.1307C26.3041 2.89557 32.9539 9.54532 32.9539 17.7193V34.145ZM105.551 33.1971H110.102V31.6186H105.551V29.4156H110.593V27.7704H103.627V37.3767H110.765V35.718H105.551V33.1971ZM57.7607 24.3652H63.2346V22.6108H57.7607V24.3652ZM101.783 30.6363C101.783 28.8186 100.549 27.7705 98.3994 27.7705H93.5833V37.3768H95.5071V33.5426H97.0322L99.9784 37.3768H102.154L99.0897 33.5022C100.814 33.2898 101.783 32.2416 101.783 30.6363ZM95.5072 31.8967V29.4685H98.3467C99.2488 29.4685 99.8325 29.8532 99.8325 30.6497C99.8325 31.499 99.2488 31.8967 98.3467 31.8967H95.5072ZM96.1432 21.3473C96.1432 20.192 95.5451 19.245 94.4033 18.8692C95.1409 18.4655 95.5591 17.7692 95.5591 16.8781C95.5591 15.3604 94.5982 14.2749 92.301 14.2749H87.8178V24.3547H92.5373C95.0157 24.3548 96.1432 23.1157 96.1432 21.3473ZM89.8362 15.9172H92.0502C93.0251 15.9172 93.54 16.3492 93.54 17.1428C93.54 17.9362 93.0251 18.3679 92.0502 18.3679H89.8362V15.9172ZM92.3428 22.712H89.8363V19.9552H92.3703C93.554 19.9552 94.0973 20.4008 94.0973 21.3334C94.0973 22.2664 93.5539 22.712 92.3428 22.712ZM116.829 31.804C114.759 31.3924 113.989 31.2199 113.989 30.3048C113.989 29.5482 114.626 29.1101 115.807 29.1101C117.001 29.1101 117.758 29.6543 118.05 30.7957L119.828 30.3182C119.43 28.5 118.116 27.558 115.873 27.558C113.618 27.558 112.145 28.6725 112.145 30.4109C112.145 32.0163 113.14 32.8522 115.436 33.2897C117.426 33.6615 118.155 33.8469 118.155 34.789C118.155 35.5984 117.413 36.036 116.139 36.036C114.799 36.036 113.896 35.4658 113.525 34.2587L111.76 34.8025C112.238 36.5937 113.804 37.5891 116.099 37.5891C118.514 37.5891 120 36.4747 120 34.6565C120 33.0511 119.071 32.2551 116.829 31.804ZM69.9916 34.5503L65.2816 27.7705H63.132V37.3768H64.9631L64.9097 30.2386L69.7927 37.3768H71.7564V27.7705H69.9382L69.9916 34.5503ZM79.436 21.918H83.3764L84.281 24.3547H86.5089L82.4573 14.2749H80.4248L76.3452 24.3547H78.5313L79.436 21.918ZM80.5504 18.9391C80.9541 17.8525 81.2601 16.906 81.4132 16.3912C81.5662 16.8921 81.8727 17.8525 82.2765 18.9391L82.75 20.2195H80.077L80.5504 18.9391ZM60.5672 21.7331C62.2936 21.7331 63.5468 20.8838 63.9644 19.3383L62.0849 18.8514C61.8761 19.5198 61.3467 19.909 60.6226 19.909C59.6342 19.909 59.0361 19.2132 59.0361 18.169C59.0361 17.1248 59.6342 16.4286 60.6226 16.4286C61.3467 16.4286 61.8761 16.8188 62.0849 17.5006L63.9644 17.0136C63.5468 15.4263 62.2658 14.6048 60.5672 14.6048C58.4649 14.6048 57.031 16.0941 57.031 18.169C57.031 20.2573 58.451 21.7331 60.5672 21.7331ZM89.5756 33.1174C89.5756 34.7098 88.7532 35.8507 87.121 35.8507C85.4891 35.8507 84.6798 34.7098 84.6798 33.1174V27.7704H82.7689V33.2634C82.7689 35.8242 84.3613 37.589 87.121 37.589C89.8806 37.589 91.4466 35.8241 91.4466 33.2634V27.7704H89.5756V33.1174ZM56.1927 33.1971H60.7437V31.6186H56.1927V29.4156H61.2346V27.7704H54.2693V37.3767H61.4075V35.718H56.1927V33.1971ZM49.2269 32.4674C48.882 33.396 48.4972 34.5637 48.272 35.3069C48.0597 34.6699 47.6883 33.4886 47.3165 32.4674L45.5781 27.7704H43.4424L47.343 37.3767H49.068L53.0882 27.7704H51.0183L49.2269 32.4674ZM56.2405 24.3548L54.5699 14.275H53.108L49.8643 21.2084L46.6206 14.275H45.1025L43.4318 24.3548H45.3253L46.3421 18.0893L49.2518 24.3548H50.3099L53.2615 18.0474L54.2772 24.3548H56.2405ZM75.0366 14.275H73.1286L73.1849 21.3892L68.2422 14.275H65.9868V24.3548H67.9082L67.8519 16.8642L72.976 24.3548H75.0364V14.275H75.0366ZM73.0967 29.4685H76.3742V37.3767H78.2976V29.4685H81.5751V27.7704H73.0967V29.4685Z" fill="#005B7F"/>
</g>
<defs>
<clipPath id="clip0_334_2131">
<rect width="120" height="52" fill="white"/>
</clipPath>
</defs>
</svg>
