<svg width="166" height="174" viewBox="0 0 166 174" fill="none" xmlns="http://www.w3.org/2000/svg">
<path d="M82.5535 112.456H83.4461C104.63 112.456 121.866 95.2214 121.866 74.0365V38.4211C121.866 17.2352 104.63 0 83.4461 0H82.5535C61.3685 0 44.1336 17.235 44.1336 38.4211V74.0365C44.1338 95.2214 61.3687 112.456 82.5535 112.456ZM50.4124 38.4211C50.4124 20.6976 64.83 6.27885 82.5535 6.27885H83.4461C101.169 6.27885 115.587 20.6976 115.587 38.4211V74.0365C115.587 79.2616 114.295 84.4544 111.847 89.0603C111.846 89.0613 111.844 89.0625 111.843 89.0635C109.673 90.489 107.42 91.3666 104.963 91.7425L105.005 79.7359C105.006 79.6904 104.984 79.6483 104.95 79.6203C104.923 79.5998 104.891 79.5879 104.859 79.5879C104.846 79.5879 104.834 79.5889 104.823 79.5923C103.051 80.0278 101.214 80.0893 99.3775 79.75C99.3343 79.7414 99.29 79.7543 99.2564 79.7813C99.2228 79.8105 99.2036 79.8516 99.2036 79.8947V91.6982C89.6394 90.0793 84.2077 80.7886 78.4585 70.9563C74.8338 64.7563 71.0848 58.3456 66.1494 53.7365C66.1105 53.6988 65.1855 52.807 64.7023 52.4635C60.4477 48.9675 55.7768 47.1929 50.4122 47.0384V38.4211H50.4124ZM47.6081 53.4146C47.3434 53.299 46.9933 53.1401 46.6744 52.9941C46.6722 52.993 46.67 52.9919 46.6678 52.9909L50.273 53.1703C53.9797 53.2861 57.291 54.4812 60.3927 56.822V92.6493C60.3927 92.7293 60.4586 92.7952 60.5396 92.7952H66.0479C66.128 92.7952 66.1949 92.7293 66.1949 92.6493V62.8004C68.7831 66.1927 71.1466 70.2356 73.4345 74.1477C80.3153 85.9154 87.4307 98.0851 102.22 98.0851C105.226 98.0851 107.98 97.5946 110.592 96.5883C108.384 97.9445 105.283 99.2727 103.439 99.7354C102.746 99.9094 102.115 100.188 101.564 100.567C96.2072 104.238 89.9413 106.179 83.4463 106.179H82.5537C64.8302 106.179 50.4126 91.7598 50.4126 74.0365V63.5828C50.4124 55.5889 49.3112 54.1581 47.6081 53.4146ZM66.1464 47.6167C66.1929 47.5918 66.2211 47.5422 66.2211 47.4892V29.0817L79.5246 47.0829C79.1421 47.7174 76.8704 51.4771 76.8424 51.5267C75.5261 53.821 75.3813 56.5348 76.4565 58.7847C77.4151 60.7926 79.2523 62.15 81.497 62.5088C81.8773 62.5704 82.2782 62.6028 82.6921 62.6071C83.104 62.6028 83.5047 62.5704 83.884 62.5088C86.1287 62.15 87.9659 60.7926 88.9255 58.7847C90.0006 56.5358 89.8559 53.822 88.5386 51.5267C88.5106 51.4771 86.2399 47.7174 85.8574 47.0829L99.1597 29.0817V48.5655C99.1597 48.6088 99.1791 48.6499 99.2127 48.6779C99.2473 48.7061 99.2927 48.7179 99.3348 48.7103C101.163 48.3678 102.994 48.4196 104.767 48.8466C104.811 48.8573 104.857 48.8465 104.893 48.8185C104.929 48.7915 104.948 48.7482 104.948 48.7029V20.6772C104.948 20.5961 104.883 20.5302 104.801 20.5302H98.1659C98.1183 20.5302 98.0752 20.5518 98.047 20.5896L82.6677 41.4168L67.3531 20.5896C67.3249 20.5518 67.2806 20.5302 67.2341 20.5302H60.5801C60.4991 20.5302 60.4332 20.5961 60.4332 20.6772V44.2623C60.4332 44.3141 60.4612 44.3628 60.5056 44.3888L65.9999 47.6169C66.0448 47.6427 66.101 47.6437 66.1464 47.6167ZM81.2233 54.1096C81.2914 53.9919 81.7508 53.2299 82.5072 51.9785L82.6919 51.6771L82.8734 51.9775C83.6298 53.23 84.0892 53.9919 84.1595 54.1108C84.6675 54.9969 84.7561 56.0691 84.3865 56.8438C84.1368 57.3657 83.7424 57.6436 83.1091 57.745C82.9848 57.7645 82.8464 57.7764 82.6834 57.7818C82.5288 57.7764 82.3938 57.7645 82.2717 57.745C81.6374 57.6436 81.244 57.3657 80.9943 56.8438C80.6246 56.0687 80.7143 54.9945 81.2233 54.1096ZM94.3192 56.8956C92.3264 58.8496 91.3159 61.3167 91.3159 64.2261C91.3159 67.117 92.3252 69.5928 94.3192 71.5857C96.3294 73.5384 98.8614 74.5284 101.845 74.5284C104.427 74.5284 106.678 73.7708 108.537 72.2774C110.451 70.746 111.666 68.7835 112.144 66.4459C112.153 66.4026 112.142 66.3584 112.114 66.3238C112.086 66.2892 112.044 66.2698 112 66.2698H107.335C107.274 66.2698 107.22 66.3075 107.198 66.3639C106.774 67.4683 106.075 68.3589 105.119 69.0115C104.161 69.6643 103.06 69.9959 101.845 69.9959C100.226 69.9959 98.8531 69.4458 97.7701 68.3619C96.6841 67.2401 96.1339 65.8482 96.1339 64.2261C96.1339 62.5867 96.6841 61.2045 97.7701 60.1184C98.8358 59.016 100.207 58.4574 101.845 58.4574C103.06 58.4574 104.161 58.7892 105.119 59.4408C106.075 60.0946 106.774 60.9851 107.198 62.0896C107.22 62.1458 107.274 62.1838 107.335 62.1838H112C112.044 62.1838 112.086 62.1643 112.114 62.1297C112.142 62.0952 112.153 62.0509 112.144 62.0076C111.665 59.6495 110.451 57.6978 108.537 56.2054C106.679 54.6923 104.428 53.9251 101.845 53.9251C98.8419 53.9247 96.3097 54.9244 94.3192 56.8956ZM94.3192 56.8956C92.3264 58.8496 91.3159 61.3167 91.3159 64.2261C91.3159 67.117 92.3252 69.5928 94.3192 71.5857C96.3294 73.5384 98.8614 74.5284 101.845 74.5284C104.427 74.5284 106.678 73.7708 108.537 72.2774C110.451 70.746 111.666 68.7835 112.144 66.4459C112.153 66.4026 112.142 66.3584 112.114 66.3238C112.086 66.2892 112.044 66.2698 112 66.2698H107.335C107.274 66.2698 107.22 66.3075 107.198 66.3639C106.774 67.4683 106.075 68.3589 105.119 69.0115C104.161 69.6643 103.06 69.9959 101.845 69.9959C100.226 69.9959 98.8531 69.4458 97.7701 68.3619C96.6841 67.2401 96.1339 65.8482 96.1339 64.2261C96.1339 62.5867 96.6841 61.2045 97.7701 60.1184C98.8358 59.016 100.207 58.4574 101.845 58.4574C103.06 58.4574 104.161 58.7892 105.119 59.4408C106.075 60.0946 106.774 60.9851 107.198 62.0896C107.22 62.1458 107.274 62.1838 107.335 62.1838H112C112.044 62.1838 112.086 62.1643 112.114 62.1297C112.142 62.0952 112.153 62.0509 112.144 62.0076C111.665 59.6495 110.451 57.6978 108.537 56.2054C106.679 54.6923 104.428 53.9251 101.845 53.9251C98.8419 53.9247 96.3097 54.9244 94.3192 56.8956ZM106.126 123.18L97.2804 145.036H102.02L103.982 139.752H112.526L114.487 145.036H119.318L110.533 123.18H106.126ZM105.371 136.069L106.398 133.293C107.273 130.937 107.937 128.884 108.269 127.768C108.601 128.854 109.265 130.937 110.14 133.293L111.167 136.069H105.371ZM140.208 138.515C140.208 136.01 138.911 133.956 136.435 133.141C138.034 132.266 138.941 130.756 138.941 128.824C138.941 125.533 136.857 123.18 131.877 123.18H122.156V145.036H132.389C137.763 145.036 140.208 142.349 140.208 138.515ZM126.533 126.74H131.333C133.447 126.74 134.563 127.677 134.563 129.398C134.563 131.118 133.447 132.054 131.333 132.054H126.533V126.74ZM126.533 141.474V135.496H132.027C134.594 135.496 135.772 136.462 135.772 138.484C135.772 140.507 134.594 141.474 131.968 141.474H126.533ZM56.9832 145.058H68.8524V141.254H56.9832V145.058ZM100.031 164.035C100.031 167.488 98.2476 169.962 94.7083 169.962C91.17 169.962 89.415 167.488 89.415 164.035V152.442H85.2716V164.352C85.2716 169.905 88.7243 173.731 94.7083 173.731C100.692 173.731 104.088 169.904 104.088 164.352V152.442H100.031V164.035ZM126.499 158.656C126.499 154.714 123.823 152.442 119.163 152.442H108.721V173.271H112.892V164.957H116.199L122.587 173.271H127.304L120.66 164.87C124.399 164.409 126.499 162.137 126.499 158.656ZM112.892 161.389V156.123H119.049C121.005 156.123 122.27 156.958 122.27 158.685C122.27 160.526 121.005 161.389 119.049 161.389L112.892 161.389ZM94.4423 145.036V123.18H90.3055L90.4276 138.605L79.7104 123.18H74.8203V145.036H78.9864L78.8642 128.794L89.9748 145.036H94.4423ZM134.669 164.208H144.537V160.786H134.669V156.009H145.603V152.442H130.498V173.271H145.977V169.675H134.669V164.208ZM159.123 161.188C154.636 160.295 152.966 159.921 152.966 157.937C152.966 156.296 154.348 155.347 156.908 155.347C159.497 155.347 161.138 156.527 161.771 159.001L165.626 157.966C164.763 154.024 161.915 151.981 157.052 151.981C152.163 151.981 148.968 154.398 148.968 158.167C148.968 161.648 151.126 163.46 156.103 164.409C160.418 165.216 162 165.618 162 167.66C162 169.415 160.39 170.364 157.628 170.364C154.722 170.364 152.766 169.128 151.961 166.51L148.134 167.689C149.169 171.573 152.565 173.731 157.541 173.731C162.777 173.731 166 171.315 166 167.372C166 163.892 163.985 162.166 159.123 161.188ZM64.2995 156.124H71.4061V173.271H75.5766V156.124H82.6834V152.442H64.2995V156.124ZM63.1886 127.849C64.7589 127.849 65.9065 128.695 66.3595 130.174L70.4348 129.118C69.5292 125.676 66.7517 123.895 63.0687 123.895C58.5104 123.895 55.4011 127.124 55.4011 131.623C55.4011 136.151 58.48 139.351 63.0687 139.351C66.8121 139.351 69.529 137.509 70.4348 134.158L66.3595 133.102C65.9067 134.551 64.7591 135.395 63.1886 135.395C61.0456 135.395 59.7488 133.887 59.7488 131.623C59.7488 129.359 61.0454 127.849 63.1886 127.849ZM12.5426 162.626C11.7947 164.639 10.9605 167.171 10.4719 168.783C10.0116 167.402 9.2065 164.84 8.40022 162.626L4.63076 152.442H0L8.45761 173.271H12.1979L20.9147 152.442H16.4265L12.5426 162.626ZM57.5667 167.142L47.3541 152.442H42.693V173.271H46.6634L46.5479 157.793L57.1354 173.271H61.3934V152.442H57.4509L57.5667 167.142ZM27.6465 164.208H37.5143V160.786H27.6465V156.009H38.5788V152.442H23.4761V173.271H38.9539V169.675H27.6465V164.208ZM49.4302 145.036H53.6872L50.0647 123.18H46.895L39.8619 138.213L32.8288 123.18H29.5369L25.9144 145.036H30.0199L32.2246 131.45L38.5337 145.036H40.828L47.228 131.359L49.4302 145.036Z" fill="white"/>
</svg>
