<svg width="373" height="407" viewBox="0 0 373 407" fill="none" xmlns="http://www.w3.org/2000/svg">
<path d="M184.358 540H188.641C290.293 540 373 457.24 373 355.513V184.492C373 82.7598 290.293 0 188.641 0H184.358C82.7019 0 0 82.7598 0 184.492V355.513C0 457.24 82.7019 540 184.358 540ZM30.1292 184.492C30.1292 99.3865 99.3122 30.1496 184.358 30.1496H188.641C273.682 30.1496 342.87 99.3865 342.87 184.492V355.512C342.87 380.603 336.668 405.538 324.922 427.655C324.918 427.66 324.907 427.665 324.901 427.671C314.488 434.515 303.681 438.729 291.889 440.535L292.091 382.881C292.096 382.663 291.993 382.461 291.826 382.326C291.697 382.227 291.546 382.17 291.391 382.17C291.328 382.17 291.271 382.176 291.219 382.191C282.715 384.282 273.899 384.578 265.088 382.948C264.88 382.907 264.668 382.969 264.507 383.099C264.347 383.239 264.253 383.436 264.253 383.643V440.321C218.359 432.548 192.295 387.934 164.707 340.722C147.315 310.951 129.325 280.167 105.642 258.034C105.455 257.852 101.016 253.571 98.6977 251.921C78.2819 235.134 55.869 226.613 30.1271 225.871V184.492H30.1292ZM16.6717 256.489C15.4011 255.934 13.7209 255.172 12.1916 254.471C12.1813 254.465 12.1705 254.46 12.1602 254.455L29.46 255.316C47.2466 255.871 63.136 261.611 78.0196 272.851V444.889C78.0196 445.273 78.3359 445.589 78.725 445.589H105.156C105.54 445.589 105.862 445.273 105.862 444.889V301.559C118.281 317.848 129.622 337.262 140.601 356.047C173.618 412.555 207.761 470.992 278.728 470.992C293.155 470.992 306.368 468.636 318.902 463.805C308.308 470.317 293.425 476.695 284.577 478.916C281.253 479.751 278.225 481.09 275.58 482.907C249.875 500.535 219.808 509.855 188.641 509.855H184.358C99.3122 509.855 30.1292 440.618 30.1292 355.513V305.316C30.1292 266.93 24.8447 260.059 16.6717 256.489ZM105.628 228.648C105.852 228.529 105.986 228.29 105.986 228.036V139.646L169.822 226.086C167.987 229.132 157.087 247.186 156.951 247.425C150.635 258.441 149.941 271.472 155.1 282.277C159.7 291.918 168.515 298.436 179.287 300.159C181.112 300.455 183.035 300.611 185.022 300.631C186.997 300.61 188.921 300.455 190.741 300.159C201.512 298.436 210.328 291.918 214.933 282.277C220.092 271.478 219.398 258.447 213.077 247.425C212.942 247.186 202.046 229.132 200.211 226.086L264.043 139.646V233.206C264.043 233.413 264.136 233.611 264.297 233.745C264.463 233.881 264.68 233.937 264.882 233.901C273.657 232.256 282.441 232.505 290.946 234.555C291.158 234.607 291.382 234.555 291.552 234.42C291.724 234.29 291.817 234.083 291.817 233.865V99.2888C291.817 98.8993 291.506 98.583 291.112 98.583H259.272C259.044 98.583 258.836 98.6869 258.701 98.8686L184.903 198.878L111.416 98.8686C111.281 98.6869 111.068 98.583 110.846 98.583H78.9169C78.5284 98.583 78.2115 98.8993 78.2115 99.2888V212.542C78.2115 212.791 78.346 213.024 78.559 213.149L104.923 228.65C105.141 228.773 105.41 228.778 105.628 228.648ZM177.974 259.826C178.301 259.26 180.505 255.601 184.135 249.592L185.022 248.145L185.893 249.588C189.523 255.602 191.727 259.261 192.064 259.831C194.501 264.086 194.927 269.234 193.153 272.955C191.955 275.462 190.062 276.795 187.023 277.283C186.427 277.377 185.763 277.433 184.98 277.46C184.238 277.434 183.59 277.377 183.004 277.283C179.96 276.795 178.073 275.462 176.875 272.955C175.101 269.234 175.532 264.076 177.974 259.826ZM240.815 273.204C231.253 282.586 226.404 294.434 226.404 308.403C226.404 322.285 231.247 334.174 240.815 343.743C250.46 353.121 262.611 357.874 276.929 357.874C289.317 357.874 300.119 354.237 309.038 347.065C318.223 339.712 324.051 330.288 326.349 319.064C326.39 318.856 326.338 318.643 326.204 318.477C326.069 318.311 325.867 318.217 325.654 318.217H303.273C302.977 318.217 302.718 318.399 302.614 318.669C300.581 323.973 297.226 328.248 292.636 331.383C288.042 334.517 282.758 336.11 276.929 336.11C269.155 336.11 262.57 333.469 257.373 328.264C252.161 322.877 249.522 316.194 249.522 308.404C249.522 300.532 252.161 293.895 257.373 288.68C262.487 283.387 269.067 280.704 276.929 280.704C282.757 280.704 288.042 282.297 292.636 285.426C297.226 288.566 300.581 292.842 302.614 298.146C302.718 298.416 302.976 298.597 303.273 298.597H325.654C325.867 298.597 326.069 298.504 326.204 298.338C326.338 298.172 326.39 297.959 326.349 297.751C324.046 286.428 318.223 277.056 309.038 269.889C300.124 262.624 289.322 258.939 276.929 258.939C262.518 258.939 250.368 263.738 240.815 273.204ZM240.815 273.204C231.253 282.586 226.404 294.434 226.404 308.403C226.404 322.285 231.247 334.174 240.815 343.743C250.46 353.121 262.611 357.874 276.929 357.874C289.317 357.874 300.119 354.237 309.038 347.065C318.223 339.712 324.051 330.288 326.349 319.064C326.39 318.856 326.338 318.643 326.204 318.477C326.069 318.311 325.867 318.217 325.654 318.217H303.273C302.977 318.217 302.718 318.399 302.614 318.669C300.581 323.973 297.226 328.248 292.636 331.383C288.042 334.517 282.758 336.11 276.929 336.11C269.155 336.11 262.57 333.469 257.373 328.264C252.161 322.877 249.522 316.194 249.522 308.404C249.522 300.532 252.161 293.895 257.373 288.68C262.487 283.387 269.067 280.704 276.929 280.704C282.757 280.704 288.042 282.297 292.636 285.426C297.226 288.566 300.581 292.842 302.614 298.146C302.718 298.416 302.976 298.597 303.273 298.597H325.654C325.867 298.597 326.069 298.504 326.204 298.338C326.338 298.172 326.39 297.959 326.349 297.751C324.046 286.428 318.223 277.056 309.038 269.889C300.124 262.624 289.322 258.939 276.929 258.939C262.518 258.939 250.368 263.738 240.815 273.204Z" fill="white"/>
</svg>
