<svg width="32" height="32" viewBox="0 0 32 32" fill="none" xmlns="http://www.w3.org/2000/svg">
<path d="M8.00016 26.6667C7.29292 26.6667 6.61464 26.3857 6.11454 25.8856C5.61445 25.3855 5.3335 24.7072 5.3335 24V10.6667C5.3335 9.95942 5.61445 9.28115 6.11454 8.78105C6.61464 8.28095 7.29292 8 8.00016 8H24.0002C24.7074 8 25.3857 8.28095 25.8858 8.78105C26.3859 9.28115 26.6668 9.95942 26.6668 10.6667V24C26.6668 24.7072 26.3859 25.3855 25.8858 25.8856C25.3857 26.3857 24.7074 26.6667 24.0002 26.6667" stroke="#005B7F" stroke-width="2.66667" stroke-linecap="round" stroke-linejoin="round"/>
<path d="M10.6665 24V5.33333C10.6665 4.62609 10.9475 3.94781 11.4476 3.44771C11.9477 2.94762 12.6259 2.66666 13.3332 2.66666H18.6665C19.3737 2.66666 20.052 2.94762 20.5521 3.44771C21.0522 3.94781 21.3332 4.62609 21.3332 5.33333V24" stroke="#005B7F" stroke-width="2.66667" stroke-linecap="round" stroke-linejoin="round"/>
<path d="M13.3335 26.6667H18.6668" stroke="#005B7F" stroke-width="2.66667" stroke-linecap="round" stroke-linejoin="round"/>
<path d="M21.3332 29.3333C22.8059 29.3333 23.9998 28.1394 23.9998 26.6667C23.9998 25.1939 22.8059 24 21.3332 24C19.8604 24 18.6665 25.1939 18.6665 26.6667C18.6665 28.1394 19.8604 29.3333 21.3332 29.3333Z" stroke="#005B7F" stroke-width="2.66667" stroke-linecap="round" stroke-linejoin="round"/>
<path d="M10.6667 29.3333C12.1394 29.3333 13.3333 28.1394 13.3333 26.6667C13.3333 25.1939 12.1394 24 10.6667 24C9.19391 24 8 25.1939 8 26.6667C8 28.1394 9.19391 29.3333 10.6667 29.3333Z" stroke="#005B7F" stroke-width="2.66667" stroke-linecap="round" stroke-linejoin="round"/>
</svg>
