<svg width="14" height="28" viewBox="0 0 14 28" fill="none" xmlns="http://www.w3.org/2000/svg">
<path d="M2.05566 13.9043C2.06478 13.4486 2.24707 13.0475 2.60254 12.7012L8.56348 6.80859C8.83691 6.53516 9.1696 6.39844 9.56152 6.39844C9.97168 6.39844 10.3203 6.54199 10.6074 6.8291C10.8945 7.11621 11.0381 7.45573 11.0381 7.84766C11.0381 8.25781 10.8786 8.61784 10.5596 8.92773L5.47363 13.8906L10.5596 18.8809C10.8786 19.1908 11.0381 19.5508 11.0381 19.9609C11.0381 20.3529 10.8945 20.6924 10.6074 20.9795C10.3203 21.2666 9.97168 21.4102 9.56152 21.4102C9.1696 21.4102 8.83691 21.2734 8.56348 21L2.60254 15.1074C2.23796 14.752 2.05566 14.3509 2.05566 13.9043Z" fill="#62615A"/>
</svg>
