<svg width="14" height="28" viewBox="0 0 14 28" fill="none" xmlns="http://www.w3.org/2000/svg">
<path d="M11.0244 13.9316C11.0244 14.3783 10.8421 14.7793 10.4775 15.1348L4.5166 21.0273C4.24316 21.3008 3.90592 21.4375 3.50488 21.4375C3.10384 21.4375 2.75977 21.2939 2.47266 21.0068C2.18555 20.7197 2.04199 20.3802 2.04199 19.9883C2.04199 19.5781 2.2015 19.2181 2.52051 18.9082L7.60645 13.918L2.52051 8.95508C2.2015 8.64518 2.04199 8.28516 2.04199 7.875C2.04199 7.48307 2.18555 7.14355 2.47266 6.85645C2.75977 6.56934 3.10384 6.42578 3.50488 6.42578C3.90592 6.42578 4.24316 6.5625 4.5166 6.83594L10.4775 12.7285C10.833 13.0749 11.0153 13.4759 11.0244 13.9316Z" fill="#62615A"/>
</svg>
