<svg width="32" height="32" viewBox="0 0 32 32" fill="none" xmlns="http://www.w3.org/2000/svg">
<path d="M16.7812 3.44799C16.2812 2.94786 15.603 2.66681 14.8958 2.66666H5.33317C4.62593 2.66666 3.94765 2.94761 3.44755 3.4477C2.94746 3.9478 2.6665 4.62608 2.6665 5.33332V14.896C2.66665 15.6032 2.94771 16.2813 3.44784 16.7813L15.0532 28.3867C15.6592 28.9889 16.4788 29.3268 17.3332 29.3268C18.1875 29.3268 19.0072 28.9889 19.6132 28.3867L28.3865 19.6133C28.9887 19.0073 29.3267 18.1877 29.3267 17.3333C29.3267 16.479 28.9887 15.6593 28.3865 15.0533L16.7812 3.44799Z" stroke="#005B7F" stroke-width="2.66667" stroke-linecap="round" stroke-linejoin="round"/>
<path d="M10.0002 10.6667C10.3684 10.6667 10.6668 10.3682 10.6668 10C10.6668 9.63182 10.3684 9.33334 10.0002 9.33334C9.63197 9.33334 9.3335 9.63182 9.3335 10C9.3335 10.3682 9.63197 10.6667 10.0002 10.6667Z" fill="#005B7F" stroke="#005B7F" stroke-width="2.66667" stroke-linecap="round" stroke-linejoin="round"/>
</svg>
