<svg width="32" height="32" viewBox="0 0 32 32" fill="none" xmlns="http://www.w3.org/2000/svg">
<path d="M26.6668 13.3333C26.6668 19.9907 19.2815 26.924 16.8015 29.0653C16.5705 29.2391 16.2892 29.333 16.0002 29.333C15.7111 29.333 15.4299 29.2391 15.1988 29.0653C12.7188 26.924 5.3335 19.9907 5.3335 13.3333C5.3335 10.5043 6.4573 7.79124 8.45769 5.79085C10.4581 3.79046 13.1712 2.66666 16.0002 2.66666C18.8291 2.66666 21.5422 3.79046 23.5426 5.79085C25.543 7.79124 26.6668 10.5043 26.6668 13.3333Z" stroke="#005B7F" stroke-width="2.66667" stroke-linecap="round" stroke-linejoin="round"/>
<path d="M16 17.3333C18.2091 17.3333 20 15.5425 20 13.3333C20 11.1242 18.2091 9.33334 16 9.33334C13.7909 9.33334 12 11.1242 12 13.3333C12 15.5425 13.7909 17.3333 16 17.3333Z" stroke="#005B7F" stroke-width="2.66667" stroke-linecap="round" stroke-linejoin="round"/>
</svg>
