<svg width="32" height="32" viewBox="0 0 32 32" fill="none" xmlns="http://www.w3.org/2000/svg">
<path d="M15.9998 29.3333C23.3636 29.3333 29.3332 23.3638 29.3332 16C29.3332 8.6362 23.3636 2.66666 15.9998 2.66666C8.63604 2.66666 2.6665 8.6362 2.6665 16C2.6665 23.3638 8.63604 29.3333 15.9998 29.3333Z" stroke="#005B7F" stroke-width="2.66667" stroke-linecap="round" stroke-linejoin="round"/>
<path d="M12.1201 11.9999C12.4336 11.1088 13.0523 10.3574 13.8667 9.87879C14.6811 9.40015 15.6386 9.22519 16.5697 9.38489C17.5007 9.54459 18.3452 10.0286 18.9536 10.7513C19.5619 11.474 19.8949 12.3886 19.8935 13.3333C19.8935 15.9999 15.8935 17.3333 15.8935 17.3333" stroke="#005B7F" stroke-width="2.66667" stroke-linecap="round" stroke-linejoin="round"/>
<path d="M16 22.6667H16.0133" stroke="#005B7F" stroke-width="2.66667" stroke-linecap="round" stroke-linejoin="round"/>
</svg>
